<?xml version="1.0" encoding="UTF-8" standalone="no"?>
<svg
   width="540.15686"
   height="100.01244"
   viewBox="0 0 540.1569 100.01243"
   version="1.2"
   id="svg109041"
   sodipodi:docname="C-chords.svg"
   inkscape:version="1.2.1 (9c6d41e410, 2022-07-14)"
   xmlns:inkscape="http://www.inkscape.org/namespaces/inkscape"
   xmlns:sodipodi="http://sodipodi.sourceforge.net/DTD/sodipodi-0.dtd"
   xmlns="http://www.w3.org/2000/svg"
   xmlns:svg="http://www.w3.org/2000/svg"
   xmlns:rdf="http://www.w3.org/1999/02/22-rdf-syntax-ns#"
   xmlns:cc="http://creativecommons.org/ns#"
   xmlns:dc="http://purl.org/dc/elements/1.1/">
  <defs
     id="defs109045" />
  <sodipodi:namedview
     id="namedview109043"
     pagecolor="#ffffff"
     bordercolor="#000000"
     borderopacity="0.25"
     inkscape:showpageshadow="2"
     inkscape:pageopacity="0.0"
     inkscape:pagecheckerboard="0"
     inkscape:deskcolor="#d1d1d1"
     showgrid="false"
     inkscape:zoom="1.0457808"
     inkscape:cx="775.01901"
     inkscape:cy="-188.376"
     inkscape:window-width="2240"
     inkscape:window-height="1354"
     inkscape:window-x="0"
     inkscape:window-y="0"
     inkscape:window-maximized="1"
     inkscape:current-layer="svg109041" />
  <title
     id="title108789">Без_названия-2</title>
  <desc
     id="desc108791">Generated by MuseScore 3.6.2</desc>
  <polyline
     class="StaffLines"
     fill="none"
     stroke="#000000"
     stroke-width="2.73"
     stroke-linejoin="bevel"
     points="212.598,1068.31 2763.78,1068.31"
     id="polyline108803"
     transform="matrix(0.21172807,0,0,0.48944629,-45.012964,-491.67816)" />
  <polyline
     class="StaffLines"
     fill="none"
     stroke="#000000"
     stroke-width="2.73"
     stroke-linejoin="bevel"
     points="212.598,1093.11 2763.78,1093.11"
     id="polyline108805"
     transform="matrix(0.21172807,0,0,0.48944629,-45.012964,-491.67816)" />
  <polyline
     class="StaffLines"
     fill="none"
     stroke="#000000"
     stroke-width="2.73"
     stroke-linejoin="bevel"
     points="212.598,1117.91 2763.78,1117.91"
     id="polyline108807"
     transform="matrix(0.21172807,0,0,0.48944629,-45.012964,-491.67816)" />
  <polyline
     class="StaffLines"
     fill="none"
     stroke="#000000"
     stroke-width="2.73"
     stroke-linejoin="bevel"
     points="212.598,1142.72 2763.78,1142.72"
     id="polyline108809"
     transform="matrix(0.21172807,0,0,0.48944629,-45.012964,-491.67816)" />
  <polyline
     class="StaffLines"
     fill="none"
     stroke="#000000"
     stroke-width="2.73"
     stroke-linejoin="bevel"
     points="212.598,1167.52 2763.78,1167.52"
     id="polyline108811"
     transform="matrix(0.21172807,0,0,0.48944629,-45.012964,-491.67816)" />
  <polyline
     class="LedgerLine"
     fill="none"
     stroke="#000000"
     stroke-width="3.97"
     stroke-linejoin="bevel"
     points="357.929,1192.32 412.295,1192.32"
     id="polyline108903"
     transform="matrix(0.48944629,0,0,0.48944629,-104.0553,-491.67816)" />
  <path
     class="Note"
     d="m 84.462687,85.29739 c -6.699648,0 -9.082087,3.39917 -9.082087,6.555521 0,3.156351 2.382439,6.555521 9.082087,6.555521 6.699668,0 9.029007,-3.39917 9.029007,-6.555521 0,-3.156351 -2.329339,-6.555521 -9.029007,-6.555521 M 80.43382,89.713267 C 80.3807,89.515996 80.3807,89.326311 80.3807,89.12904 c 0,-0.386956 0.09862,-0.773913 0.29592,-1.115346 0.333841,-0.485589 0.918059,-0.827027 1.646448,-0.971183 0.629766,-0.144172 0.971184,-0.242795 2.238292,-0.242795 h 0.04552 c 1.942368,0 2.572133,1.798206 3.110847,3.64194 l 0.144128,0.485595 c 0.386966,1.259502 0.584261,2.329328 0.584261,3.156351 0,0.584227 -0.09867,1.115345 -0.295919,1.502301 -0.288342,0.538704 -0.773937,0.880137 -1.600949,1.069822 -0.440042,0.09863 -1.168431,0.144181 -1.168431,0.144181 -0.242795,0 -0.432519,0.05308 -0.629766,0.05308 -1.555401,0 -2.526585,-0.584218 -3.201898,-2.670742 -0.584218,-1.798211 -0.682842,-2.329329 -1.115311,-4.468973"
     id="path108905"
     style="stroke-width:0.485592" />
  <path
     class="Note"
     d="m 84.462687,73.159122 c -6.699648,0 -9.082087,3.39917 -9.082087,6.555521 0,3.156351 2.382439,6.555521 9.082087,6.555521 6.699668,0 9.029007,-3.39917 9.029007,-6.555521 0,-3.156351 -2.329339,-6.555521 -9.029007,-6.555521 M 80.43382,77.574999 C 80.3807,77.377728 80.3807,77.188043 80.3807,76.990772 c 0,-0.386956 0.09862,-0.773913 0.29592,-1.115345 0.333841,-0.48559 0.918059,-0.827028 1.646448,-0.971184 0.629766,-0.144171 0.971184,-0.242795 2.238292,-0.242795 h 0.04552 c 1.942368,0 2.572133,1.798206 3.110847,3.641941 l 0.144128,0.485594 c 0.386966,1.259502 0.584261,2.329329 0.584261,3.156351 0,0.584227 -0.09867,1.115345 -0.295919,1.502301 -0.288342,0.538705 -0.773937,0.880137 -1.600949,1.069822 -0.440042,0.09863 -1.168431,0.144181 -1.168431,0.144181 -0.242795,0 -0.432519,0.05308 -0.629766,0.05308 -1.555401,0 -2.526585,-0.584218 -3.201898,-2.670742 -0.584218,-1.798211 -0.682842,-2.329329 -1.115311,-4.468973"
     id="path108907"
     style="stroke-width:0.485592" />
  <path
     class="Note"
     d="m 84.462687,61.020854 c -6.699648,0 -9.082087,3.39917 -9.082087,6.555521 0,3.156351 2.382439,6.555522 9.082087,6.555522 6.699668,0 9.029007,-3.399171 9.029007,-6.555522 0,-3.156351 -2.329339,-6.555521 -9.029007,-6.555521 M 80.43382,65.436732 C 80.3807,65.23946 80.3807,65.049775 80.3807,64.852504 c 0,-0.386956 0.09862,-0.773912 0.29592,-1.115345 0.333841,-0.48559 0.918059,-0.827027 1.646448,-0.971184 0.629766,-0.144171 0.971184,-0.242795 2.238292,-0.242795 h 0.04552 c 1.942368,0 2.572133,1.798206 3.110847,3.641941 l 0.144128,0.485594 c 0.386966,1.259502 0.584261,2.329329 0.584261,3.156351 0,0.584228 -0.09867,1.115345 -0.295919,1.502302 -0.288342,0.538704 -0.773937,0.880137 -1.600949,1.069821 -0.440042,0.09863 -1.168431,0.144181 -1.168431,0.144181 -0.242795,0 -0.432519,0.05308 -0.629766,0.05308 -1.555401,0 -2.526585,-0.584218 -3.201898,-2.670742 -0.584218,-1.798211 -0.682842,-2.329329 -1.115311,-4.468972"
     id="path108909"
     style="stroke-width:0.485592" />
  <path
     class="Note"
     d="m 149.36229,79.228256 c -6.69965,0 -9.08209,3.39917 -9.08209,6.555521 0,3.156351 2.38244,6.555521 9.08209,6.555521 6.69966,0 9.029,-3.39917 9.029,-6.555521 0,-3.156351 -2.32934,-6.555521 -9.029,-6.555521 m -4.02887,4.415877 c -0.0531,-0.197271 -0.0531,-0.386956 -0.0531,-0.584227 0,-0.386956 0.0986,-0.773913 0.29592,-1.115345 0.33384,-0.48559 0.91806,-0.827028 1.64645,-0.971184 0.62976,-0.144172 0.97118,-0.242795 2.23829,-0.242795 h 0.0455 c 1.94237,0 2.57213,1.798206 3.11084,3.64194 l 0.14413,0.485595 c 0.38697,1.259502 0.58426,2.329329 0.58426,3.156351 0,0.584227 -0.0987,1.115345 -0.29592,1.502301 -0.28834,0.538704 -0.77393,0.880137 -1.60094,1.069822 -0.44005,0.09863 -1.16844,0.144181 -1.16844,0.144181 -0.24279,0 -0.43251,0.05308 -0.62976,0.05308 -1.5554,0 -2.52659,-0.584218 -3.2019,-2.670742 -0.58422,-1.798211 -0.68284,-2.329329 -1.11531,-4.468973"
     id="path108911"
     style="stroke-width:0.485592" />
  <path
     class="Note"
     d="m 149.36229,67.089988 c -6.69965,0 -9.08209,3.39917 -9.08209,6.555521 0,3.156351 2.38244,6.555521 9.08209,6.555521 6.69966,0 9.029,-3.39917 9.029,-6.555521 0,-3.156351 -2.32934,-6.555521 -9.029,-6.555521 m -4.02887,4.415878 c -0.0531,-0.197272 -0.0531,-0.386957 -0.0531,-0.584228 0,-0.386956 0.0986,-0.773913 0.29592,-1.115345 0.33384,-0.48559 0.91806,-0.827028 1.64645,-0.971184 0.62976,-0.144171 0.97118,-0.242795 2.23829,-0.242795 h 0.0455 c 1.94237,0 2.57213,1.798206 3.11084,3.641941 l 0.14413,0.485594 c 0.38697,1.259502 0.58426,2.329329 0.58426,3.156351 0,0.584227 -0.0987,1.115345 -0.29592,1.502301 -0.28834,0.538705 -0.77393,0.880137 -1.60094,1.069822 -0.44005,0.09863 -1.16844,0.144181 -1.16844,0.144181 -0.24279,0 -0.43251,0.05308 -0.62976,0.05308 -1.5554,0 -2.52659,-0.584218 -3.2019,-2.670742 -0.58422,-1.798211 -0.68284,-2.329329 -1.11531,-4.468972"
     id="path108913"
     style="stroke-width:0.485592" />
  <path
     class="Note"
     d="m 149.36229,54.946826 c -6.69965,0 -9.08209,3.39917 -9.08209,6.555521 0,3.156351 2.38244,6.555521 9.08209,6.555521 6.69966,0 9.029,-3.39917 9.029,-6.555521 0,-3.156351 -2.32934,-6.555521 -9.029,-6.555521 m -4.02887,4.415877 c -0.0531,-0.197271 -0.0531,-0.386956 -0.0531,-0.584227 0,-0.386957 0.0986,-0.773913 0.29592,-1.115346 0.33384,-0.485589 0.91806,-0.827027 1.64645,-0.971183 0.62976,-0.144172 0.97118,-0.242795 2.23829,-0.242795 h 0.0455 c 1.94237,0 2.57213,1.798206 3.11084,3.64194 l 0.14413,0.485595 c 0.38697,1.259501 0.58426,2.329328 0.58426,3.156351 0,0.584227 -0.0987,1.115345 -0.29592,1.502301 -0.28834,0.538704 -0.77393,0.880137 -1.60094,1.069822 -0.44005,0.09863 -1.16844,0.144181 -1.16844,0.144181 -0.24279,0 -0.43251,0.05308 -0.62976,0.05308 -1.5554,0 -2.52659,-0.584218 -3.2019,-2.670742 -0.58422,-1.798211 -0.68284,-2.329329 -1.11531,-4.468973"
     id="path108915"
     style="stroke-width:0.485592" />
  <path
     class="Note"
     d="m 214.2614,73.159122 c -6.69965,0 -9.08209,3.39917 -9.08209,6.555521 0,3.156351 2.38244,6.555521 9.08209,6.555521 6.69966,0 9.029,-3.39917 9.029,-6.555521 0,-3.156351 -2.32934,-6.555521 -9.029,-6.555521 m -4.02887,4.415877 c -0.0531,-0.197271 -0.0531,-0.386956 -0.0531,-0.584227 0,-0.386956 0.0986,-0.773913 0.29592,-1.115345 0.33384,-0.48559 0.91806,-0.827028 1.64645,-0.971184 0.62976,-0.144171 0.97118,-0.242795 2.23829,-0.242795 h 0.0455 c 1.94236,0 2.57213,1.798206 3.11084,3.641941 l 0.14413,0.485594 c 0.38697,1.259502 0.58426,2.329329 0.58426,3.156351 0,0.584227 -0.0987,1.115345 -0.29592,1.502301 -0.28834,0.538705 -0.77393,0.880137 -1.60095,1.069822 -0.44004,0.09863 -1.16843,0.144181 -1.16843,0.144181 -0.24279,0 -0.43252,0.05308 -0.62976,0.05308 -1.5554,0 -2.52659,-0.584218 -3.2019,-2.670742 -0.58422,-1.798211 -0.68284,-2.329329 -1.11531,-4.468973"
     id="path108917"
     style="stroke-width:0.485592" />
  <path
     class="Note"
     d="m 214.2614,61.020854 c -6.69965,0 -9.08209,3.39917 -9.08209,6.555521 0,3.156351 2.38244,6.555522 9.08209,6.555522 6.69966,0 9.029,-3.399171 9.029,-6.555522 0,-3.156351 -2.32934,-6.555521 -9.029,-6.555521 m -4.02887,4.415878 c -0.0531,-0.197272 -0.0531,-0.386957 -0.0531,-0.584228 0,-0.386956 0.0986,-0.773912 0.29592,-1.115345 0.33384,-0.48559 0.91806,-0.827027 1.64645,-0.971184 0.62976,-0.144171 0.97118,-0.242795 2.23829,-0.242795 h 0.0455 c 1.94236,0 2.57213,1.798206 3.11084,3.641941 l 0.14413,0.485594 c 0.38697,1.259502 0.58426,2.329329 0.58426,3.156351 0,0.584228 -0.0987,1.115345 -0.29592,1.502302 -0.28834,0.538704 -0.77393,0.880137 -1.60095,1.069821 -0.44004,0.09863 -1.16843,0.144181 -1.16843,0.144181 -0.24279,0 -0.43252,0.05308 -0.62976,0.05308 -1.5554,0 -2.52659,-0.584218 -3.2019,-2.670742 -0.58422,-1.798211 -0.68284,-2.329329 -1.11531,-4.468972"
     id="path108919"
     style="stroke-width:0.485592" />
  <path
     class="Note"
     d="m 214.2614,48.877691 c -6.69965,0 -9.08209,3.399171 -9.08209,6.555522 0,3.156351 2.38244,6.555521 9.08209,6.555521 6.69966,0 9.029,-3.39917 9.029,-6.555521 0,-3.156351 -2.32934,-6.555522 -9.029,-6.555522 m -4.02887,4.415878 c -0.0531,-0.197271 -0.0531,-0.386956 -0.0531,-0.584227 0,-0.386957 0.0986,-0.773913 0.29592,-1.115346 0.33384,-0.485589 0.91806,-0.827027 1.64645,-0.971183 0.62976,-0.144172 0.97118,-0.242795 2.23829,-0.242795 h 0.0455 c 1.94236,0 2.57213,1.798206 3.11084,3.64194 l 0.14413,0.485595 c 0.38697,1.259502 0.58426,2.329328 0.58426,3.156351 0,0.584227 -0.0987,1.115345 -0.29592,1.502301 -0.28834,0.538704 -0.77393,0.880137 -1.60095,1.069822 -0.44004,0.09863 -1.16843,0.144181 -1.16843,0.144181 -0.24279,0 -0.43252,0.05308 -0.62976,0.05308 -1.5554,0 -2.52659,-0.584218 -3.2019,-2.670742 -0.58422,-1.798211 -0.68284,-2.329329 -1.11531,-4.468973"
     id="path108921"
     style="stroke-width:0.485592" />
  <path
     class="Note"
     d="m 279.16051,67.089988 c -6.69965,0 -9.08209,3.39917 -9.08209,6.555521 0,3.156351 2.38244,6.555521 9.08209,6.555521 6.69966,0 9.029,-3.39917 9.029,-6.555521 0,-3.156351 -2.32934,-6.555521 -9.029,-6.555521 m -4.02887,4.415878 c -0.0531,-0.197272 -0.0531,-0.386957 -0.0531,-0.584228 0,-0.386956 0.0986,-0.773913 0.29592,-1.115345 0.33384,-0.48559 0.91806,-0.827028 1.64645,-0.971184 0.62976,-0.144171 0.97118,-0.242795 2.23829,-0.242795 h 0.0455 c 1.94236,0 2.57213,1.798206 3.11084,3.641941 l 0.14413,0.485594 c 0.38697,1.259502 0.58426,2.329329 0.58426,3.156351 0,0.584227 -0.0987,1.115345 -0.29592,1.502301 -0.28834,0.538705 -0.77393,0.880137 -1.60095,1.069822 -0.44004,0.09863 -1.16843,0.144181 -1.16843,0.144181 -0.24279,0 -0.43252,0.05308 -0.62976,0.05308 -1.5554,0 -2.52659,-0.584218 -3.2019,-2.670742 -0.58422,-1.798211 -0.68284,-2.329329 -1.11531,-4.468972"
     id="path108923"
     style="stroke-width:0.485592" />
  <path
     class="Note"
     d="m 279.16051,54.946826 c -6.69965,0 -9.08209,3.39917 -9.08209,6.555521 0,3.156351 2.38244,6.555521 9.08209,6.555521 6.69966,0 9.029,-3.39917 9.029,-6.555521 0,-3.156351 -2.32934,-6.555521 -9.029,-6.555521 m -4.02887,4.415877 c -0.0531,-0.197271 -0.0531,-0.386956 -0.0531,-0.584227 0,-0.386957 0.0986,-0.773913 0.29592,-1.115346 0.33384,-0.485589 0.91806,-0.827027 1.64645,-0.971183 0.62976,-0.144172 0.97118,-0.242795 2.23829,-0.242795 h 0.0455 c 1.94236,0 2.57213,1.798206 3.11084,3.64194 l 0.14413,0.485595 c 0.38697,1.259501 0.58426,2.329328 0.58426,3.156351 0,0.584227 -0.0987,1.115345 -0.29592,1.502301 -0.28834,0.538704 -0.77393,0.880137 -1.60095,1.069822 -0.44004,0.09863 -1.16843,0.144181 -1.16843,0.144181 -0.24279,0 -0.43252,0.05308 -0.62976,0.05308 -1.5554,0 -2.52659,-0.584218 -3.2019,-2.670742 -0.58422,-1.798211 -0.68284,-2.329329 -1.11531,-4.468973"
     id="path108925"
     style="stroke-width:0.485592" />
  <path
     class="Note"
     d="m 279.16051,42.808557 c -6.69965,0 -9.08209,3.399171 -9.08209,6.555522 0,3.156351 2.38244,6.555521 9.08209,6.555521 6.69966,0 9.029,-3.39917 9.029,-6.555521 0,-3.156351 -2.32934,-6.555522 -9.029,-6.555522 m -4.02887,4.41588 c -0.0531,-0.197272 -0.0531,-0.386959 -0.0531,-0.584231 0,-0.386954 0.0986,-0.773913 0.29592,-1.115343 0.33384,-0.485592 0.91806,-0.827027 1.64645,-0.971184 0.62976,-0.144173 0.97118,-0.242797 2.23829,-0.242797 h 0.0455 c 1.94236,0 2.57213,1.798208 3.11084,3.641943 l 0.14413,0.485593 c 0.38697,1.259503 0.58426,2.329329 0.58426,3.156352 0,0.584227 -0.0987,1.115345 -0.29592,1.502301 -0.28834,0.538704 -0.77393,0.880137 -1.60095,1.069822 -0.44004,0.09863 -1.16843,0.144181 -1.16843,0.144181 -0.24279,0 -0.43252,0.05308 -0.62976,0.05308 -1.5554,0 -2.52659,-0.584218 -3.2019,-2.670742 -0.58422,-1.798211 -0.68284,-2.329329 -1.11531,-4.468971"
     id="path108927"
     style="stroke-width:0.485592" />
  <path
     class="Note"
     d="m 344.05961,61.020854 c -6.69964,0 -9.08208,3.39917 -9.08208,6.555521 0,3.156351 2.38244,6.555522 9.08208,6.555522 6.69967,0 9.02901,-3.399171 9.02901,-6.555522 0,-3.156351 -2.32934,-6.555521 -9.02901,-6.555521 m -4.02886,4.415878 c -0.0531,-0.197272 -0.0531,-0.386957 -0.0531,-0.584228 0,-0.386956 0.0986,-0.773912 0.29592,-1.115345 0.33384,-0.48559 0.91806,-0.827027 1.64644,-0.971184 0.62977,-0.144171 0.97119,-0.242795 2.2383,-0.242795 h 0.0455 c 1.94236,0 2.57213,1.798206 3.11084,3.641941 l 0.14413,0.485594 c 0.38697,1.259502 0.58426,2.329329 0.58426,3.156351 0,0.584228 -0.0987,1.115345 -0.29592,1.502302 -0.28834,0.538704 -0.77393,0.880137 -1.60095,1.069821 -0.44004,0.09863 -1.16843,0.144181 -1.16843,0.144181 -0.24279,0 -0.43252,0.05308 -0.62976,0.05308 -1.55541,0 -2.52659,-0.584218 -3.2019,-2.670742 -0.58422,-1.798211 -0.68284,-2.329329 -1.11531,-4.468972"
     id="path108929"
     style="stroke-width:0.485592" />
  <path
     class="Note"
     d="m 344.05961,48.877691 c -6.69964,0 -9.08208,3.399171 -9.08208,6.555522 0,3.156351 2.38244,6.555521 9.08208,6.555521 6.69967,0 9.02901,-3.39917 9.02901,-6.555521 0,-3.156351 -2.32934,-6.555522 -9.02901,-6.555522 m -4.02886,4.415878 c -0.0531,-0.197271 -0.0531,-0.386956 -0.0531,-0.584227 0,-0.386957 0.0986,-0.773913 0.29592,-1.115346 0.33384,-0.485589 0.91806,-0.827027 1.64644,-0.971183 0.62977,-0.144172 0.97119,-0.242795 2.2383,-0.242795 h 0.0455 c 1.94236,0 2.57213,1.798206 3.11084,3.64194 l 0.14413,0.485595 c 0.38697,1.259502 0.58426,2.329328 0.58426,3.156351 0,0.584227 -0.0987,1.115345 -0.29592,1.502301 -0.28834,0.538704 -0.77393,0.880137 -1.60095,1.069822 -0.44004,0.09863 -1.16843,0.144181 -1.16843,0.144181 -0.24279,0 -0.43252,0.05308 -0.62976,0.05308 -1.55541,0 -2.52659,-0.584218 -3.2019,-2.670742 -0.58422,-1.798211 -0.68284,-2.329329 -1.11531,-4.468973"
     id="path108931"
     style="stroke-width:0.485592" />
  <path
     class="Note"
     d="m 344.05961,36.739423 c -6.69964,0 -9.08208,3.399171 -9.08208,6.555521 0,3.156351 2.38244,6.555522 9.08208,6.555522 6.69967,0 9.02901,-3.399171 9.02901,-6.555522 0,-3.15635 -2.32934,-6.555521 -9.02901,-6.555521 m -4.02886,4.41588 c -0.0531,-0.197272 -0.0531,-0.386959 -0.0531,-0.584231 0,-0.386954 0.0986,-0.773913 0.29592,-1.115343 0.33384,-0.485592 0.91806,-0.827027 1.64644,-0.971184 0.62977,-0.144173 0.97119,-0.242796 2.2383,-0.242796 h 0.0455 c 1.94236,0 2.57213,1.798207 3.11084,3.641942 l 0.14413,0.485593 c 0.38697,1.259505 0.58426,2.329328 0.58426,3.15635 0,0.584231 -0.0987,1.115348 -0.29592,1.502302 -0.28834,0.538706 -0.77393,0.880136 -1.60095,1.069823 -0.44004,0.09863 -1.16843,0.144182 -1.16843,0.144182 -0.24279,0 -0.43252,0.05307 -0.62976,0.05307 -1.55541,0 -2.52659,-0.584216 -3.2019,-2.670743 -0.58422,-1.798212 -0.68284,-2.329329 -1.11531,-4.46897"
     id="path108933"
     style="stroke-width:0.485592" />
  <path
     class="Note"
     d="m 408.96068,54.946826 c -6.69965,0 -9.08209,3.39917 -9.08209,6.555521 0,3.156351 2.38244,6.555521 9.08209,6.555521 6.69967,0 9.02901,-3.39917 9.02901,-6.555521 0,-3.156351 -2.32934,-6.555521 -9.02901,-6.555521 m -4.02887,4.415877 c -0.0531,-0.197271 -0.0531,-0.386956 -0.0531,-0.584227 0,-0.386957 0.0986,-0.773913 0.29592,-1.115346 0.33384,-0.485589 0.91806,-0.827027 1.64645,-0.971183 0.62977,-0.144172 0.97119,-0.242795 2.23829,-0.242795 h 0.0455 c 1.94237,0 2.57214,1.798206 3.11085,3.64194 l 0.14413,0.485595 c 0.38696,1.259501 0.58426,2.329328 0.58426,3.156351 0,0.584227 -0.0987,1.115345 -0.29592,1.502301 -0.28834,0.538704 -0.77394,0.880137 -1.60095,1.069822 -0.44004,0.09863 -1.16843,0.144181 -1.16843,0.144181 -0.2428,0 -0.43252,0.05308 -0.62977,0.05308 -1.5554,0 -2.52658,-0.584218 -3.2019,-2.670742 -0.58421,-1.798211 -0.68284,-2.329329 -1.11531,-4.468973"
     id="path108935"
     style="stroke-width:0.485592" />
  <path
     class="Note"
     d="m 408.96068,42.808557 c -6.69965,0 -9.08209,3.399171 -9.08209,6.555522 0,3.156351 2.38244,6.555521 9.08209,6.555521 6.69967,0 9.02901,-3.39917 9.02901,-6.555521 0,-3.156351 -2.32934,-6.555522 -9.02901,-6.555522 m -4.02887,4.41588 c -0.0531,-0.197272 -0.0531,-0.386959 -0.0531,-0.584231 0,-0.386954 0.0986,-0.773913 0.29592,-1.115343 0.33384,-0.485592 0.91806,-0.827027 1.64645,-0.971184 0.62977,-0.144173 0.97119,-0.242797 2.23829,-0.242797 h 0.0455 c 1.94237,0 2.57214,1.798208 3.11085,3.641943 l 0.14413,0.485593 c 0.38696,1.259503 0.58426,2.329329 0.58426,3.156352 0,0.584227 -0.0987,1.115345 -0.29592,1.502301 -0.28834,0.538704 -0.77394,0.880137 -1.60095,1.069822 -0.44004,0.09863 -1.16843,0.144181 -1.16843,0.144181 -0.2428,0 -0.43252,0.05308 -0.62977,0.05308 -1.5554,0 -2.52658,-0.584218 -3.2019,-2.670742 -0.58421,-1.798211 -0.68284,-2.329329 -1.11531,-4.468971"
     id="path108937"
     style="stroke-width:0.485592" />
  <path
     class="Note"
     d="m 408.96068,30.670289 c -6.69965,0 -9.08209,3.399171 -9.08209,6.555521 0,3.156351 2.38244,6.555522 9.08209,6.555522 6.69967,0 9.02901,-3.399171 9.02901,-6.555522 0,-3.15635 -2.32934,-6.555521 -9.02901,-6.555521 m -4.02887,4.41588 c -0.0531,-0.197272 -0.0531,-0.386959 -0.0531,-0.584231 0,-0.386954 0.0986,-0.773913 0.29592,-1.115342 0.33384,-0.485593 0.91806,-0.827028 1.64645,-0.971185 0.62977,-0.144173 0.97119,-0.242796 2.23829,-0.242796 h 0.0455 c 1.94237,0 2.57214,1.798207 3.11085,3.641942 l 0.14413,0.485593 c 0.38696,1.259505 0.58426,2.329328 0.58426,3.15635 0,0.584231 -0.0987,1.115348 -0.29592,1.502302 -0.28834,0.538706 -0.77394,0.880136 -1.60095,1.069823 -0.44004,0.09863 -1.16843,0.144182 -1.16843,0.144182 -0.2428,0 -0.43252,0.05307 -0.62977,0.05307 -1.5554,0 -2.52658,-0.584216 -3.2019,-2.670743 -0.58421,-1.798212 -0.68284,-2.329329 -1.11531,-4.46897"
     id="path108939"
     style="stroke-width:0.485592" />
  <path
     class="Note"
     d="m 473.85636,48.877691 c -6.69964,0 -9.08208,3.399171 -9.08208,6.555522 0,3.156351 2.38244,6.555521 9.08208,6.555521 6.69967,0 9.02901,-3.39917 9.02901,-6.555521 0,-3.156351 -2.32934,-6.555522 -9.02901,-6.555522 m -4.02886,4.415878 c -0.0531,-0.197271 -0.0531,-0.386956 -0.0531,-0.584227 0,-0.386957 0.0986,-0.773913 0.29592,-1.115346 0.33384,-0.485589 0.91806,-0.827027 1.64644,-0.971183 0.62977,-0.144172 0.97119,-0.242795 2.2383,-0.242795 h 0.0455 c 1.94237,0 2.57214,1.798206 3.11085,3.64194 l 0.14413,0.485595 c 0.38697,1.259502 0.58426,2.329328 0.58426,3.156351 0,0.584227 -0.0987,1.115345 -0.29592,1.502301 -0.28834,0.538704 -0.77394,0.880137 -1.60095,1.069822 -0.44004,0.09863 -1.16843,0.144181 -1.16843,0.144181 -0.24279,0 -0.43252,0.05308 -0.62976,0.05308 -1.55541,0 -2.52659,-0.584218 -3.2019,-2.670742 -0.58422,-1.798211 -0.68284,-2.329329 -1.11531,-4.468973"
     id="path108941"
     style="stroke-width:0.485592" />
  <path
     class="Note"
     d="m 473.85636,36.739423 c -6.69964,0 -9.08208,3.399171 -9.08208,6.555521 0,3.156351 2.38244,6.555522 9.08208,6.555522 6.69967,0 9.02901,-3.399171 9.02901,-6.555522 0,-3.15635 -2.32934,-6.555521 -9.02901,-6.555521 m -4.02886,4.41588 c -0.0531,-0.197272 -0.0531,-0.386959 -0.0531,-0.584231 0,-0.386954 0.0986,-0.773913 0.29592,-1.115343 0.33384,-0.485592 0.91806,-0.827027 1.64644,-0.971184 0.62977,-0.144173 0.97119,-0.242796 2.2383,-0.242796 h 0.0455 c 1.94237,0 2.57214,1.798207 3.11085,3.641942 l 0.14413,0.485593 c 0.38697,1.259505 0.58426,2.329328 0.58426,3.15635 0,0.584231 -0.0987,1.115348 -0.29592,1.502302 -0.28834,0.538706 -0.77394,0.880136 -1.60095,1.069823 -0.44004,0.09863 -1.16843,0.144182 -1.16843,0.144182 -0.24279,0 -0.43252,0.05307 -0.62976,0.05307 -1.55541,0 -2.52659,-0.584216 -3.2019,-2.670743 -0.58422,-1.798212 -0.68284,-2.329329 -1.11531,-4.46897"
     id="path108943"
     style="stroke-width:0.485592" />
  <path
     class="Note"
     d="m 473.85636,24.601155 c -6.69964,0 -9.08208,3.399171 -9.08208,6.555521 0,3.156351 2.38244,6.555522 9.08208,6.555522 6.69967,0 9.02901,-3.399171 9.02901,-6.555522 0,-3.15635 -2.32934,-6.555521 -9.02901,-6.555521 m -4.02886,4.41588 c -0.0531,-0.197272 -0.0531,-0.386959 -0.0531,-0.584231 0,-0.386954 0.0986,-0.773912 0.29592,-1.115342 0.33384,-0.485593 0.91806,-0.827028 1.64644,-0.971185 0.62977,-0.144172 0.97119,-0.242796 2.2383,-0.242796 h 0.0455 c 1.94237,0 2.57214,1.798207 3.11085,3.641943 l 0.14413,0.485592 c 0.38697,1.259505 0.58426,2.329328 0.58426,3.15635 0,0.584231 -0.0987,1.115348 -0.29592,1.502302 -0.28834,0.538707 -0.77394,0.880136 -1.60095,1.069823 -0.44004,0.09863 -1.16843,0.144182 -1.16843,0.144182 -0.24279,0 -0.43252,0.05307 -0.62976,0.05307 -1.55541,0 -2.52659,-0.584216 -3.2019,-2.670743 -0.58422,-1.798212 -0.68284,-2.329329 -1.11531,-4.46897"
     id="path108945"
     style="stroke-width:0.485592" />
  <path
     class="Clef"
     d="m 40.478926,64.746279 c -0.599415,-2.632844 -1.881671,-4.491741 -2.261064,-4.992484 -1.547826,-2.078967 -3.49777,-3.459842 -5.773985,-4.119958 -1.509901,-0.424893 -2.966678,-0.485594 -4.142686,-0.394543 -0.508366,-2.921132 -0.993959,-5.773988 -1.434051,-8.422018 2.648032,-2.996979 4.408305,-5.81191 5.516038,-7.898452 1.684423,-3.194275 2.23829,-5.417366 2.268639,-5.516038 0.834588,-2.534161 1.00911,-6.274727 0.470393,-10.258139 -0.485592,-3.664669 -1.502277,-6.927072 -2.647983,-8.505248 -0.493168,-0.690512 -1.00911,-1.047423 -1.509901,-1.047423 -0.591792,0 -1.813348,0.599707 -3.21705,1.95014 -1.115308,1.06199 -2.701107,2.95143 -3.945438,5.872608 -1.456777,3.429497 -1.562976,8.035049 -1.388454,11.297647 0.182097,3.535695 0.720765,6.297502 0.728388,6.320276 0.0076,0.0455 0.136549,0.773889 0.348995,2.018219 -0.106199,0.113823 -0.227596,0.22007 -0.348995,0.341469 -0.500791,0.485592 -1.077432,1.031884 -1.752697,1.707148 -0.417318,0.417318 -0.880136,0.857362 -1.365729,1.327804 -4.097185,3.953013 -10.3112625,9.939447 -10.3112625,19.241584 0,2.283805 0.4400685,4.431031 1.3050295,6.38099 0.766328,1.745096 1.881671,3.338449 3.308098,4.734526 3.755766,3.672291 8.899986,5.227693 12.321907,5.151843 1.434003,-0.03793 2.716307,-0.151748 3.877164,-0.371768 0.887711,4.666199 1.441578,8.080547 1.456777,10.675405 0.02277,3.163977 -0.781513,5.098724 -2.670758,6.441725 -1.183631,0.842161 -2.54936,1.305031 -4.051686,1.373303 -1.259481,0.0607 -2.359639,-0.166945 -3.050103,-0.364192 h -0.0076 c 0,0 -0.136598,-0.04557 -0.144173,-0.136599 -0.0076,-0.09105 0.166899,-0.113772 0.166899,-0.113772 h 0.0152 c 0.93326,-0.212449 2.663183,-0.811864 3.808841,-2.412814 0.872561,-1.229131 1.297454,-3.474995 0.402168,-5.387017 -0.538717,-1.160903 -1.752698,-2.594907 -4.484155,-2.814928 -1.213981,-0.09862 -2.314139,0.151748 -3.285323,0.735961 -0.880137,0.523517 -1.608526,1.320233 -2.116892,2.291416 -1.191207,2.283791 -0.971185,5.068368 0.546291,6.934842 1.441579,1.76027 3.679868,2.883206 6.320276,3.163923 0.417318,0.04557 0.827013,0.06074 1.236756,0.06074 2.154816,0 4.286858,-0.584236 6.024356,-1.654044 1.775472,-1.251905 2.807355,-3.186701 3.133625,-5.918159 0.273146,-2.25344 0.08342,-5.129069 -0.59184,-9.051732 -0.174522,-1.016731 -0.440044,-2.488663 -0.758738,-4.309633 2.792156,-0.933256 4.810424,-2.670756 6.63897,-5.516035 1.60095,-2.784582 2.056193,-5.751248 1.365729,-8.816553 M 23.862534,77.477918 c -2.25344,-0.591839 -4.408256,-1.805822 -6.229228,-3.512967 -0.637339,-0.591794 -1.547825,-1.646463 -2.261015,-3.292926 -0.660114,-1.540233 -0.986383,-3.209461 -0.956034,-4.94697 0.03035,-2.283806 0.66769,-4.628302 1.881671,-6.950069 1.418852,-2.708679 3.634367,-5.394589 6.578271,-7.981924 0.705614,-0.62214 1.373304,-1.244329 1.995493,-1.86647 0.37177,2.071342 0.773889,4.347556 1.198782,6.714822 -1.866471,0.614563 -4.173035,2.14724 -5.682936,4.893846 -1.722348,3.186726 -1.654073,5.87266 -1.297455,7.564642 0.455243,2.162408 1.684424,3.990964 3.361222,5.007686 0.455243,0.273146 2.458312,1.30503 3.353599,1.024309 0.182097,-0.05312 0.311119,-0.166946 0.379393,-0.32627 0.250371,-0.569065 -0.250371,-0.880137 -1.001534,-1.342977 -0.29592,-0.182099 -0.62219,-0.386956 -0.971185,-0.644929 -1.6161,-1.206392 -2.321763,-3.368795 -1.798197,-5.500852 0.280721,-1.160869 0.902862,-2.215513 1.798197,-3.04254 0.804238,-0.751149 1.798197,-1.282291 2.951479,-1.593363 0.993959,5.46293 1.995494,10.880332 2.792156,14.939589 0.0607,0.333846 0.128973,0.660067 0.189673,0.986337 -2.124467,0.455244 -4.233735,0.409745 -6.282352,-0.128974 m 5.500888,-16.123222 c 5.022822,-0.227598 7.094165,3.383997 7.526682,5.728499 0.227597,1.236742 0.227597,3.391559 -0.523566,5.440175 -0.569017,1.540205 -1.760272,3.520544 -4.256508,4.522078 C 32.07968,76.84058 32.04176,76.628131 32.003831,76.423259 31.252668,72.159154 30.311832,66.817636 29.363422,61.354696 M 25.804907,26.900413 c 0.864985,-2.784581 2.192789,-4.362757 3.163974,-5.204919 0.849787,-0.736013 1.64645,-1.085008 2.094117,-1.085008 0.06827,0 0.128973,0.01515 0.174473,0.03035 0.227646,0.06827 0.485593,0.341419 0.713238,0.766313 1.122933,2.078967 0.758739,5.341516 0.1062,7.496332 -0.789088,2.625258 -2.207892,5.349092 -6.4796,10.015343 -0.08347,-0.538716 -0.159322,-1.047034 -0.235221,-1.525051 -0.60699,-4.021337 -0.447667,-7.557032 0.462819,-10.49336"
     id="path108949"
     style="stroke-width:0.485592" />
  <path
     class="StaffText"
     d="M 91.207825,1.2187213 H 90.27494 L 89.296048,2.6625878 C 87.513974,1.3655551 86.604093,1.0180483 84.914035,1.0180483 c -2.32487,0 -4.305659,0.9788925 -5.942367,2.9366777 -1.567697,1.8696848 -2.301866,3.9253592 -2.301866,6.441113 0,5.28602 3.449128,9.030284 8.274579,9.030284 3.91557,0 6.408809,-2.300397 6.974609,-6.406852 l -1.154603,-0.200673 c -0.657816,3.651269 -2.516244,5.462221 -5.529275,5.462221 -3.624839,0 -5.337901,-2.501071 -5.337901,-7.787091 0,-2.7898435 0.367084,-4.625267 1.200611,-6.0936059 0.757174,-1.3704496 2.255858,-2.2269806 3.846559,-2.2269806 1.713062,0 3.227409,0.9054756 4.160293,2.4717037 0.466443,0.8124809 0.803182,1.713062 1.391985,3.6463749 H 91.57491 L 91.207825,1.2187213"
     id="path109027"
     style="stroke-width:0.489446" />
  <path
     class="StaffText"
     d="m 141.66827,19.059038 h 8.22123 c 2.1795,0 3.84656,-0.342612 5.13918,-1.076781 2.47024,-1.390028 3.84656,-4.184766 3.84656,-7.855613 0,-3.3771797 -1.22361,-6.0152952 -3.47947,-7.4836341 -1.34598,-0.856531 -3.1584,-1.2578769 -5.94971,-1.2578769 h -7.77779 v 1.1550932 h 0.46644 c 1.36898,0.024472 1.83543,0.1027837 2.0268,0.3475069 0.14536,0.2104619 0.14536,0.264301 0.14536,1.512389 V 16.048944 c 0,1.252982 0,1.297032 -0.14536,1.522178 -0.19137,0.244723 -0.65782,0.313245 -2.0268,0.342612 h -0.46644 v 1.145304 m 6.77589,-1.145304 c -1.24662,0 -1.39198,-0.151728 -1.39198,-1.345977 V 3.9106758 c 0,-1.1991434 0.16837,-1.3704496 1.39198,-1.3704496 h 1.27697 c 4.1833,0 5.91936,2.2710308 5.91936,7.6892008 0,5.481799 -1.56769,7.684307 -5.52927,7.684307 h -1.66706 m 16.46498,-10.2538996 -4.35118,0.264301 v 1.0572039 h 1.0019 c 0.92505,0.024472 1.04741,0.1664118 1.04741,1.2236157 v 5.843989 0.95442 0.200673 c -0.023,0.367085 -0.0455,0.509024 -0.14536,0.631386 -0.16788,0.225145 -0.63433,0.323034 -1.69006,0.347506 h -0.0915 v 0.876109 h 6.16409 v -0.876109 h -0.0999 c -1.61321,-0.05384 -1.83542,-0.1762 -1.83542,-1.081676 v -1.052309 -3.475069 c 0,-2.178036 1.2011,-3.7932086 2.7918,-3.7932086 1.39149,0 2.10266,1.0033648 2.10266,2.9856226 v 4.282655 1.174671 c -0.0225,0.323034 -0.0455,0.489446 -0.16788,0.611808 -0.14537,0.225145 -0.63481,0.323034 -1.69006,0.347506 h -0.0999 v 0.876109 h 6.19493 v -0.876109 h -0.0994 c -1.61371,-0.05384 -1.83542,-0.1762 -1.83542,-1.057203 V 16.048944 12.79902 c 0,-2.447231 1.10125,-4.0183536 2.81431,-4.0183536 1.39933,0 2.08015,1.0572039 2.08015,3.2597126 v 4.008565 1.155093 c -0.023,0.342612 -0.046,0.509024 -0.16837,0.631386 -0.14537,0.225145 -0.63481,0.323034 -1.69006,0.347506 h -0.0994 v 0.876109 h 6.19444 v -0.876109 h -0.0994 c -1.61371,-0.05384 -1.83543,-0.1762 -1.83543,-1.081676 v -1.052309 -4.498012 c 0,-1.522178 -0.14536,-2.0360962 -0.78017,-2.8681549 -0.71117,-0.9005812 -1.71307,-1.3900274 -2.89067,-1.3900274 -1.5907,0 -2.7688,0.7537472 -3.81622,2.4472314 -0.42092,-1.4683389 -1.74389,-2.4472314 -3.38011,-2.4472314 -1.49134,0 -2.56959,0.7096971 -3.52597,2.2465584 V 7.6598344"
     id="path109029"
     style="stroke-width:0.489446" />
  <path
     class="StaffText"
     d="m 221.27377,1.385133 h -14.70639 v 1.1550932 h 0.4361 c 1.39932,0.024472 1.86576,0.1027837 2.05714,0.3475069 0.14536,0.2104619 0.14536,0.264301 0.14536,1.512389 V 16.048944 c 0,1.252982 0,1.297032 -0.14536,1.522178 -0.19138,0.244723 -0.65782,0.342612 -2.05714,0.342612 h -0.4361 v 1.145304 h 15.02747 l 0.48944,-6.529213 h -1.07825 c -0.93288,4.351177 -1.93478,5.28602 -5.68198,5.383909 h -1.6137 c -1.46834,-0.05384 -1.83543,-0.298562 -1.75907,-1.179566 v -6.24044 h 0.48944 c 2.51625,-0.09789 3.42613,0.812481 3.52549,3.528908 h 1.14726 V 5.9908225 h -1.14726 c -0.15271,2.4031813 -1.10126,3.3576015 -3.42613,3.3576015 h -0.5888 V 3.7638419 c -0.023,-1.0327316 0.22172,-1.1991434 1.53735,-1.2236157 h 1.27696 c 4.01493,-0.019578 5.01683,0.856531 5.79701,5.0951359 h 1.05524 L 221.27377,1.385133 m 7.16598,6.2747014 -4.35166,0.264301 v 1.0572039 h 1.00189 c 0.92555,0.024472 1.04791,0.1664118 1.04791,1.2236157 v 5.843989 0.95442 0.200673 c -0.023,0.367085 -0.046,0.509024 -0.14537,0.631386 -0.16837,0.225145 -0.63481,0.323034 -1.69006,0.347506 h -0.092 v 0.876109 h 6.16409 v -0.876109 h -0.0994 c -1.61371,-0.05384 -1.83543,-0.1762 -1.83543,-1.081676 v -1.052309 -3.475069 c 0,-2.178036 1.20062,-3.7932086 2.79132,-3.7932086 1.39198,0 2.10315,1.0033648 2.10315,2.9856226 v 4.282655 1.174671 c -0.023,0.323034 -0.046,0.489446 -0.16837,0.611808 -0.14537,0.225145 -0.63481,0.323034 -1.69006,0.347506 h -0.0994 v 0.876109 h 6.19443 v -0.876109 h -0.0994 c -1.61371,-0.05384 -1.83543,-0.1762 -1.83543,-1.057203 V 16.048944 12.79902 c 0,-2.447231 1.10126,-4.0183536 2.81432,-4.0183536 1.39933,0 2.08015,1.0572039 2.08015,3.2597126 v 4.008565 1.155093 c -0.023,0.342612 -0.046,0.509024 -0.16837,0.631386 -0.14537,0.225145 -0.63482,0.323034 -1.69006,0.347506 h -0.0994 v 0.876109 h 6.19443 v -0.876109 h -0.0993 c -1.61371,-0.05384 -1.83543,-0.1762 -1.83543,-1.081676 v -1.052309 -4.498012 c 0,-1.522178 -0.14536,-2.0360962 -0.78018,-2.8681549 -0.71116,-0.9005812 -1.71306,-1.3900274 -2.89067,-1.3900274 -1.5907,0 -2.7683,0.7537472 -3.81621,2.4472314 -0.42043,-1.4683389 -1.74341,-2.4472314 -3.38011,-2.4472314 -1.49135,0 -2.5696,0.7096971 -3.52549,2.2465584 V 7.6598344"
     id="path109031"
     style="stroke-width:0.489446" />
  <path
     class="StaffText"
     d="m 286.02751,1.385133 h -14.56102 v 1.1550932 h 0.43609 c 1.39933,0.024472 1.86577,0.1027837 2.05715,0.3475069 0.14536,0.2104619 0.14536,0.264301 0.14536,1.512389 V 16.048944 c 0,1.252982 0,1.297032 -0.14536,1.522178 -0.19138,0.244723 -0.65782,0.342612 -2.05715,0.342612 h -0.43609 v 1.145304 h 8.3896 v -1.145304 h -0.80318 c -1.39933,0 -1.85843,-0.09789 -2.05715,-0.342612 -0.14536,-0.225146 -0.14536,-0.298563 -0.14536,-1.522178 v -5.555216 h 0.48944 c 2.51625,-0.09789 3.42613,0.812481 3.52548,3.528908 h 1.14727 V 5.9908225 h -1.14727 c -0.1527,2.4031813 -1.10125,3.3282348 -3.42612,3.3576015 h -0.5888 V 3.7638419 c -0.023,-1.0327316 0.22172,-1.1991434 1.53735,-1.2236157 h 1.1316 c 4.01541,-0.019578 5.01682,0.8810033 5.774,5.0951359 h 1.07825 L 286.02751,1.385133"
     id="path109033"
     style="stroke-width:0.489446" />
  <path
     class="StaffText"
     d="m 351.07199,1.2187213 h -0.92505 l -0.95638,1.4683388 c -1.5907,-1.248088 -2.66895,-1.6690118 -4.45837,-1.6690118 -1.93478,0 -3.44913,0.5432854 -4.99382,1.7913734 -2.41688,1.9577851 -3.54848,4.4294889 -3.54848,7.7332513 0,2.501071 0.71116,4.581217 2.1565,6.171918 1.51434,1.713062 3.7702,2.711532 6.11807,2.711532 2.05715,0 3.50248,-0.631386 5.09318,-2.222086 l 0.90254,2.202508 h 1.03273 v -5.383909 c 0,-1.248088 0,-1.301927 0.14488,-1.522178 0.22221,-0.269195 0.65782,-0.337718 2.05763,-0.337718 h 0.36709 v -1.155093 h -7.78563 v 1.155093 h 0.46645 c 2.05763,0 2.22551,0.122362 2.22551,1.492811 0,1.047415 -0.16788,2.001836 -0.48945,2.589171 -0.61181,1.204038 -2.1795,2.036097 -3.7702,2.036097 -1.5907,0 -3.1584,-0.812481 -3.99193,-2.036097 -0.90254,-1.365555 -1.29262,-3.078617 -1.29262,-5.702049 0,-5.4524316 1.81242,-8.3695315 5.20819,-8.3695315 2.79132,0 4.7261,2.0067298 5.72799,5.9223001 h 1.05525 l -0.34408,-6.8767203"
     id="path109035"
     style="stroke-width:0.489446" />
  <path
     class="StaffText"
     d="m 410.78835,1.0523095 h -1.03273 l -5.62863,14.2624645 c -0.66075,1.908841 -1.29214,2.501071 -2.69196,2.59896 h -0.10278 v 1.145304 h 6.48516 v -1.145304 h -0.48944 c -1.31172,0 -1.97737,-0.464974 -1.97737,-1.399816 0,-0.313246 0.0734,-0.611808 0.22025,-1.022943 l 0.81249,-2.158458 h 6.48516 l 1.3215,3.27929 c 0.14684,0.391557 0.19089,0.538391 0.19089,0.660752 0,0.396452 -0.61181,0.641175 -1.51239,0.641175 h -1.03273 v 1.145304 h 7.58641 v -1.145304 h -0.33771 c -1.27746,-0.02937 -1.49771,-0.176201 -2.05568,-1.566228 L 410.78835,1.0523095 m -1.20404,4.0036706 2.76048,6.9550319 h -5.47201 l 2.71153,-6.9550319 m 14.53166,2.6038543 -4.35117,0.264301 v 1.0572039 h 1.00336 c 0.92505,0.024472 1.04742,0.1664118 1.04742,1.2236157 v 5.843989 0.95442 0.200673 c -0.0245,0.367085 -0.0489,0.509024 -0.14684,0.631386 -0.16641,0.225145 -0.63628,0.323034 -1.68859,0.347506 h -0.093 v 0.876109 h 6.16213 v -0.876109 h -0.0979 c -1.61518,-0.05384 -1.83543,-0.1762 -1.83543,-1.081676 v -1.052309 -3.475069 c 0,-2.178036 1.19915,-3.7932086 2.78985,-3.7932086 1.39492,0 2.10462,1.0033648 2.10462,2.9856226 v 4.282655 1.174671 c -0.0245,0.323034 -0.0441,0.489446 -0.16641,0.611808 -0.14684,0.225145 -0.63628,0.323034 -1.69349,0.347506 h -0.0979 v 0.876109 h 6.19639 v -0.876109 h -0.10278 c -1.61028,-0.05384 -1.83543,-0.1762 -1.83543,-1.057203 V 16.048944 12.79902 c 0,-2.447231 1.10126,-4.0183536 2.81432,-4.0183536 1.39982,0 2.08015,1.0572039 2.08015,3.2597126 v 4.008565 1.155093 c -0.0196,0.342612 -0.0441,0.509024 -0.16641,0.631386 -0.14684,0.225145 -0.63628,0.323034 -1.68859,0.347506 h -0.10279 v 0.876109 h 6.19639 v -0.876109 h -0.0979 c -1.61517,-0.05384 -1.83542,-0.1762 -1.83542,-1.081676 v -1.052309 -4.498012 c 0,-1.522178 -0.14683,-2.0360962 -0.78311,-2.8681549 -0.7097,-0.9005812 -1.71307,-1.3900274 -2.88774,-1.3900274 -1.5907,0 -2.77026,0.7537472 -3.81768,2.4472314 -0.42092,-1.4683389 -1.74243,-2.4472314 -3.38207,-2.4472314 -1.48792,0 -2.5696,0.7096971 -3.52402,2.2465584 V 7.6598344"
     id="path109037"
     style="stroke-width:0.489446" />
  <path
     class="StaffText"
     d="M 466.18878,0.36708471 V 1.5221779 h 0.4405 c 1.39492,0.024472 1.85989,0.097889 2.05078,0.3426124 0.15173,0.2153564 0.15173,0.2691955 0.15173,1.5172835 V 15.026001 c 0,1.257877 0,1.301927 -0.15173,1.522178 -0.19089,0.244723 -0.65586,0.347507 -2.05078,0.347507 h -0.4405 v 1.145304 h 8.88345 c 4.22881,0 6.77883,-1.791373 6.77883,-4.796574 0,-2.447231 -1.53686,-3.8470473 -4.89446,-4.4245939 1.17467,-0.2447232 1.71306,-0.4698685 2.34444,-0.9348424 1.01316,-0.7586418 1.62496,-1.9577852 1.62496,-3.1814009 0,-1.5907004 -0.97889,-3.1373507 -2.40318,-3.74915854 -0.881,-0.38666257 -2.10462,-0.58733555 -3.54848,-0.58733555 h -8.78556 m 5.38391,7.96329109 V 2.7457937 c 0,-0.9544203 0.31814,-1.1991434 1.61027,-1.2236158 h 0.9789 c 1.12572,0 2.06057,0.1908841 2.56959,0.5139186 0.881,0.5334965 1.34598,1.5662282 1.34598,2.9366778 0,2.4227591 -1.16978,3.3576015 -4.32671,3.3576015 h -2.17803 m 0,1.1453043 h 2.15356 c 3.73937,0 5.11961,1.0033649 5.11961,3.6953199 0,1.566228 -0.54329,2.691954 -1.5026,3.156928 -0.75375,0.391557 -1.78159,0.567758 -3.32334,0.567758 h -1.02784 c -1.22362,0 -1.46834,-0.244723 -1.41939,-1.54665 V 9.4756801 m 20.84551,8.7317219 4.25819,-0.166412 v -1.057204 h -0.44051 c -1.39492,-0.06852 -1.51728,-0.210462 -1.51728,-1.781584 V 0 l -4.79168,0.27408992 V 1.321505 h 1.43408 c 0.93484,0.024472 1.0572,0.1762006 1.0572,1.2236157 v 5.5405319 c -0.90058,-1.2578769 -1.95778,-1.8158457 -3.38207,-1.8158457 -2.76048,0 -4.8602,2.6723767 -4.8602,6.1866011 0,3.479963 2.02631,5.951667 4.8602,5.951667 1.54665,0 2.60385,-0.655858 3.38207,-2.124197 v 1.923524 M 489.52558,7.5962063 c 1.01315,0 1.95778,0.7341695 2.40318,1.8550015 0.32303,0.7341692 0.46497,1.7375342 0.46497,2.9366772 0,2.863261 -1.12083,4.698685 -2.88773,4.698685 -1.73754,0 -2.76048,-1.615173 -2.76048,-4.3316 0,-1.468339 0.14194,-2.569593 0.45519,-3.3771792 0.42092,-1.1012541 1.3264,-1.7815845 2.32487,-1.7815845 m 12.67176,-0.9593147 -4.5959,0.2691955 v 1.057204 h 1.24809 c 0.92505,0.019578 1.04741,0.1664117 1.04741,1.2236157 v 5.8390942 1.155093 c -0.0245,0.367085 -0.044,0.513919 -0.14683,0.63628 -0.16641,0.220251 -0.63139,0.323035 -1.68859,0.342613 h -0.16641 v 0.881003 h 6.33833 v -0.881003 h -0.1762 c -1.63475,-0.05384 -1.8599,-0.176201 -1.8599,-1.05231 V 15.026001 6.6368916 m -1.1453,-6.09360622 c -0.78801,0 -1.42429,0.63628012 -1.42429,1.41449972 0,0.7880086 0.63628,1.4242887 1.39981,1.4242887 0.8027,0 1.43898,-0.6362801 1.43898,-1.4242887 0,-0.7782196 -0.63628,-1.41449972 -1.4145,-1.41449972 m 8.72682,6.09360622 -4.35117,0.2691955 v 1.057204 h 1.00336 c 0.92505,0.019578 1.04742,0.1664117 1.04742,1.2236157 v 5.8390942 0.959315 0.195778 c -0.0245,0.367085 -0.0489,0.513919 -0.14684,0.63628 -0.16641,0.220251 -0.63628,0.323035 -1.68859,0.342613 h -0.093 v 0.881003 h 6.16213 v -0.881003 h -0.0979 c -1.61518,-0.05384 -1.83543,-0.176201 -1.83543,-1.076782 v -1.057204 -3.470174 c 0,-2.1780362 1.19915,-3.7932089 2.78985,-3.7932089 1.39492,0 2.10462,1.0033649 2.10462,2.9807279 v 4.282655 1.179566 c -0.0245,0.323034 -0.044,0.489446 -0.16642,0.611807 -0.14683,0.220251 -0.63628,0.323035 -1.69348,0.342613 h -0.0979 v 0.881003 h 6.19639 v -0.881003 h -0.10278 c -1.61028,-0.05384 -1.83543,-0.176201 -1.83543,-1.05231 v -1.081676 -3.249923 c 0,-2.4472318 1.10126,-4.0134599 2.81432,-4.0134599 1.39982,0 2.08015,1.057204 2.08015,3.2597119 v 4.003671 1.155093 c -0.0196,0.347507 -0.044,0.513919 -0.16642,0.63628 -0.14683,0.220251 -0.63628,0.323035 -1.68859,0.342613 h -0.10278 v 0.881003 h 6.19639 v -0.881003 h -0.0979 c -1.61517,-0.05384 -1.83542,-0.176201 -1.83542,-1.076782 v -1.057204 -4.493117 c 0,-1.5221779 -0.14684,-2.0360965 -0.78312,-2.8681552 -0.70969,-0.9054756 -1.71306,-1.3949219 -2.88773,-1.3949219 -1.5907,0 -2.77026,0.7586418 -3.81768,2.4472314 -0.42092,-1.4683388 -1.74243,-2.4472314 -3.38207,-2.4472314 -1.48792,0 -2.5696,0.7145916 -3.52402,2.2514529 V 6.6368916"
     id="path109039"
     style="stroke-width:0.489446" />
  <metadata
     id="metadata109164">
    <rdf:RDF>
      <cc:Work
         rdf:about="">
        <dc:title>Без_названия-2</dc:title>
        <cc:license
           rdf:resource="http://creativecommons.org/licenses/by-sa/4.0/" />
      </cc:Work>
      <cc:License
         rdf:about="http://creativecommons.org/licenses/by-sa/4.0/">
        <cc:permits
           rdf:resource="http://creativecommons.org/ns#Reproduction" />
        <cc:permits
           rdf:resource="http://creativecommons.org/ns#Distribution" />
        <cc:requires
           rdf:resource="http://creativecommons.org/ns#Notice" />
        <cc:requires
           rdf:resource="http://creativecommons.org/ns#Attribution" />
        <cc:permits
           rdf:resource="http://creativecommons.org/ns#DerivativeWorks" />
        <cc:requires
           rdf:resource="http://creativecommons.org/ns#ShareAlike" />
      </cc:License>
    </rdf:RDF>
  </metadata>
</svg>
