<?xml version="1.0" encoding="UTF-8" standalone="no"?>
<svg
   width="195.558mm"
   height="25.086052mm"
   viewBox="0 0 195.558 25.086052"
   version="1.2"
   id="svg1420"
   sodipodi:docname="chords-c.svg"
   inkscape:version="1.2.2 (b0a8486541, 2022-12-01)"
   xmlns:inkscape="http://www.inkscape.org/namespaces/inkscape"
   xmlns:sodipodi="http://sodipodi.sourceforge.net/DTD/sodipodi-0.dtd"
   xmlns="http://www.w3.org/2000/svg"
   xmlns:svg="http://www.w3.org/2000/svg"
   xmlns:rdf="http://www.w3.org/1999/02/22-rdf-syntax-ns#"
   xmlns:cc="http://creativecommons.org/ns#"
   xmlns:dc="http://purl.org/dc/elements/1.1/">
  <defs
     id="defs1424" />
  <sodipodi:namedview
     id="namedview1422"
     pagecolor="#ffffff"
     bordercolor="#000000"
     borderopacity="0.25"
     inkscape:showpageshadow="2"
     inkscape:pageopacity="0.0"
     inkscape:pagecheckerboard="0"
     inkscape:deskcolor="#d1d1d1"
     showgrid="false"
     inkscape:zoom="1.4207224"
     inkscape:cx="484.96455"
     inkscape:cy="17.244748"
     inkscape:window-width="2240"
     inkscape:window-height="1375"
     inkscape:window-x="0"
     inkscape:window-y="0"
     inkscape:window-maximized="1"
     inkscape:current-layer="svg1420"
     inkscape:document-units="mm" />
  <title
     id="title1010">Без названия</title>
  <desc
     id="desc1012">Generated by MuseScore 3.6.2</desc>
  <polyline
     class="StaffLines"
     fill="none"
     stroke="#000000"
     stroke-width="2.73"
     stroke-linejoin="bevel"
     points="336.598,634.198 2763.78,634.198"
     id="polyline1014"
     transform="matrix(0.08053453,0,0,0.12787919,-27.107762,-73.990587)" />
  <polyline
     class="StaffLines"
     fill="none"
     stroke="#000000"
     stroke-width="2.73"
     stroke-linejoin="bevel"
     points="336.598,658.998 2763.78,658.998"
     id="polyline1016"
     transform="matrix(0.08053453,0,0,0.12787919,-27.107762,-73.990587)" />
  <polyline
     class="StaffLines"
     fill="none"
     stroke="#000000"
     stroke-width="2.73"
     stroke-linejoin="bevel"
     points="336.598,683.798 2763.78,683.798"
     id="polyline1018"
     transform="matrix(0.08053453,0,0,0.12787919,-27.107762,-73.990587)" />
  <polyline
     class="StaffLines"
     fill="none"
     stroke="#000000"
     stroke-width="2.73"
     stroke-linejoin="bevel"
     points="336.598,708.598 2763.78,708.598"
     id="polyline1020"
     transform="matrix(0.08053453,0,0,0.12787919,-27.107762,-73.990587)" />
  <polyline
     class="StaffLines"
     fill="none"
     stroke="#000000"
     stroke-width="2.73"
     stroke-linejoin="bevel"
     points="336.598,733.398 2763.78,733.398"
     id="polyline1022"
     transform="matrix(0.08053453,0,0,0.12787919,-27.107762,-73.990587)" />
  <path
     class="Accidental"
     d="m 29.552231,18.792801 c -0.07533,-0.493552 -0.380569,-0.963314 -1.026748,-0.963314 -0.634281,0 -1.002956,0.392455 -1.066386,0.469762 l 0.05154,-4.073276 c 0,-0.10108 -0.07532,-0.176405 -0.178393,-0.176405 h -0.150638 c -0.103071,0 -0.178393,0.07533 -0.178393,0.176405 l 0.06343,7.625249 c 0,0.10109 0.07532,0.176417 0.178389,0.176417 0.02378,0 0.07532,-0.01189 0.10109,-0.02378 0.04955,-0.02578 0.874117,-0.432111 1.559935,-1.20514 0.481657,-0.547068 0.671943,-1.167474 0.671943,-1.688773 0,-0.112981 -0.01189,-0.21407 -0.02576,-0.31714 m -0.874127,0.495532 c 0,0.190284 -0.05153,0.773029 -0.368671,1.256669 -0.216055,0.329033 -0.646176,0.671938 -0.887996,0.862223 l 0.03766,-2.473693 c 0.02578,-0.114964 0.216053,-0.481664 0.723478,-0.481664 0.457877,0 0.495529,0.430128 0.495529,0.697715 v 0.13875"
     id="path1178"
     style="stroke-width:0.126856" />
  <path
     class="Accidental"
     d="m 43.978922,18.792801 c -0.07533,-0.493552 -0.380568,-0.963314 -1.026747,-0.963314 -0.634282,0 -1.002957,0.392455 -1.066387,0.469762 l 0.05154,-4.073276 c 0,-0.10108 -0.07532,-0.176405 -0.178393,-0.176405 h -0.150638 c -0.103073,0 -0.178393,0.07533 -0.178393,0.176405 l 0.06343,7.625249 c 0,0.10109 0.07532,0.176417 0.178391,0.176417 0.02378,0 0.07532,-0.01189 0.101089,-0.02378 0.04955,-0.02578 0.874117,-0.432111 1.559934,-1.20514 0.481658,-0.547068 0.671944,-1.167474 0.671944,-1.688773 0,-0.112981 -0.01189,-0.21407 -0.02576,-0.31714 m -0.874127,0.495532 c 0,0.190284 -0.05153,0.773029 -0.368671,1.256669 -0.216055,0.329033 -0.646176,0.671938 -0.887996,0.862223 l 0.03766,-2.473693 c 0.02578,-0.114964 0.216052,-0.481664 0.723477,-0.481664 0.457877,0 0.495529,0.430128 0.495529,0.697715 v 0.13875"
     id="path1180"
     style="stroke-width:0.126856" />
  <path
     class="Accidental"
     d="m 47.251479,15.621397 c -0.07533,-0.493552 -0.380569,-0.963314 -1.026748,-0.963314 -0.634281,0 -1.002957,0.392455 -1.066386,0.469762 l 0.05154,-4.073275 c 0,-0.10108 -0.07532,-0.176406 -0.178393,-0.176406 H 44.88085 c -0.10307,0 -0.17839,0.07533 -0.17839,0.176406 l 0.06343,7.625247 c 0,0.101091 0.07532,0.176419 0.178392,0.176419 0.02378,0 0.07532,-0.01191 0.10109,-0.02379 0.04956,-0.02578 0.874117,-0.432111 1.559935,-1.20514 0.481657,-0.547067 0.671943,-1.167473 0.671943,-1.688773 0,-0.112981 -0.01189,-0.21407 -0.02576,-0.31714 m -0.874127,0.495532 c 0,0.190284 -0.05153,0.77303 -0.368671,1.256669 -0.216055,0.329033 -0.646176,0.671938 -0.887995,0.862223 l 0.03766,-2.473693 c 0.02578,-0.114963 0.216052,-0.481663 0.723477,-0.481663 0.457877,0 0.495529,0.430127 0.495529,0.697715 v 0.138749"
     id="path1182"
     style="stroke-width:0.126856" />
  <path
     class="Accidental"
     d="m 64.836589,15.280465 c 0.07731,-0.01386 0.140736,-0.103071 0.140736,-0.178385 v -0.749251 c 0,-0.101079 -0.07731,-0.176406 -0.1784,-0.176406 h -0.02579 L 64.3549,14.265613 V 12.37467 h -0.3548 v 1.966271 l -1.129814,0.227947 v -1.787884 h -0.354807 v 1.865178 l -0.495536,0.101092 c -0.07532,0.01189 -0.138743,0.101092 -0.138743,0.176406 v 0.02578 0.735367 -0.02379 c 0,0.101088 0.07531,0.176409 0.178386,0.176409 h 0.03764 l 0.418228,-0.0892 v 2.093127 l -0.495535,0.103077 c -0.07532,0.01188 -0.138743,0.10108 -0.138743,0.176406 v 0.735373 c 0,0.10307 0.07531,0.178385 0.178385,0.178385 h 0.03764 l 0.418229,-0.08919 v 1.890944 h 0.3548 v -1.966267 l 1.129807,-0.227935 v 1.787872 h 0.354807 v -1.865179 l 0.481657,-0.08919 c 0.07731,-0.01191 0.140736,-0.101092 0.140736,-0.176418 v -0.749242 c 0,-0.101088 -0.07731,-0.176409 -0.1784,-0.176409 h -0.02579 l -0.418236,0.08721 v -2.093126 l 0.481657,-0.08722 m -1.966271,2.497487 v -2.10502 l 1.129929,-0.227945 v 2.093127 l -1.129815,0.239838"
     id="path1184"
     style="stroke-width:0.126856" />
  <path
     class="Accidental"
     d="m 81.815118,12.449993 c -0.0753,-0.493552 -0.38057,-0.963314 -1.02674,-0.963314 -0.63428,0 -1.00295,0.392455 -1.06638,0.469762 l 0.0515,-4.0732763 c 0,-0.101079 -0.0753,-0.176405 -0.1784,-0.176405 h -0.15064 c -0.10307,0 -0.17839,0.07533 -0.17839,0.176405 l 0.0634,7.6252483 c 0,0.101092 0.0753,0.176419 0.17839,0.176419 0.0238,0 0.0753,-0.01189 0.10109,-0.02379 0.0496,-0.02578 0.87412,-0.432111 1.55993,-1.20514 0.48166,-0.547068 0.67194,-1.167473 0.67194,-1.688773 0,-0.112981 -0.0118,-0.214069 -0.0258,-0.31714 m -0.87412,0.495532 c 0,0.190284 -0.0515,0.773029 -0.36868,1.256668 -0.21605,0.329034 -0.64617,0.671939 -0.88799,0.862223 l 0.0376,-2.473692 c 0.0258,-0.114964 0.21605,-0.481664 0.72347,-0.481664 0.45787,0 0.49554,0.430129 0.49554,0.697716 v 0.138749"
     id="path1186"
     style="stroke-width:0.126856" />
  <path
     class="Accidental"
     d="m 110.80278,18.792801 c -0.0753,-0.493552 -0.38057,-0.963314 -1.02674,-0.963314 -0.63428,0 -1.00296,0.392455 -1.06639,0.469762 l 0.0515,-4.073276 c 0,-0.10108 -0.0753,-0.176405 -0.17839,-0.176405 h -0.15065 c -0.10306,0 -0.17838,0.07533 -0.17838,0.176405 l 0.0634,7.625249 c 0,0.10109 0.0753,0.176417 0.17839,0.176417 0.0238,0 0.0753,-0.01189 0.10109,-0.02378 0.0496,-0.02578 0.87411,-0.432111 1.55992,-1.20514 0.48167,-0.547068 0.67195,-1.167474 0.67195,-1.688773 0,-0.112981 -0.0119,-0.21407 -0.0258,-0.31714 m -0.87412,0.495532 c 0,0.190284 -0.0516,0.773029 -0.36867,1.256669 -0.21605,0.329033 -0.64618,0.671938 -0.888,0.862223 l 0.0377,-2.473693 c 0.0257,-0.114964 0.21605,-0.481664 0.72347,-0.481664 0.45788,0 0.49553,0.430128 0.49553,0.697715 v 0.13875"
     id="path1188"
     style="stroke-width:0.126856" />
  <path
     class="Accidental"
     d="m 112.35779,12.449993 c -0.0753,-0.493552 -0.38057,-0.963314 -1.02674,-0.963314 -0.63429,0 -1.00296,0.392455 -1.06639,0.469762 l 0.0515,-4.0732763 c 0,-0.101079 -0.0753,-0.176405 -0.17839,-0.176405 h -0.15064 c -0.10307,0 -0.17839,0.07533 -0.17839,0.176405 l 0.0634,7.6252483 c 0,0.101092 0.0753,0.176419 0.1784,0.176419 0.0238,0 0.0753,-0.01189 0.10108,-0.02379 0.0496,-0.02578 0.87412,-0.432111 1.55994,-1.20514 0.48165,-0.547068 0.67194,-1.167473 0.67194,-1.688773 0,-0.112981 -0.0119,-0.214069 -0.0258,-0.31714 m -0.87411,0.495532 c 0,0.190284 -0.0515,0.773029 -0.36868,1.256668 -0.21605,0.329034 -0.64617,0.671939 -0.88799,0.862223 l 0.0376,-2.473692 c 0.0258,-0.114964 0.21605,-0.481664 0.72347,-0.481664 0.45787,0 0.49554,0.430129 0.49554,0.697716 v 0.138749"
     id="path1190"
     style="stroke-width:0.126856" />
  <path
     class="Accidental"
     d="m 127.62912,18.792801 c -0.0753,-0.493552 -0.38057,-0.963314 -1.02674,-0.963314 -0.63428,0 -1.00295,0.392455 -1.06638,0.469762 l 0.0515,-4.073276 c 0,-0.10108 -0.0753,-0.176405 -0.1784,-0.176405 h -0.15064 c -0.10307,0 -0.17839,0.07533 -0.17839,0.176405 l 0.0634,7.625249 c 0,0.10109 0.0753,0.176417 0.17839,0.176417 0.0238,0 0.0753,-0.01189 0.10109,-0.02378 0.0496,-0.02578 0.87412,-0.432111 1.55993,-1.20514 0.48166,-0.547068 0.67194,-1.167474 0.67194,-1.688773 0,-0.112981 -0.0119,-0.21407 -0.0258,-0.31714 m -0.87412,0.495532 c 0,0.190284 -0.0515,0.773029 -0.36867,1.256669 -0.21606,0.329033 -0.64618,0.671938 -0.888,0.862223 l 0.0376,-2.473693 c 0.0258,-0.114964 0.21605,-0.481664 0.72347,-0.481664 0.45788,0 0.49553,0.430128 0.49553,0.697715 v 0.13875"
     id="path1192"
     style="stroke-width:0.126856" />
  <path
     class="Accidental"
     d="m 139.72266,18.792801 c -0.0753,-0.493552 -0.38057,-0.963314 -1.02674,-0.963314 -0.63429,0 -1.00296,0.392455 -1.06639,0.469762 l 0.0515,-4.073276 c 0,-0.10108 -0.0753,-0.176405 -0.17839,-0.176405 H 137.352 c -0.10308,0 -0.1784,0.07533 -0.1784,0.176405 l 0.0634,7.625249 c 0,0.10109 0.0753,0.176417 0.17839,0.176417 0.0238,0 0.0753,-0.01189 0.10109,-0.02378 0.0496,-0.02578 0.87412,-0.432111 1.55994,-1.20514 0.48165,-0.547068 0.67194,-1.167474 0.67194,-1.688773 0,-0.112981 -0.0119,-0.21407 -0.0258,-0.31714 m -0.87411,0.495532 c 0,0.190284 -0.0515,0.773029 -0.36868,1.256669 -0.21605,0.329033 -0.64617,0.671938 -0.88799,0.862223 l 0.0376,-2.473693 c 0.0258,-0.114964 0.21606,-0.481664 0.72348,-0.481664 0.45787,0 0.49553,0.430128 0.49553,0.697715 v 0.13875"
     id="path1194"
     style="stroke-width:0.126856" />
  <path
     class="Accidental"
     d="m 136.45022,15.621397 c -0.0753,-0.493552 -0.38056,-0.963314 -1.02673,-0.963314 -0.63429,0 -1.00296,0.392455 -1.06639,0.469762 l 0.0515,-4.073275 c 0,-0.10108 -0.0753,-0.176406 -0.17839,-0.176406 h -0.15064 c -0.10307,0 -0.1784,0.07533 -0.1784,0.176406 l 0.0634,7.625247 c 0,0.101091 0.0753,0.176419 0.1784,0.176419 0.0238,0 0.0753,-0.01191 0.10108,-0.02379 0.0496,-0.02578 0.87412,-0.432111 1.55994,-1.20514 0.48165,-0.547067 0.67194,-1.167473 0.67194,-1.688773 0,-0.112981 -0.0119,-0.21407 -0.0258,-0.31714 m -0.87412,0.495532 c 0,0.190284 -0.0516,0.77303 -0.36867,1.256669 -0.21606,0.329033 -0.64618,0.671938 -0.88799,0.862223 l 0.0376,-2.473693 c 0.0258,-0.114963 0.21605,-0.481663 0.72348,-0.481663 0.45787,0 0.49553,0.430127 0.49553,0.697715 v 0.138749"
     id="path1196"
     style="stroke-width:0.126856" />
  <path
     class="Accidental"
     d="m 143.41044,12.438101 c -0.0773,-0.495539 -0.38057,-0.951422 -1.02873,-0.951422 -0.63428,0 -1.00097,0.380569 -1.0644,0.455883 l 0.0496,-4.0593973 c 0,-0.101079 -0.0753,-0.176405 -0.17641,-0.176405 h -0.15262 c -0.1011,0 -0.1784,0.07533 -0.1784,0.176405 l 0.0377,3.8195643 c -0.16452,-0.126857 -0.36669,-0.21605 -0.64618,-0.21605 -0.63427,0 -1.00295,0.392455 -1.06638,0.469762 l 0.0515,-4.0732763 c 0,-0.101079 -0.0753,-0.176405 -0.17839,-0.176405 h -0.15064 c -0.10307,0 -0.17839,0.07533 -0.17839,0.176405 l 0.0634,7.6252483 c 0,0.101092 0.0753,0.176419 0.17839,0.176419 0.0238,0 0.0753,-0.02379 0.10108,-0.03767 0.0496,-0.02576 0.87413,-0.418231 1.55994,-1.191261 0.0892,-0.103071 0.20218,-0.27948 0.27948,-0.394443 l 0.0119,1.44695 c 0,0.101092 0.0773,0.176419 0.17838,0.176419 0.0258,0 0.0753,-0.02379 0.10109,-0.03767 0.0515,-0.02576 0.8761,-0.430117 1.55994,-1.205136 0.48363,-0.545085 0.67392,-1.167473 0.67392,-1.68679 0,-0.114964 -0.0139,-0.216052 -0.0258,-0.31714 m -3.00688,0.507424 c 0,0.190284 -0.0516,0.77303 -0.36868,1.256669 -0.21605,0.329033 -0.64617,0.671939 -0.88799,0.862223 l 0.0376,-2.473693 c 0.0257,-0.114963 0.21605,-0.481663 0.72347,-0.481663 0.45787,0 0.49554,0.430128 0.49554,0.697715 v 0.138749 m 2.13078,0 c 0,0.190284 -0.0496,0.77303 -0.36669,1.256669 -0.21605,0.329033 -0.64816,0.671939 -0.88998,0.862223 l 0.0396,-2.473693 c 0.0238,-0.114963 0.21407,-0.481663 0.72347,-0.481663 0.45589,0 0.49355,0.430128 0.49355,0.697715 v 0.138749"
     id="path1198"
     style="stroke-width:0.126856" />
  <path
     class="Accidental"
     d="m 157.12574,18.792801 c -0.0753,-0.493552 -0.38058,-0.963314 -1.02675,-0.963314 -0.63428,0 -1.00295,0.392455 -1.06638,0.469762 l 0.0515,-4.073276 c 0,-0.10108 -0.0753,-0.176405 -0.1784,-0.176405 h -0.15064 c -0.10306,0 -0.17838,0.07533 -0.17838,0.176405 l 0.0634,7.625249 c 0,0.10109 0.0753,0.176417 0.1784,0.176417 0.0238,0 0.0753,-0.01189 0.10108,-0.02378 0.0496,-0.02578 0.87412,-0.432111 1.55994,-1.20514 0.48166,-0.547068 0.67194,-1.167474 0.67194,-1.688773 0,-0.112981 -0.0119,-0.21407 -0.0258,-0.31714 m -0.87412,0.495532 c 0,0.190284 -0.0515,0.773029 -0.36868,1.256669 -0.21605,0.329033 -0.64617,0.671938 -0.88799,0.862223 l 0.0376,-2.473693 c 0.0258,-0.114964 0.21605,-0.481664 0.72348,-0.481664 0.45787,0 0.49553,0.430128 0.49553,0.697715 v 0.13875"
     id="path1200"
     style="stroke-width:0.126856" />
  <path
     class="Accidental"
     d="m 153.85203,15.621397 c -0.0753,-0.493552 -0.38057,-0.963314 -1.02674,-0.963314 -0.63428,0 -1.00296,0.392455 -1.06639,0.469762 l 0.0515,-4.073275 c 0,-0.10108 -0.0753,-0.176406 -0.17839,-0.176406 h -0.15064 c -0.10307,0 -0.1784,0.07533 -0.1784,0.176406 l 0.0634,7.625247 c 0,0.101091 0.0753,0.176419 0.17839,0.176419 0.0238,0 0.0753,-0.01191 0.10109,-0.02379 0.0496,-0.02578 0.87411,-0.432111 1.55993,-1.20514 0.48166,-0.547067 0.67194,-1.167473 0.67194,-1.688773 0,-0.112981 -0.0119,-0.21407 -0.0257,-0.31714 m -0.87413,0.495532 c 0,0.190284 -0.0516,0.77303 -0.36867,1.256669 -0.21605,0.329033 -0.64617,0.671938 -0.88799,0.862223 l 0.0376,-2.473693 c 0.0258,-0.114963 0.21605,-0.481663 0.72347,-0.481663 0.45788,0 0.49554,0.430127 0.49554,0.697715 v 0.138749"
     id="path1202"
     style="stroke-width:0.126856" />
  <path
     class="Accidental"
     d="m 158.67946,12.449993 c -0.0753,-0.493552 -0.38056,-0.963314 -1.02674,-0.963314 -0.63428,0 -1.00295,0.392455 -1.06638,0.469762 l 0.0515,-4.0732763 c 0,-0.101079 -0.0753,-0.176405 -0.17839,-0.176405 h -0.15064 c -0.10307,0 -0.1784,0.07533 -0.1784,0.176405 l 0.0634,7.6252483 c 0,0.101092 0.0753,0.176419 0.1784,0.176419 0.0238,0 0.0753,-0.01189 0.10108,-0.02379 0.0496,-0.02578 0.87412,-0.432111 1.55994,-1.20514 0.48165,-0.547068 0.67194,-1.167473 0.67194,-1.688773 0,-0.112981 -0.0119,-0.214069 -0.0258,-0.31714 m -0.87411,0.495532 c 0,0.190284 -0.0516,0.773029 -0.36868,1.256668 -0.21605,0.329034 -0.64617,0.671939 -0.88799,0.862223 l 0.0376,-2.473692 c 0.0258,-0.114964 0.21606,-0.481664 0.72348,-0.481664 0.45787,0 0.49554,0.430129 0.49554,0.697716 v 0.138749"
     id="path1204"
     style="stroke-width:0.126856" />
  <path
     class="Accidental"
     d="m 174.1359,15.280465 c 0.0773,-0.01386 0.14074,-0.103071 0.14074,-0.178385 v -0.749251 c 0,-0.101079 -0.0773,-0.176406 -0.17839,-0.176406 h -0.0258 l -0.41823,0.08919 V 12.37467 h -0.3548 v 1.966271 l -1.12981,0.227947 v -1.787884 h -0.3548 v 1.865178 l -0.49553,0.101092 c -0.0753,0.01189 -0.13875,0.101092 -0.13875,0.176406 v 0.02578 0.735367 -0.02379 c 0,0.101088 0.0753,0.176409 0.17839,0.176409 h 0.0376 l 0.41823,-0.0892 v 2.093127 l -0.49553,0.103077 c -0.0753,0.01188 -0.13875,0.10108 -0.13875,0.176406 v 0.735373 c 0,0.10307 0.0753,0.178385 0.17839,0.178385 h 0.0376 l 0.41823,-0.08919 v 1.890944 h 0.3548 v -1.966267 l 1.12981,-0.227935 v 1.787872 h 0.3548 v -1.865179 l 0.48166,-0.08919 c 0.0773,-0.01191 0.14073,-0.101092 0.14073,-0.176418 v -0.749242 c 0,-0.101088 -0.0773,-0.176409 -0.1784,-0.176409 h -0.0257 l -0.41823,0.08721 v -2.093126 l 0.48166,-0.08722 m -1.96627,2.497487 v -2.10502 l 1.12985,-0.227945 v 2.093127 l -1.12982,0.239838"
     id="path1206"
     style="stroke-width:0.126856" />
  <path
     class="Accidental"
     d="m 177.9288,12.109061 c 0.0773,-0.01386 0.14073,-0.103071 0.14073,-0.178385 v -0.749251 c 0,-0.101079 -0.0773,-0.176405 -0.17839,-0.176405 h -0.0258 l -0.41822,0.08919 V 9.2032657 h -0.35481 v 1.9662713 l -1.12981,0.227948 V 9.6095997 h -0.35481 v 1.8651783 l -0.49552,0.101092 c -0.0753,0.01189 -0.13875,0.101092 -0.13875,0.176406 v 0.02578 0.735367 -0.02379 c 0,0.101088 0.0753,0.17641 0.17839,0.17641 h 0.0376 l 0.41823,-0.0892 v 2.093127 l -0.49553,0.103077 c -0.0753,0.01189 -0.1387,0.101078 -0.1387,0.176404 v 0.735373 c 0,0.10307 0.0753,0.178385 0.17839,0.178385 h 0.0377 l 0.41823,-0.08919 v 1.890945 h 0.3548 v -1.966271 l 1.12981,-0.227936 v 1.787873 h 0.35481 v -1.86518 l 0.48165,-0.08919 c 0.0773,-0.01189 0.14073,-0.101092 0.14073,-0.176418 V 14.3786 c 0,-0.101088 -0.0773,-0.176409 -0.17839,-0.176409 h -0.0258 l -0.41822,0.08721 v -2.09312 l 0.48165,-0.08722 m -1.96628,2.497486 v -2.105019 l 1.12982,-0.227945 v 2.093127 l -1.12982,0.239837"
     id="path1208"
     style="stroke-width:0.126856" />
  <polyline
     class="LedgerLine"
     fill="none"
     stroke="#000000"
     stroke-width="3.97"
     stroke-linejoin="bevel"
     points="536.789,758.198 586.381,758.198"
     id="polyline1210"
     transform="matrix(0.12787919,0,0,0.12787919,-57.082345,-73.990587)" />
  <polyline
     class="LedgerLine"
     fill="none"
     stroke="#000000"
     stroke-width="3.97"
     stroke-linejoin="bevel"
     points="675.194,758.198 724.786,758.198"
     id="polyline1212"
     transform="matrix(0.12787919,0,0,0.12787919,-57.082345,-73.990587)" />
  <polyline
     class="LedgerLine"
     fill="none"
     stroke="#000000"
     stroke-width="3.97"
     stroke-linejoin="bevel"
     points="813.599,758.198 863.191,758.198"
     id="polyline1214"
     transform="matrix(0.12787919,0,0,0.12787919,-57.082345,-73.990587)" />
  <polyline
     class="LedgerLine"
     fill="none"
     stroke="#000000"
     stroke-width="3.97"
     stroke-linejoin="bevel"
     points="952.004,758.198 1001.6,758.198"
     id="polyline1216"
     transform="matrix(0.12787919,0,0,0.12787919,-57.082345,-73.990587)" />
  <polyline
     class="LedgerLine"
     fill="none"
     stroke="#000000"
     stroke-width="3.97"
     stroke-linejoin="bevel"
     points="1142.78,758.198 1192.38,758.198"
     id="polyline1218"
     transform="matrix(0.12787919,0,0,0.12787919,-64.614615,-73.990587)" />
  <polyline
     class="LedgerLine"
     fill="none"
     stroke="#000000"
     stroke-width="3.97"
     stroke-linejoin="bevel"
     points="1262.2,758.198 1311.8,758.198"
     id="polyline1220"
     transform="matrix(0.12787919,0,0,0.12787919,-64.614615,-73.990587)" />
  <polyline
     class="LedgerLine"
     fill="none"
     stroke="#000000"
     stroke-width="3.97"
     stroke-linejoin="bevel"
     points="1381.62,758.198 1431.22,758.198"
     id="polyline1222"
     transform="matrix(0.12787919,0,0,0.12787919,-64.614615,-73.990587)" />
  <polyline
     class="LedgerLine"
     fill="none"
     stroke="#000000"
     stroke-width="3.97"
     stroke-linejoin="bevel"
     points="1501.04,758.198 1550.64,758.198"
     id="polyline1224"
     transform="matrix(0.12787919,0,0,0.12787919,-64.614615,-73.990587)" />
  <polyline
     class="LedgerLine"
     fill="none"
     stroke="#000000"
     stroke-width="3.97"
     stroke-linejoin="bevel"
     points="1624.44,758.198 1674.03,758.198"
     id="polyline1226"
     transform="matrix(0.12787919,0,0,0.12787919,-64.614615,-73.990587)" />
  <polyline
     class="LedgerLine"
     fill="none"
     stroke="#000000"
     stroke-width="3.97"
     stroke-linejoin="bevel"
     points="1743.86,758.198 1793.45,758.198"
     id="polyline1228"
     transform="matrix(0.12787919,0,0,0.12787919,-64.614615,-73.990587)" />
  <polyline
     class="LedgerLine"
     fill="none"
     stroke="#000000"
     stroke-width="3.97"
     stroke-linejoin="bevel"
     points="1863.28,758.198 1912.87,758.198"
     id="polyline1230"
     transform="matrix(0.12787919,0,0,0.12787919,-60.522481,-73.990587)" />
  <polyline
     class="Stem"
     fill="none"
     stroke="#000000"
     stroke-width="2.73"
     stroke-linejoin="bevel"
     points="576.337,755.024 576.337,624.898"
     id="polyline1232"
     transform="matrix(0.12787919,0,0,0.12787919,-57.082345,-73.990587)" />
  <polyline
     class="Stem"
     fill="none"
     stroke="#000000"
     stroke-width="2.73"
     stroke-linejoin="bevel"
     points="714.742,755.024 714.742,624.898"
     id="polyline1234"
     transform="matrix(0.12787919,0,0,0.12787919,-57.082345,-73.990587)" />
  <polyline
     class="Stem"
     fill="none"
     stroke="#000000"
     stroke-width="2.73"
     stroke-linejoin="bevel"
     points="853.147,755.024 853.147,624.898"
     id="polyline1236"
     transform="matrix(0.12787919,0,0,0.12787919,-57.082345,-73.990587)" />
  <polyline
     class="Stem"
     fill="none"
     stroke="#000000"
     stroke-width="2.73"
     stroke-linejoin="bevel"
     points="991.553,755.024 991.553,624.898"
     id="polyline1238"
     transform="matrix(0.12787919,0,0,0.12787919,-57.082345,-73.990587)" />
  <polyline
     class="Stem"
     fill="none"
     stroke="#000000"
     stroke-width="2.73"
     stroke-linejoin="bevel"
     points="1182.33,755.024 1182.33,609.398"
     id="polyline1240"
     transform="matrix(0.12787919,0,0,0.12787919,-64.614615,-73.990587)" />
  <polyline
     class="Stem"
     fill="none"
     stroke="#000000"
     stroke-width="2.73"
     stroke-linejoin="bevel"
     points="1301.75,755.024 1301.75,609.398"
     id="polyline1242"
     transform="matrix(0.12787919,0,0,0.12787919,-64.614615,-73.990587)" />
  <polyline
     class="Stem"
     fill="none"
     stroke="#000000"
     stroke-width="2.73"
     stroke-linejoin="bevel"
     points="1421.17,755.024 1421.17,609.398"
     id="polyline1244"
     transform="matrix(0.12787919,0,0,0.12787919,-64.614615,-73.990587)" />
  <polyline
     class="Stem"
     fill="none"
     stroke="#000000"
     stroke-width="2.73"
     stroke-linejoin="bevel"
     points="1540.59,755.024 1540.59,609.398"
     id="polyline1246"
     transform="matrix(0.12787919,0,0,0.12787919,-64.614615,-73.990587)" />
  <polyline
     class="Stem"
     fill="none"
     stroke="#000000"
     stroke-width="2.73"
     stroke-linejoin="bevel"
     points="1663.98,755.024 1663.98,609.398"
     id="polyline1248"
     transform="matrix(0.12787919,0,0,0.12787919,-64.614615,-73.990587)" />
  <polyline
     class="Stem"
     fill="none"
     stroke="#000000"
     stroke-width="2.73"
     stroke-linejoin="bevel"
     points="1783.4,755.024 1783.4,609.398"
     id="polyline1250"
     transform="matrix(0.12787919,0,0,0.12787919,-64.614615,-73.990587)" />
  <polyline
     class="Stem"
     fill="none"
     stroke="#000000"
     stroke-width="2.73"
     stroke-linejoin="bevel"
     points="1902.82,755.024 1902.82,609.398"
     id="polyline1252"
     transform="matrix(0.12787919,0,0,0.12787919,-60.522481,-73.990587)" />
  <path
     class="Note"
     d="m 16.667758,21.940419 c -0.227948,-0.420217 -0.709596,-0.648152 -1.294327,-0.648152 -0.430118,0 -0.899891,0.126855 -1.357754,0.36867 -0.836464,0.444 -1.343889,1.19126 -1.343889,1.839418 0,0.176409 0.03766,0.354799 0.126857,0.519316 0.227944,0.418235 0.709601,0.634283 1.294326,0.634283 0.43013,0 0.899891,-0.112977 1.357767,-0.354802 0.836451,-0.443998 1.343875,-1.193242 1.343875,-1.839416 0,-0.17839 -0.03766,-0.354799 -0.126855,-0.519317"
     id="path1254"
     style="stroke-width:0.126856" />
  <path
     class="Note"
     d="m 16.667758,18.769016 c -0.227948,-0.420217 -0.709596,-0.648153 -1.294327,-0.648153 -0.430118,0 -0.899891,0.126856 -1.357754,0.36867 -0.836464,0.443999 -1.343889,1.191261 -1.343889,1.839417 0,0.17641 0.03766,0.3548 0.126857,0.519317 0.227944,0.418235 0.709601,0.634284 1.294326,0.634284 0.43013,0 0.899891,-0.112978 1.357767,-0.354804 0.836451,-0.443997 1.343875,-1.193241 1.343875,-1.839414 0,-0.178391 -0.03766,-0.354801 -0.126855,-0.519317"
     id="path1256"
     style="stroke-width:0.126856" />
  <path
     class="Note"
     d="m 16.667758,15.597612 c -0.227948,-0.420218 -0.709596,-0.648154 -1.294327,-0.648154 -0.430118,0 -0.899891,0.126857 -1.357754,0.368671 -0.836464,0.443999 -1.343889,1.191261 -1.343889,1.839417 0,0.176409 0.03766,0.354801 0.126857,0.519318 0.227944,0.418235 0.709601,0.634282 1.294326,0.634282 0.43013,0 0.899891,-0.112977 1.357767,-0.354802 0.836451,-0.443997 1.343875,-1.193241 1.343875,-1.839415 0,-0.178392 -0.03766,-0.354801 -0.126855,-0.519317"
     id="path1258"
     style="stroke-width:0.126856" />
  <path
     class="Note"
     d="m 34.366876,21.940419 c -0.227945,-0.420217 -0.709596,-0.648152 -1.294326,-0.648152 -0.430119,0 -0.899892,0.126855 -1.357753,0.36867 -0.836465,0.444 -1.34389,1.19126 -1.34389,1.839418 0,0.176409 0.03766,0.354799 0.126856,0.519316 0.227945,0.418235 0.709604,0.634283 1.294327,0.634283 0.430132,0 0.899891,-0.112977 1.357766,-0.354802 0.836451,-0.443998 1.343876,-1.193242 1.343876,-1.839416 0,-0.17839 -0.03766,-0.354799 -0.126856,-0.519317"
     id="path1260"
     style="stroke-width:0.126856" />
  <path
     class="Note"
     d="m 34.366876,18.769016 c -0.227945,-0.420217 -0.709596,-0.648153 -1.294326,-0.648153 -0.430119,0 -0.899892,0.126856 -1.357753,0.36867 -0.836465,0.443999 -1.34389,1.191261 -1.34389,1.839417 0,0.17641 0.03766,0.3548 0.126856,0.519317 0.227945,0.418235 0.709604,0.634284 1.294327,0.634284 0.430132,0 0.899891,-0.112978 1.357766,-0.354804 0.836451,-0.443997 1.343876,-1.193241 1.343876,-1.839414 0,-0.178391 -0.03766,-0.354801 -0.126856,-0.519317"
     id="path1262"
     style="stroke-width:0.126856" />
  <path
     class="Note"
     d="m 34.366876,15.597612 c -0.227945,-0.420218 -0.709596,-0.648154 -1.294326,-0.648154 -0.430119,0 -0.899892,0.126857 -1.357753,0.368671 -0.836465,0.443999 -1.34389,1.191261 -1.34389,1.839417 0,0.176409 0.03766,0.354801 0.126856,0.519318 0.227945,0.418235 0.709604,0.634282 1.294327,0.634282 0.430132,0 0.899891,-0.112977 1.357766,-0.354802 0.836451,-0.443997 1.343876,-1.193241 1.343876,-1.839415 0,-0.178392 -0.03766,-0.354801 -0.126856,-0.519317"
     id="path1264"
     style="stroke-width:0.126856" />
  <path
     class="Note"
     d="m 52.065997,21.940419 c -0.227949,-0.420217 -0.709596,-0.648152 -1.294326,-0.648152 -0.43012,0 -0.899892,0.126855 -1.357757,0.36867 -0.836462,0.444 -1.343887,1.19126 -1.343887,1.839418 0,0.176409 0.03766,0.354799 0.126857,0.519316 0.227943,0.418235 0.7096,0.634283 1.294326,0.634283 0.430129,0 0.899891,-0.112977 1.357766,-0.354802 0.836452,-0.443998 1.343877,-1.193242 1.343877,-1.839416 0,-0.17839 -0.03767,-0.354799 -0.126856,-0.519317"
     id="path1266"
     style="stroke-width:0.126856" />
  <path
     class="Note"
     d="m 52.065997,18.769016 c -0.227949,-0.420217 -0.709596,-0.648153 -1.294326,-0.648153 -0.43012,0 -0.899892,0.126856 -1.357757,0.36867 -0.836462,0.443999 -1.343887,1.191261 -1.343887,1.839417 0,0.17641 0.03766,0.3548 0.126857,0.519317 0.227943,0.418235 0.7096,0.634284 1.294326,0.634284 0.430129,0 0.899891,-0.112978 1.357766,-0.354804 0.836452,-0.443997 1.343877,-1.193241 1.343877,-1.839414 0,-0.178391 -0.03767,-0.354801 -0.126856,-0.519317"
     id="path1268"
     style="stroke-width:0.126856" />
  <path
     class="Note"
     d="m 52.065997,15.597612 c -0.227949,-0.420218 -0.709596,-0.648154 -1.294326,-0.648154 -0.43012,0 -0.899892,0.126857 -1.357757,0.368671 -0.836462,0.443999 -1.343887,1.191261 -1.343887,1.839417 0,0.176409 0.03766,0.354801 0.126857,0.519318 0.227943,0.418235 0.7096,0.634282 1.294326,0.634282 0.430129,0 0.899891,-0.112977 1.357766,-0.354802 0.836452,-0.443997 1.343877,-1.193241 1.343877,-1.839415 0,-0.178392 -0.03767,-0.354801 -0.126856,-0.519317"
     id="path1270"
     style="stroke-width:0.126856" />
  <path
     class="Note"
     d="m 69.765117,21.940419 c -0.22795,-0.420217 -0.7096,-0.648152 -1.294328,-0.648152 -0.430114,0 -0.899893,0.126855 -1.357757,0.36867 -0.836464,0.444 -1.343886,1.19126 -1.343886,1.839418 0,0.176409 0.03764,0.354799 0.126858,0.519316 0.227942,0.418235 0.709599,0.634283 1.294321,0.634283 0.430135,0 0.899893,-0.112977 1.357771,-0.354802 0.83645,-0.443998 1.343871,-1.193242 1.343871,-1.839416 0,-0.17839 -0.03764,-0.354799 -0.12685,-0.519317"
     id="path1272"
     style="stroke-width:0.126856" />
  <path
     class="Note"
     d="m 69.765117,18.769016 c -0.22795,-0.420217 -0.7096,-0.648153 -1.294328,-0.648153 -0.430114,0 -0.899893,0.126856 -1.357757,0.36867 -0.836464,0.443999 -1.343886,1.191261 -1.343886,1.839417 0,0.17641 0.03764,0.3548 0.126858,0.519317 0.227942,0.418235 0.709599,0.634284 1.294321,0.634284 0.430135,0 0.899893,-0.112978 1.357771,-0.354804 0.83645,-0.443997 1.343871,-1.193241 1.343871,-1.839414 0,-0.178391 -0.03764,-0.354801 -0.12685,-0.519317"
     id="path1274"
     style="stroke-width:0.126856" />
  <path
     class="Note"
     d="m 69.765117,15.597612 c -0.22795,-0.420218 -0.7096,-0.648154 -1.294328,-0.648154 -0.430114,0 -0.899893,0.126857 -1.357757,0.368671 -0.836464,0.443999 -1.343886,1.191261 -1.343886,1.839417 0,0.176409 0.03764,0.354801 0.126858,0.519318 0.227942,0.418235 0.709599,0.634282 1.294321,0.634282 0.430135,0 0.899893,-0.112977 1.357771,-0.354802 0.83645,-0.443997 1.343871,-1.193241 1.343871,-1.839415 0,-0.178392 -0.03764,-0.354801 -0.12685,-0.519317"
     id="path1276"
     style="stroke-width:0.126856" />
  <path
     class="Note"
     d="m 86.629138,21.940419 c -0.22795,-0.420217 -0.70961,-0.648152 -1.29434,-0.648152 -0.43012,0 -0.89988,0.126855 -1.35775,0.36867 -0.83646,0.444 -1.34388,1.19126 -1.34388,1.839418 0,0.176409 0.0376,0.354799 0.12685,0.519316 0.22795,0.418235 0.7096,0.634283 1.29433,0.634283 0.43012,0 0.89989,-0.112977 1.35776,-0.354802 0.83646,-0.443998 1.34388,-1.193242 1.34388,-1.839416 0,-0.17839 -0.0376,-0.354799 -0.12685,-0.519317"
     id="path1278"
     style="stroke-width:0.126856" />
  <path
     class="Note"
     d="m 86.629138,18.769016 c -0.22795,-0.420217 -0.70961,-0.648153 -1.29434,-0.648153 -0.43012,0 -0.89988,0.126856 -1.35775,0.36867 -0.83646,0.443999 -1.34388,1.191261 -1.34388,1.839417 0,0.17641 0.0376,0.3548 0.12685,0.519317 0.22795,0.418235 0.7096,0.634284 1.29433,0.634284 0.43012,0 0.89989,-0.112978 1.35776,-0.354804 0.83646,-0.443997 1.34388,-1.193241 1.34388,-1.839414 0,-0.178391 -0.0376,-0.354801 -0.12685,-0.519317"
     id="path1280"
     style="stroke-width:0.126856" />
  <path
     class="Note"
     d="m 86.629138,15.597612 c -0.22795,-0.420218 -0.70961,-0.648154 -1.29434,-0.648154 -0.43012,0 -0.89988,0.126857 -1.35775,0.368671 -0.83646,0.443999 -1.34388,1.191261 -1.34388,1.839417 0,0.176409 0.0376,0.354801 0.12685,0.519318 0.22795,0.418235 0.7096,0.634282 1.29433,0.634282 0.43012,0 0.89989,-0.112977 1.35776,-0.354802 0.83646,-0.443997 1.34388,-1.193241 1.34388,-1.839415 0,-0.178392 -0.0376,-0.354801 -0.12685,-0.519317"
     id="path1282"
     style="stroke-width:0.126856" />
  <path
     class="Note"
     d="m 86.629138,12.426208 c -0.22795,-0.420218 -0.70961,-0.648154 -1.29434,-0.648154 -0.43012,0 -0.89988,0.126857 -1.35775,0.368671 -0.83646,0.443999 -1.34388,1.191261 -1.34388,1.839417 0,0.176409 0.0376,0.354801 0.12685,0.519318 0.22795,0.418235 0.7096,0.634283 1.29433,0.634283 0.43012,0 0.89989,-0.112978 1.35776,-0.354803 0.83646,-0.443997 1.34388,-1.193242 1.34388,-1.839415 0,-0.178391 -0.0376,-0.354801 -0.12685,-0.519317"
     id="path1284"
     style="stroke-width:0.126856" />
  <path
     class="Note"
     d="m 101.90046,21.940419 c -0.22794,-0.420217 -0.7096,-0.648152 -1.29432,-0.648152 -0.43012,0 -0.89989,0.126855 -1.35776,0.36867 -0.83646,0.444 -1.34389,1.19126 -1.34389,1.839418 0,0.176409 0.0376,0.354799 0.12686,0.519316 0.22795,0.418235 0.70961,0.634283 1.29434,0.634283 0.43012,0 0.89988,-0.112977 1.35775,-0.354802 0.83646,-0.443998 1.34388,-1.193242 1.34388,-1.839416 0,-0.17839 -0.0376,-0.354799 -0.12686,-0.519317"
     id="path1286"
     style="stroke-width:0.126856" />
  <path
     class="Note"
     d="m 101.90046,18.769016 c -0.22794,-0.420217 -0.7096,-0.648153 -1.29432,-0.648153 -0.43012,0 -0.89989,0.126856 -1.35776,0.36867 -0.83646,0.443999 -1.34389,1.191261 -1.34389,1.839417 0,0.17641 0.0376,0.3548 0.12686,0.519317 0.22795,0.418235 0.70961,0.634284 1.29434,0.634284 0.43012,0 0.89988,-0.112978 1.35775,-0.354804 0.83646,-0.443997 1.34388,-1.193241 1.34388,-1.839414 0,-0.178391 -0.0376,-0.354801 -0.12686,-0.519317"
     id="path1288"
     style="stroke-width:0.126856" />
  <path
     class="Note"
     d="m 101.90046,15.597612 c -0.22794,-0.420218 -0.7096,-0.648154 -1.29432,-0.648154 -0.43012,0 -0.89989,0.126857 -1.35776,0.368671 -0.83646,0.443999 -1.34389,1.191261 -1.34389,1.839417 0,0.176409 0.0376,0.354801 0.12686,0.519318 0.22795,0.418235 0.70961,0.634282 1.29434,0.634282 0.43012,0 0.89988,-0.112977 1.35775,-0.354802 0.83646,-0.443997 1.34388,-1.193241 1.34388,-1.839415 0,-0.178392 -0.0376,-0.354801 -0.12686,-0.519317"
     id="path1290"
     style="stroke-width:0.126856" />
  <path
     class="Note"
     d="m 101.90046,12.426208 c -0.22794,-0.420218 -0.7096,-0.648154 -1.29432,-0.648154 -0.43012,0 -0.89989,0.126857 -1.35776,0.368671 -0.83646,0.443999 -1.34389,1.191261 -1.34389,1.839417 0,0.176409 0.0376,0.354801 0.12686,0.519318 0.22795,0.418235 0.70961,0.634283 1.29434,0.634283 0.43012,0 0.89988,-0.112978 1.35775,-0.354803 0.83646,-0.443997 1.34388,-1.193242 1.34388,-1.839415 0,-0.178391 -0.0376,-0.354801 -0.12686,-0.519317"
     id="path1292"
     style="stroke-width:0.126856" />
  <path
     class="Note"
     d="m 117.1718,21.940419 c -0.22794,-0.420217 -0.7096,-0.648152 -1.29433,-0.648152 -0.43012,0 -0.89989,0.126855 -1.35776,0.36867 -0.83645,0.444 -1.34388,1.19126 -1.34388,1.839418 0,0.176409 0.0376,0.354799 0.12685,0.519316 0.22795,0.418235 0.70961,0.634283 1.29433,0.634283 0.43012,0 0.8999,-0.112977 1.35777,-0.354802 0.83645,-0.443998 1.34388,-1.193242 1.34388,-1.839416 0,-0.17839 -0.0377,-0.354799 -0.12686,-0.519317"
     id="path1294"
     style="stroke-width:0.126856" />
  <path
     class="Note"
     d="m 117.1718,18.769016 c -0.22794,-0.420217 -0.7096,-0.648153 -1.29433,-0.648153 -0.43012,0 -0.89989,0.126856 -1.35776,0.36867 -0.83645,0.443999 -1.34388,1.191261 -1.34388,1.839417 0,0.17641 0.0376,0.3548 0.12685,0.519317 0.22795,0.418235 0.70961,0.634284 1.29433,0.634284 0.43012,0 0.8999,-0.112978 1.35777,-0.354804 0.83645,-0.443997 1.34388,-1.193241 1.34388,-1.839414 0,-0.178391 -0.0377,-0.354801 -0.12686,-0.519317"
     id="path1296"
     style="stroke-width:0.126856" />
  <path
     class="Note"
     d="m 117.1718,15.597612 c -0.22794,-0.420218 -0.7096,-0.648154 -1.29433,-0.648154 -0.43012,0 -0.89989,0.126857 -1.35776,0.368671 -0.83645,0.443999 -1.34388,1.191261 -1.34388,1.839417 0,0.176409 0.0376,0.354801 0.12685,0.519318 0.22795,0.418235 0.70961,0.634282 1.29433,0.634282 0.43012,0 0.8999,-0.112977 1.35777,-0.354802 0.83645,-0.443997 1.34388,-1.193241 1.34388,-1.839415 0,-0.178392 -0.0377,-0.354801 -0.12686,-0.519317"
     id="path1298"
     style="stroke-width:0.126856" />
  <path
     class="Note"
     d="m 117.1718,12.426208 c -0.22794,-0.420218 -0.7096,-0.648154 -1.29433,-0.648154 -0.43012,0 -0.89989,0.126857 -1.35776,0.368671 -0.83645,0.443999 -1.34388,1.191261 -1.34388,1.839417 0,0.176409 0.0376,0.354801 0.12685,0.519318 0.22795,0.418235 0.70961,0.634283 1.29433,0.634283 0.43012,0 0.8999,-0.112978 1.35777,-0.354803 0.83645,-0.443997 1.34388,-1.193242 1.34388,-1.839415 0,-0.178391 -0.0377,-0.354801 -0.12686,-0.519317"
     id="path1300"
     style="stroke-width:0.126856" />
  <path
     class="Note"
     d="m 132.44313,21.940419 c -0.22794,-0.420217 -0.7096,-0.648152 -1.29433,-0.648152 -0.43012,0 -0.89988,0.126855 -1.35775,0.36867 -0.83646,0.444 -1.34388,1.19126 -1.34388,1.839418 0,0.176409 0.0376,0.354799 0.12685,0.519316 0.22794,0.418235 0.70961,0.634283 1.29433,0.634283 0.43013,0 0.89989,-0.112977 1.35775,-0.354802 0.83647,-0.443998 1.34389,-1.193242 1.34389,-1.839416 0,-0.17839 -0.0376,-0.354799 -0.12686,-0.519317"
     id="path1302"
     style="stroke-width:0.126856" />
  <path
     class="Note"
     d="m 132.44313,18.769016 c -0.22794,-0.420217 -0.7096,-0.648153 -1.29433,-0.648153 -0.43012,0 -0.89988,0.126856 -1.35775,0.36867 -0.83646,0.443999 -1.34388,1.191261 -1.34388,1.839417 0,0.17641 0.0376,0.3548 0.12685,0.519317 0.22794,0.418235 0.70961,0.634284 1.29433,0.634284 0.43013,0 0.89989,-0.112978 1.35775,-0.354804 0.83647,-0.443997 1.34389,-1.193241 1.34389,-1.839414 0,-0.178391 -0.0376,-0.354801 -0.12686,-0.519317"
     id="path1304"
     style="stroke-width:0.126856" />
  <path
     class="Note"
     d="m 132.44313,15.597612 c -0.22794,-0.420218 -0.7096,-0.648154 -1.29433,-0.648154 -0.43012,0 -0.89988,0.126857 -1.35775,0.368671 -0.83646,0.443999 -1.34388,1.191261 -1.34388,1.839417 0,0.176409 0.0376,0.354801 0.12685,0.519318 0.22794,0.418235 0.70961,0.634282 1.29433,0.634282 0.43013,0 0.89989,-0.112977 1.35775,-0.354802 0.83647,-0.443997 1.34389,-1.193241 1.34389,-1.839415 0,-0.178392 -0.0376,-0.354801 -0.12686,-0.519317"
     id="path1306"
     style="stroke-width:0.126856" />
  <path
     class="Note"
     d="m 132.44313,12.426208 c -0.22794,-0.420218 -0.7096,-0.648154 -1.29433,-0.648154 -0.43012,0 -0.89988,0.126857 -1.35775,0.368671 -0.83646,0.443999 -1.34388,1.191261 -1.34388,1.839417 0,0.176409 0.0376,0.354801 0.12685,0.519318 0.22794,0.418235 0.70961,0.634283 1.29433,0.634283 0.43013,0 0.89989,-0.112978 1.35775,-0.354803 0.83647,-0.443997 1.34389,-1.193242 1.34389,-1.839415 0,-0.178391 -0.0376,-0.354801 -0.12686,-0.519317"
     id="path1308"
     style="stroke-width:0.126856" />
  <path
     class="Note"
     d="m 148.22342,21.940419 c -0.22794,-0.420217 -0.7096,-0.648152 -1.29433,-0.648152 -0.43012,0 -0.89988,0.126855 -1.35775,0.36867 -0.83646,0.444 -1.34388,1.19126 -1.34388,1.839418 0,0.176409 0.0376,0.354799 0.12685,0.519316 0.22795,0.418235 0.70961,0.634283 1.29433,0.634283 0.43013,0 0.89989,-0.112977 1.35776,-0.354802 0.83646,-0.443998 1.34388,-1.193242 1.34388,-1.839416 0,-0.17839 -0.0376,-0.354799 -0.12686,-0.519317"
     id="path1310"
     style="stroke-width:0.126856" />
  <path
     class="Note"
     d="m 148.22342,18.769016 c -0.22794,-0.420217 -0.7096,-0.648153 -1.29433,-0.648153 -0.43012,0 -0.89988,0.126856 -1.35775,0.36867 -0.83646,0.443999 -1.34388,1.191261 -1.34388,1.839417 0,0.17641 0.0376,0.3548 0.12685,0.519317 0.22795,0.418235 0.70961,0.634284 1.29433,0.634284 0.43013,0 0.89989,-0.112978 1.35776,-0.354804 0.83646,-0.443997 1.34388,-1.193241 1.34388,-1.839414 0,-0.178391 -0.0376,-0.354801 -0.12686,-0.519317"
     id="path1312"
     style="stroke-width:0.126856" />
  <path
     class="Note"
     d="m 148.22342,15.597612 c -0.22794,-0.420218 -0.7096,-0.648154 -1.29433,-0.648154 -0.43012,0 -0.89988,0.126857 -1.35775,0.368671 -0.83646,0.443999 -1.34388,1.191261 -1.34388,1.839417 0,0.176409 0.0376,0.354801 0.12685,0.519318 0.22795,0.418235 0.70961,0.634282 1.29433,0.634282 0.43013,0 0.89989,-0.112977 1.35776,-0.354802 0.83646,-0.443997 1.34388,-1.193241 1.34388,-1.839415 0,-0.178392 -0.0376,-0.354801 -0.12686,-0.519317"
     id="path1314"
     style="stroke-width:0.126856" />
  <path
     class="Note"
     d="m 148.22342,12.426208 c -0.22794,-0.420218 -0.7096,-0.648154 -1.29433,-0.648154 -0.43012,0 -0.89988,0.126857 -1.35775,0.368671 -0.83646,0.443999 -1.34388,1.191261 -1.34388,1.839417 0,0.176409 0.0376,0.354801 0.12685,0.519318 0.22795,0.418235 0.70961,0.634283 1.29433,0.634283 0.43013,0 0.89989,-0.112978 1.35776,-0.354803 0.83646,-0.443997 1.34388,-1.193242 1.34388,-1.839415 0,-0.178391 -0.0376,-0.354801 -0.12686,-0.519317"
     id="path1316"
     style="stroke-width:0.126856" />
  <path
     class="Note"
     d="m 163.49476,21.940419 c -0.22795,-0.420217 -0.7096,-0.648152 -1.29433,-0.648152 -0.43012,0 -0.89989,0.126855 -1.35776,0.36867 -0.83646,0.444 -1.34388,1.19126 -1.34388,1.839418 0,0.176409 0.0376,0.354799 0.12685,0.519316 0.22795,0.418235 0.70961,0.634283 1.29434,0.634283 0.43012,0 0.89988,-0.112977 1.35776,-0.354802 0.83645,-0.443998 1.34387,-1.193242 1.34387,-1.839416 0,-0.17839 -0.0376,-0.354799 -0.12685,-0.519317"
     id="path1318"
     style="stroke-width:0.126856" />
  <path
     class="Note"
     d="m 163.49476,18.769016 c -0.22795,-0.420217 -0.7096,-0.648153 -1.29433,-0.648153 -0.43012,0 -0.89989,0.126856 -1.35776,0.36867 -0.83646,0.443999 -1.34388,1.191261 -1.34388,1.839417 0,0.17641 0.0376,0.3548 0.12685,0.519317 0.22795,0.418235 0.70961,0.634284 1.29434,0.634284 0.43012,0 0.89988,-0.112978 1.35776,-0.354804 0.83645,-0.443997 1.34387,-1.193241 1.34387,-1.839414 0,-0.178391 -0.0376,-0.354801 -0.12685,-0.519317"
     id="path1320"
     style="stroke-width:0.126856" />
  <path
     class="Note"
     d="m 163.49476,15.597612 c -0.22795,-0.420218 -0.7096,-0.648154 -1.29433,-0.648154 -0.43012,0 -0.89989,0.126857 -1.35776,0.368671 -0.83646,0.443999 -1.34388,1.191261 -1.34388,1.839417 0,0.176409 0.0376,0.354801 0.12685,0.519318 0.22795,0.418235 0.70961,0.634282 1.29434,0.634282 0.43012,0 0.89988,-0.112977 1.35776,-0.354802 0.83645,-0.443997 1.34387,-1.193241 1.34387,-1.839415 0,-0.178392 -0.0376,-0.354801 -0.12685,-0.519317"
     id="path1322"
     style="stroke-width:0.126856" />
  <path
     class="Note"
     d="m 163.49476,12.426208 c -0.22795,-0.420218 -0.7096,-0.648154 -1.29433,-0.648154 -0.43012,0 -0.89989,0.126857 -1.35776,0.368671 -0.83646,0.443999 -1.34388,1.191261 -1.34388,1.839417 0,0.176409 0.0376,0.354801 0.12685,0.519318 0.22795,0.418235 0.70961,0.634283 1.29434,0.634283 0.43012,0 0.89988,-0.112978 1.35776,-0.354803 0.83645,-0.443997 1.34387,-1.193242 1.34387,-1.839415 0,-0.178391 -0.0376,-0.354801 -0.12685,-0.519317"
     id="path1324"
     style="stroke-width:0.126856" />
  <path
     class="Note"
     d="m 182.85823,21.940419 c -0.22795,-0.420217 -0.7096,-0.648152 -1.29433,-0.648152 -0.43012,0 -0.89989,0.126855 -1.35776,0.36867 -0.83646,0.444 -1.34389,1.19126 -1.34389,1.839418 0,0.176409 0.0376,0.354799 0.12686,0.519316 0.22795,0.418235 0.7096,0.634283 1.29433,0.634283 0.43012,0 0.89989,-0.112977 1.35776,-0.354802 0.83645,-0.443998 1.34388,-1.193242 1.34388,-1.839416 0,-0.17839 -0.0376,-0.354799 -0.12685,-0.519317"
     id="path1326"
     style="stroke-width:0.126856" />
  <path
     class="Note"
     d="m 182.85823,18.769016 c -0.22795,-0.420217 -0.7096,-0.648153 -1.29433,-0.648153 -0.43012,0 -0.89989,0.126856 -1.35776,0.36867 -0.83646,0.443999 -1.34389,1.191261 -1.34389,1.839417 0,0.17641 0.0376,0.3548 0.12686,0.519317 0.22795,0.418235 0.7096,0.634284 1.29433,0.634284 0.43012,0 0.89989,-0.112978 1.35776,-0.354804 0.83645,-0.443997 1.34388,-1.193241 1.34388,-1.839414 0,-0.178391 -0.0376,-0.354801 -0.12685,-0.519317"
     id="path1328"
     style="stroke-width:0.126856" />
  <path
     class="Note"
     d="m 182.85823,15.597612 c -0.22795,-0.420218 -0.7096,-0.648154 -1.29433,-0.648154 -0.43012,0 -0.89989,0.126857 -1.35776,0.368671 -0.83646,0.443999 -1.34389,1.191261 -1.34389,1.839417 0,0.176409 0.0376,0.354801 0.12686,0.519318 0.22795,0.418235 0.7096,0.634282 1.29433,0.634282 0.43012,0 0.89989,-0.112977 1.35776,-0.354802 0.83645,-0.443997 1.34388,-1.193241 1.34388,-1.839415 0,-0.178392 -0.0376,-0.354801 -0.12685,-0.519317"
     id="path1330"
     style="stroke-width:0.126856" />
  <path
     class="Note"
     d="m 182.85823,12.426208 c -0.22795,-0.420218 -0.7096,-0.648154 -1.29433,-0.648154 -0.43012,0 -0.89989,0.126857 -1.35776,0.368671 -0.83646,0.443999 -1.34389,1.191261 -1.34389,1.839417 0,0.176409 0.0376,0.354801 0.12686,0.519318 0.22795,0.418235 0.7096,0.634283 1.29433,0.634283 0.43012,0 0.89989,-0.112978 1.35776,-0.354803 0.83645,-0.443997 1.34388,-1.193242 1.34388,-1.839415 0,-0.178391 -0.0376,-0.354801 -0.12685,-0.519317"
     id="path1332"
     style="stroke-width:0.126856" />
  <path
     class="Clef"
     d="m 8.5568303,15.873127 c -0.156591,-0.687804 -0.491567,-1.173422 -0.590679,-1.304237 -0.404354,-0.543108 -0.913758,-0.90385 -1.508396,-1.076298 -0.394446,-0.110999 -0.775015,-0.126856 -1.082235,-0.103071 -0.132807,-0.763116 -0.259663,-1.508396 -0.374632,-2.200167 0.691772,-0.782932 1.151625,-1.5183043 1.44101,-2.0633913 0.440038,-0.834473 0.58473,-1.415234 0.592658,-1.44101 0.218029,-0.662025 0.263621,-1.6392106 0.122887,-2.6798366 -0.126856,-0.957358 -0.392456,-1.809628 -0.69176,-2.221911 -0.128835,-0.180389 -0.26362,-0.273628 -0.394445,-0.273628 -0.154601,0 -0.47372,0.156667 -0.840422,0.509454 -0.291365,0.277434 -0.705638,0.771032 -1.030707,1.53416 -0.380568,0.895921 -0.408313,2.0990766 -0.36272,2.9513966 0.04757,0.923666 0.188293,1.64516 0.190284,1.65111 0.002,0.01189 0.03567,0.20217 0.09117,0.527239 -0.02774,0.02974 -0.05946,0.05749 -0.09117,0.0892 -0.130827,0.126856 -0.281469,0.2695693 -0.457875,0.4459753 -0.10902,0.10902 -0.229927,0.223978 -0.356784,0.346875 -1.070348,1.032687 -2.69371273,2.596582 -2.69371273,5.026673 0,0.596621 0.114963,1.157563 0.340926,1.666969 0.20019473,0.45589 0.49156773,0.872137 0.86420773,1.236848 0.981155,0.95935 2.325032,1.365683 3.218974,1.345867 0.37462,-0.0099 0.709609,-0.03964 1.01287,-0.09712 0.231906,1.219 0.376599,2.110963 0.380569,2.788844 0.0059,0.826558 -0.204162,1.331991 -0.69771,1.682837 -0.309211,0.220007 -0.665995,0.340925 -1.058461,0.358761 -0.329028,0.01586 -0.616432,-0.04362 -0.79681,-0.09514 h -0.002 c 0,0 -0.03569,-0.01189 -0.03766,-0.03569 -0.002,-0.02378 0.0436,-0.02972 0.0436,-0.02972 h 0.0039 c 0.243806,-0.0555 0.695731,-0.21209 0.995023,-0.630322 0.227948,-0.321098 0.338947,-0.907807 0.105062,-1.407303 -0.140735,-0.303276 -0.457875,-0.677895 -1.171441,-0.735374 -0.31714,-0.02576 -0.604545,0.03964 -0.858257,0.192263 -0.229927,0.136764 -0.420211,0.344897 -0.553018,0.598609 -0.31119,0.596616 -0.253712,1.32406 0.142714,1.811658 0.376598,0.459853 0.961329,0.753208 1.651109,0.826545 0.10902,0.01189 0.21605,0.01586 0.32309,0.01586 0.562924,0 1.119899,-0.152621 1.573804,-0.4321 0.463823,-0.327046 0.733392,-0.832493 0.818627,-1.546057 0.07136,-0.58869 0.02179,-1.33992 -0.154612,-2.364676 -0.04559,-0.265611 -0.114957,-0.650138 -0.198213,-1.125848 0.729423,-0.243806 1.256675,-0.697709 1.734364,-1.441011 0.418233,-0.727443 0.537161,-1.502455 0.356784,-2.303234 m -4.340874,3.326007 c -0.588657,-0.154602 -1.151581,-0.471742 -1.627291,-0.917719 -0.166499,-0.154599 -0.404354,-0.430121 -0.590668,-0.860243 -0.172449,-0.402372 -0.257683,-0.83844 -0.249755,-1.292347 0.0079,-0.59662 0.174428,-1.209098 0.491568,-1.815635 0.370661,-0.707616 0.949441,-1.409284 1.718507,-2.085198 0.184336,-0.162528 0.358763,-0.325069 0.521304,-0.487597 0.09712,0.541118 0.20217,1.135756 0.313169,1.75418 -0.487597,0.160549 -1.090164,0.560945 -1.484611,1.278469 -0.449945,0.832499 -0.432108,1.534172 -0.338946,1.976187 0.118928,0.564907 0.440039,1.042599 0.878085,1.308206 0.118928,0.07136 0.64221,0.340926 0.876095,0.267592 0.04757,-0.01388 0.08128,-0.04361 0.09911,-0.08524 0.06541,-0.148662 -0.06541,-0.229926 -0.261641,-0.350839 -0.07731,-0.04757 -0.162539,-0.101088 -0.253712,-0.168481 -0.42219,-0.315158 -0.606536,-0.880065 -0.469761,-1.437042 0.07334,-0.303265 0.235865,-0.578781 0.469761,-0.794833 0.2101,-0.196231 0.469761,-0.334986 0.771045,-0.416249 0.259661,1.427134 0.521302,2.842376 0.729423,3.902818 0.01586,0.08721 0.03369,0.172436 0.04955,0.25767 -0.554996,0.118927 -1.106022,0.107041 -1.641202,-0.03369 m 1.437052,-4.21203 c 1.312162,-0.05946 1.853279,0.884035 1.96627,1.496512 0.05946,0.323087 0.05946,0.886011 -0.136776,1.421192 -0.14865,0.402363 -0.459854,0.919707 -1.111971,1.181349 -0.0079,-0.05352 -0.01784,-0.109022 -0.02774,-0.162541 -0.196234,-1.113956 -0.442018,-2.509374 -0.68978,-3.936512 M 4.7233923,5.9862721 c 0.225967,-0.727445 0.572843,-1.139727 0.826556,-1.359734 0.221998,-0.192276 0.430118,-0.283447 0.547067,-0.283447 0.01784,0 0.03369,0.0039 0.04558,0.0079 0.05947,0.01784 0.126856,0.08919 0.186325,0.200193 0.293355,0.543108 0.198212,1.395418 0.02774,1.958342 -0.206141,0.6858206 -0.57679,1.3973956 -1.692732,2.6164076 -0.02181,-0.140735 -0.04162,-0.273528 -0.06145,-0.398405 -0.158569,-1.050534 -0.116947,-1.974199 0.120908,-2.7412836"
     id="path1334"
     style="stroke-width:0.126856" />
  <text
     xml:space="preserve"
     style="font-size:4.34989044px;fill:#000000;fill-opacity:1;stroke:#000000;stroke-width:0.1;stroke-dasharray:none;stroke-opacity:0.97667962;-inkscape-font-specification:'serif, Normal';font-family:serif;font-weight:normal;font-style:normal;font-stretch:normal;font-variant:normal;font-variant-ligatures:normal;font-variant-caps:normal;font-variant-numeric:normal;font-variant-east-asian:normal"
     x="16.61916"
     y="5.920866"
     id="text1707"><tspan
       sodipodi:role="line"
       id="tspan1705"
       x="16.61916"
       y="5.920866"
       style="fill:#000000;fill-opacity:1;stroke:#000000;stroke-width:0.1;stroke-dasharray:none;stroke-opacity:0.97667962;-inkscape-font-specification:'serif, Normal';font-family:serif;font-weight:normal;font-style:normal;font-stretch:normal;font-variant:normal;font-size:4.34989044px;font-variant-ligatures:normal;font-variant-caps:normal;font-variant-numeric:normal;font-variant-east-asian:normal">C</tspan></text>
  <text
     xml:space="preserve"
     style="font-size:4.34989044px;fill:#000000;fill-opacity:1;stroke:#000000;stroke-width:0.1;stroke-dasharray:none;stroke-opacity:0.97667962;-inkscape-font-specification:'serif, Normal';font-family:serif;font-weight:normal;font-style:normal;font-stretch:normal;font-variant:normal;font-variant-ligatures:normal;font-variant-caps:normal;font-variant-numeric:normal;font-variant-east-asian:normal"
     x="34.318287"
     y="5.920866"
     id="text1761"><tspan
       sodipodi:role="line"
       id="tspan1759"
       x="34.318287"
       y="5.920866"
       style="fill:#000000;fill-opacity:1;stroke:#000000;stroke-width:0.1;stroke-dasharray:none;stroke-opacity:0.97667962;-inkscape-font-specification:'serif, Normal';font-family:serif;font-weight:normal;font-style:normal;font-stretch:normal;font-variant:normal;font-size:4.34989044px;font-variant-ligatures:normal;font-variant-caps:normal;font-variant-numeric:normal;font-variant-east-asian:normal">Cm</tspan></text>
  <text
     xml:space="preserve"
     style="font-size:4.34989044px;fill:#000000;fill-opacity:1;stroke:#000000;stroke-width:0.1;stroke-dasharray:none;stroke-opacity:0.97667962;-inkscape-font-specification:'serif, Normal';font-family:serif;font-weight:normal;font-style:normal;font-stretch:normal;font-variant:normal;font-variant-ligatures:normal;font-variant-caps:normal;font-variant-numeric:normal;font-variant-east-asian:normal"
     x="52.017403"
     y="5.920866"
     id="text1765"><tspan
       sodipodi:role="line"
       id="tspan1763"
       x="52.017403"
       y="5.920866"
       style="fill:#000000;fill-opacity:1;stroke:#000000;stroke-width:0.1;stroke-dasharray:none;stroke-opacity:0.97667962;-inkscape-font-specification:'serif, Normal';font-family:serif;font-weight:normal;font-style:normal;font-stretch:normal;font-variant:normal;font-size:4.34989044px;font-variant-ligatures:normal;font-variant-caps:normal;font-variant-numeric:normal;font-variant-east-asian:normal">Cdim</tspan></text>
  <text
     xml:space="preserve"
     style="font-size:4.34989044px;fill:#000000;fill-opacity:1;stroke:#000000;stroke-width:0.1;stroke-dasharray:none;stroke-opacity:0.97667962;-inkscape-font-specification:'serif, Normal';font-family:serif;font-weight:normal;font-style:normal;font-stretch:normal;font-variant:normal;font-variant-ligatures:normal;font-variant-caps:normal;font-variant-numeric:normal;font-variant-east-asian:normal"
     x="69.716644"
     y="5.920866"
     id="text1769"><tspan
       sodipodi:role="line"
       id="tspan1767"
       x="69.716644"
       y="5.920866"
       style="fill:#000000;fill-opacity:1;stroke:#000000;stroke-width:0.1;stroke-dasharray:none;stroke-opacity:0.97667962;-inkscape-font-specification:'serif, Normal';font-family:serif;font-weight:normal;font-style:normal;font-stretch:normal;font-variant:normal;font-size:4.34989044px;font-variant-ligatures:normal;font-variant-caps:normal;font-variant-numeric:normal;font-variant-east-asian:normal">Caug</tspan></text>
  <text
     xml:space="preserve"
     style="font-size:4.34989044px;fill:#000000;fill-opacity:1;stroke:#000000;stroke-width:0.1;stroke-dasharray:none;stroke-opacity:0.97667962;-inkscape-font-specification:'serif, Normal';font-family:serif;font-weight:normal;font-style:normal;font-stretch:normal;font-variant:normal;font-variant-ligatures:normal;font-variant-caps:normal;font-variant-numeric:normal;font-variant-east-asian:normal"
     x="86.580788"
     y="3.9387383"
     id="text1773"><tspan
       sodipodi:role="line"
       id="tspan1771"
       x="86.580788"
       y="3.9387383"
       style="fill:#000000;fill-opacity:1;stroke:#000000;stroke-width:0.1;stroke-dasharray:none;stroke-opacity:0.97667962;-inkscape-font-specification:'serif, Normal';font-family:serif;font-weight:normal;font-style:normal;font-stretch:normal;font-variant:normal;font-size:4.34989044px;font-variant-ligatures:normal;font-variant-caps:normal;font-variant-numeric:normal;font-variant-east-asian:normal">C7</tspan></text>
  <text
     xml:space="preserve"
     style="font-style:normal;font-variant:normal;font-weight:normal;font-stretch:normal;font-size:4.34989px;font-family:serif;-inkscape-font-specification:'serif, Normal';font-variant-ligatures:normal;font-variant-caps:normal;font-variant-numeric:normal;font-variant-east-asian:normal;fill:#000000;fill-opacity:1;stroke:#000000;stroke-width:0.1;stroke-dasharray:none;stroke-opacity:0.97668"
     x="101.85213"
     y="3.9387383"
     id="text1777"><tspan
       sodipodi:role="line"
       id="tspan1775"
       x="101.85213"
       y="3.9387383"
       style="font-style:normal;font-variant:normal;font-weight:normal;font-stretch:normal;font-size:4.34989px;font-family:serif;-inkscape-font-specification:'serif, Normal';font-variant-ligatures:normal;font-variant-caps:normal;font-variant-numeric:normal;font-variant-east-asian:normal;fill:#000000;fill-opacity:1;stroke:#000000;stroke-width:0.1;stroke-dasharray:none;stroke-opacity:0.97668">C7<tspan
   style="font-size:65%;baseline-shift:super"
   id="tspan4756">maj</tspan></tspan></text>
  <text
     xml:space="preserve"
     style="font-size:4.34989044px;fill:#000000;fill-opacity:1;stroke:#000000;stroke-width:0.1;stroke-dasharray:none;stroke-opacity:0.97667962;-inkscape-font-specification:'serif, Normal';font-family:serif;font-weight:normal;font-style:normal;font-stretch:normal;font-variant:normal;font-variant-ligatures:normal;font-variant-caps:normal;font-variant-numeric:normal;font-variant-east-asian:normal"
     x="117.12347"
     y="3.9387383"
     id="text1781"><tspan
       sodipodi:role="line"
       id="tspan1779"
       x="117.12347"
       y="3.9387383"
       style="fill:#000000;fill-opacity:1;stroke:#000000;stroke-width:0.1;stroke-dasharray:none;stroke-opacity:0.97667962;-inkscape-font-specification:'serif, Normal';font-family:serif;font-weight:normal;font-style:normal;font-stretch:normal;font-variant:normal;font-size:4.34989044px;font-variant-ligatures:normal;font-variant-caps:normal;font-variant-numeric:normal;font-variant-east-asian:normal">Cm7</tspan></text>
  <text
     xml:space="preserve"
     style="font-style:normal;font-variant:normal;font-weight:normal;font-stretch:normal;font-size:4.34989px;font-family:serif;-inkscape-font-specification:'serif, Normal';font-variant-ligatures:normal;font-variant-caps:normal;font-variant-numeric:normal;font-variant-east-asian:normal;fill:#000000;fill-opacity:1;stroke:#000000;stroke-width:0.1;stroke-dasharray:none;stroke-opacity:0.97668"
     x="132.39479"
     y="3.9387383"
     id="text1785"><tspan
       sodipodi:role="line"
       id="tspan1783"
       x="132.39479"
       y="3.9387383"
       style="font-style:normal;font-variant:normal;font-weight:normal;font-stretch:normal;font-size:4.34989px;font-family:serif;-inkscape-font-specification:'serif, Normal';font-variant-ligatures:normal;font-variant-caps:normal;font-variant-numeric:normal;font-variant-east-asian:normal;fill:#000000;fill-opacity:1;stroke:#000000;stroke-width:0.1;stroke-dasharray:none;stroke-opacity:0.97668">Cm7<tspan
   style="font-size:65%;baseline-shift:super"
   id="tspan4754">maj</tspan></tspan></text>
  <text
     xml:space="preserve"
     style="font-size:34.0157px;fill:#000000;fill-opacity:0.0324139;stroke:#000000;stroke-opacity:0.857956"
     x="1596.0156"
     y="605.91956"
     id="text1789"><tspan
       sodipodi:role="line"
       id="tspan1787"
       x="1596.0156"
       y="605.91956" /></text>
  <text
     xml:space="preserve"
     style="font-size:4.34989044px;fill:#000000;fill-opacity:1;stroke:#000000;stroke-width:0.1;stroke-dasharray:none;stroke-opacity:0.97667962;-inkscape-font-specification:'serif, Normal';font-family:serif;font-weight:normal;font-style:normal;font-stretch:normal;font-variant:normal;font-variant-ligatures:normal;font-variant-caps:normal;font-variant-numeric:normal;font-variant-east-asian:normal"
     x="148.17381"
     y="3.9387383"
     id="text1801"><tspan
       sodipodi:role="line"
       id="tspan1799"
       x="148.17381"
       y="3.9387383"
       style="fill:#000000;fill-opacity:1;stroke:#000000;stroke-width:0.1;stroke-dasharray:none;stroke-opacity:0.97667962;-inkscape-font-specification:'serif, Normal';font-family:serif;font-weight:normal;font-style:normal;font-stretch:normal;font-variant:normal;font-size:4.34989044px;font-variant-ligatures:normal;font-variant-caps:normal;font-variant-numeric:normal;font-variant-east-asian:normal">Cdim7</tspan></text>
  <text
     xml:space="preserve"
     style="font-style:normal;font-variant:normal;font-weight:normal;font-stretch:normal;font-size:4.34989px;font-family:serif;-inkscape-font-specification:'serif, Normal';font-variant-ligatures:normal;font-variant-caps:normal;font-variant-numeric:normal;font-variant-east-asian:normal;fill:#000000;fill-opacity:1;stroke:#000000;stroke-width:0.1;stroke-dasharray:none;stroke-opacity:0.97668"
     x="163.44514"
     y="3.9387383"
     id="text1805"><tspan
       sodipodi:role="line"
       id="tspan1803"
       x="163.44514"
       y="3.9387383"
       style="font-style:normal;font-variant:normal;font-weight:normal;font-stretch:normal;font-size:4.34989px;font-family:serif;-inkscape-font-specification:'serif, Normal';font-variant-ligatures:normal;font-variant-caps:normal;font-variant-numeric:normal;font-variant-east-asian:normal;fill:#000000;fill-opacity:1;stroke:#000000;stroke-width:0.1;stroke-dasharray:none;stroke-opacity:0.97668">Cdim7<tspan
   style="font-size:65%;baseline-shift:super"
   id="tspan4752">maj</tspan></tspan></text>
  <text
     xml:space="preserve"
     style="font-size:4.34989044px;fill:#000000;fill-opacity:1;stroke:#000000;stroke-width:0.1;stroke-dasharray:none;stroke-opacity:0.97667962;-inkscape-font-specification:'serif, Normal';font-family:serif;font-weight:normal;font-style:normal;font-stretch:normal;font-variant:normal;font-variant-ligatures:normal;font-variant-caps:normal;font-variant-numeric:normal;font-variant-east-asian:normal"
     x="182.80861"
     y="3.9387383"
     id="text1815"><tspan
       sodipodi:role="line"
       id="tspan1813"
       x="182.80861"
       y="3.9387383"
       style="fill:#000000;fill-opacity:1;stroke:#000000;stroke-width:0.1;stroke-dasharray:none;stroke-opacity:0.97667962;-inkscape-font-specification:'serif, Normal';font-family:serif;font-weight:normal;font-style:normal;font-stretch:normal;font-variant:normal;font-size:4.34989044px;font-variant-ligatures:normal;font-variant-caps:normal;font-variant-numeric:normal;font-variant-east-asian:normal">Caug7</tspan></text>
  <metadata
     id="metadata1817">
    <rdf:RDF>
      <cc:Work
         rdf:about="">
        <dc:title>Без названия</dc:title>
        <cc:license
           rdf:resource="http://creativecommons.org/licenses/by-sa/4.0/" />
      </cc:Work>
      <cc:License
         rdf:about="http://creativecommons.org/licenses/by-sa/4.0/">
        <cc:permits
           rdf:resource="http://creativecommons.org/ns#Reproduction" />
        <cc:permits
           rdf:resource="http://creativecommons.org/ns#Distribution" />
        <cc:requires
           rdf:resource="http://creativecommons.org/ns#Notice" />
        <cc:requires
           rdf:resource="http://creativecommons.org/ns#Attribution" />
        <cc:permits
           rdf:resource="http://creativecommons.org/ns#DerivativeWorks" />
        <cc:requires
           rdf:resource="http://creativecommons.org/ns#ShareAlike" />
      </cc:License>
    </rdf:RDF>
  </metadata>
</svg>
