<?xml version="1.0" encoding="UTF-8" standalone="no"?>
<svg width="2977.2px" height="4208.4px" viewBox="0 0 2977.2 4208.4"
 xmlns="http://www.w3.org/2000/svg" xmlns:xlink="http://www.w3.org/1999/xlink" version="1.2" baseProfile="tiny">
<title>Без названия</title>
<desc>Generated by MuseScore 3.6.2</desc>
<polyline class="StaffLines" fill="none" stroke="#000000" stroke-width="2.73" stroke-linejoin="bevel" points="336.598,634.198 2763.78,634.198"/>
<polyline class="StaffLines" fill="none" stroke="#000000" stroke-width="2.73" stroke-linejoin="bevel" points="336.598,658.998 2763.78,658.998"/>
<polyline class="StaffLines" fill="none" stroke="#000000" stroke-width="2.73" stroke-linejoin="bevel" points="336.598,683.798 2763.78,683.798"/>
<polyline class="StaffLines" fill="none" stroke="#000000" stroke-width="2.73" stroke-linejoin="bevel" points="336.598,708.598 2763.78,708.598"/>
<polyline class="StaffLines" fill="none" stroke="#000000" stroke-width="2.73" stroke-linejoin="bevel" points="336.598,733.398 2763.78,733.398"/>
<polyline class="StaffLines" fill="none" stroke="#000000" stroke-width="2.73" stroke-linejoin="bevel" points="212.598,1069.57 2763.78,1069.57"/>
<polyline class="StaffLines" fill="none" stroke="#000000" stroke-width="2.73" stroke-linejoin="bevel" points="212.598,1094.37 2763.78,1094.37"/>
<polyline class="StaffLines" fill="none" stroke="#000000" stroke-width="2.73" stroke-linejoin="bevel" points="212.598,1119.17 2763.78,1119.17"/>
<polyline class="StaffLines" fill="none" stroke="#000000" stroke-width="2.73" stroke-linejoin="bevel" points="212.598,1143.97 2763.78,1143.97"/>
<polyline class="StaffLines" fill="none" stroke="#000000" stroke-width="2.73" stroke-linejoin="bevel" points="212.598,1168.77 2763.78,1168.77"/>
<polyline class="StaffLines" fill="none" stroke="#000000" stroke-width="2.73" stroke-linejoin="bevel" points="212.598,1504.94 2763.78,1504.94"/>
<polyline class="StaffLines" fill="none" stroke="#000000" stroke-width="2.73" stroke-linejoin="bevel" points="212.598,1529.74 2763.78,1529.74"/>
<polyline class="StaffLines" fill="none" stroke="#000000" stroke-width="2.73" stroke-linejoin="bevel" points="212.598,1554.54 2763.78,1554.54"/>
<polyline class="StaffLines" fill="none" stroke="#000000" stroke-width="2.73" stroke-linejoin="bevel" points="212.598,1579.34 2763.78,1579.34"/>
<polyline class="StaffLines" fill="none" stroke="#000000" stroke-width="2.73" stroke-linejoin="bevel" points="212.598,1604.14 2763.78,1604.14"/>
<polyline class="StaffLines" fill="none" stroke="#000000" stroke-width="2.73" stroke-linejoin="bevel" points="212.598,1940.31 2763.78,1940.31"/>
<polyline class="StaffLines" fill="none" stroke="#000000" stroke-width="2.73" stroke-linejoin="bevel" points="212.598,1965.11 2763.78,1965.11"/>
<polyline class="StaffLines" fill="none" stroke="#000000" stroke-width="2.73" stroke-linejoin="bevel" points="212.598,1989.91 2763.78,1989.91"/>
<polyline class="StaffLines" fill="none" stroke="#000000" stroke-width="2.73" stroke-linejoin="bevel" points="212.598,2014.71 2763.78,2014.71"/>
<polyline class="StaffLines" fill="none" stroke="#000000" stroke-width="2.73" stroke-linejoin="bevel" points="212.598,2039.51 2763.78,2039.51"/>
<polyline class="StaffLines" fill="none" stroke="#000000" stroke-width="2.73" stroke-linejoin="bevel" points="212.598,2375.69 2763.78,2375.69"/>
<polyline class="StaffLines" fill="none" stroke="#000000" stroke-width="2.73" stroke-linejoin="bevel" points="212.598,2400.49 2763.78,2400.49"/>
<polyline class="StaffLines" fill="none" stroke="#000000" stroke-width="2.73" stroke-linejoin="bevel" points="212.598,2425.29 2763.78,2425.29"/>
<polyline class="StaffLines" fill="none" stroke="#000000" stroke-width="2.73" stroke-linejoin="bevel" points="212.598,2450.09 2763.78,2450.09"/>
<polyline class="StaffLines" fill="none" stroke="#000000" stroke-width="2.73" stroke-linejoin="bevel" points="212.598,2474.89 2763.78,2474.89"/>
<polyline class="StaffLines" fill="none" stroke="#000000" stroke-width="2.73" stroke-linejoin="bevel" points="212.598,2811.06 2763.78,2811.06"/>
<polyline class="StaffLines" fill="none" stroke="#000000" stroke-width="2.73" stroke-linejoin="bevel" points="212.598,2835.86 2763.78,2835.86"/>
<polyline class="StaffLines" fill="none" stroke="#000000" stroke-width="2.73" stroke-linejoin="bevel" points="212.598,2860.66 2763.78,2860.66"/>
<polyline class="StaffLines" fill="none" stroke="#000000" stroke-width="2.73" stroke-linejoin="bevel" points="212.598,2885.46 2763.78,2885.46"/>
<polyline class="StaffLines" fill="none" stroke="#000000" stroke-width="2.73" stroke-linejoin="bevel" points="212.598,2910.26 2763.78,2910.26"/>
<polyline class="StaffLines" fill="none" stroke="#000000" stroke-width="2.73" stroke-linejoin="bevel" points="212.598,3246.43 2763.78,3246.43"/>
<polyline class="StaffLines" fill="none" stroke="#000000" stroke-width="2.73" stroke-linejoin="bevel" points="212.598,3271.23 2763.78,3271.23"/>
<polyline class="StaffLines" fill="none" stroke="#000000" stroke-width="2.73" stroke-linejoin="bevel" points="212.598,3296.03 2763.78,3296.03"/>
<polyline class="StaffLines" fill="none" stroke="#000000" stroke-width="2.73" stroke-linejoin="bevel" points="212.598,3320.83 2763.78,3320.83"/>
<polyline class="StaffLines" fill="none" stroke="#000000" stroke-width="2.73" stroke-linejoin="bevel" points="212.598,3345.63 2763.78,3345.63"/>
<polyline class="StaffLines" fill="none" stroke="#000000" stroke-width="2.73" stroke-linejoin="bevel" points="212.598,3681.8 1514.28,3681.8"/>
<polyline class="StaffLines" fill="none" stroke="#000000" stroke-width="2.73" stroke-linejoin="bevel" points="212.598,3706.6 1514.28,3706.6"/>
<polyline class="StaffLines" fill="none" stroke="#000000" stroke-width="2.73" stroke-linejoin="bevel" points="212.598,3731.4 1514.28,3731.4"/>
<polyline class="StaffLines" fill="none" stroke="#000000" stroke-width="2.73" stroke-linejoin="bevel" points="212.598,3756.2 1514.28,3756.2"/>
<polyline class="StaffLines" fill="none" stroke="#000000" stroke-width="2.73" stroke-linejoin="bevel" points="212.598,3781 1514.28,3781"/>
<path class="Text" d="M1437.8,215.177 L1371.91,215.177 L1370.27,245.755 L1374.99,245.755 C1375.77,240.255 1376.65,236.083 1377.97,232.552 C1380.83,224.411 1386.11,220.348 1393.58,220.348 C1397.22,220.348 1398.75,221.552 1398.75,224.302 L1398.75,281.067 C1398.75,286.677 1398.75,286.895 1398.1,287.895 C1397.22,288.989 1395.13,289.427 1388.86,289.427 L1385.99,289.427 L1385.99,294.598 L1423.72,294.598 L1423.72,289.427 L1420.86,289.427 C1414.71,289.427 1412.61,288.989 1411.74,287.895 C1411.08,286.895 1411.08,286.677 1411.08,281.067 L1411.08,224.302 C1411.08,221.552 1412.61,220.348 1416.24,220.348 C1422.96,220.348 1428.35,224.083 1431.1,230.692 C1432.75,234.755 1433.85,239.489 1434.72,245.755 L1439.46,245.755 L1437.8,215.177 M1466.4,243.333 L1445.72,244.552 L1445.72,249.286 L1451.33,249.286 C1455.5,249.395 1456.05,250.052 1456.05,254.786 L1456.05,281.067 L1456.05,286.239 C1455.94,287.895 1455.83,288.552 1455.4,289.098 C1454.63,290.083 1452.54,290.536 1447.8,290.645 L1447.04,290.645 L1447.04,294.598 L1475.54,294.598 L1475.54,290.645 L1474.75,290.645 C1467.4,290.411 1466.4,289.864 1466.4,285.911 L1466.4,281.067 L1466.4,243.333 M1461.22,215.942 C1457.71,215.942 1454.85,218.802 1454.85,222.333 C1454.85,225.848 1457.71,228.708 1461.11,228.708 C1464.75,228.708 1467.61,225.848 1467.61,222.333 C1467.61,218.802 1464.75,215.942 1461.22,215.942 M1499.72,243.333 L1499.72,221.552 L1495.21,221.552 C1494.11,235.864 1489.27,243.114 1480.36,243.786 L1480.36,248.067 L1489.38,248.067 L1489.38,276.114 C1489.38,283.817 1489.6,286.567 1490.69,289.098 C1492.46,293.723 1496.86,296.255 1503.24,296.255 C1513.15,296.255 1519.52,288.77 1519.52,277.114 C1519.52,276.442 1519.52,275.677 1519.41,274.583 L1514.79,274.583 C1514.46,284.473 1511.6,289.536 1506.21,289.536 C1503.68,289.536 1501.47,288.223 1500.71,286.348 C1500.05,284.802 1499.72,282.052 1499.72,278.098 L1499.72,248.067 L1515.9,248.067 L1515.9,243.333 L1499.72,243.333 M1543.6,213.52 L1523.25,214.739 L1523.25,219.473 L1528.65,219.473 C1532.71,219.583 1533.25,220.239 1533.25,224.973 L1533.25,281.067 L1533.25,286.239 C1533.15,287.895 1533.04,288.552 1532.6,289.098 C1531.83,290.083 1529.74,290.536 1525,290.645 L1524.24,290.645 L1524.24,294.598 L1552.72,294.598 L1552.72,290.645 L1551.96,290.645 C1544.6,290.411 1543.6,289.864 1543.6,285.911 L1543.6,281.067 L1543.6,213.52 M1606.96,269.848 C1607.07,253.348 1597.71,241.692 1584.29,241.692 C1570.21,241.692 1559.65,253.895 1559.65,270.395 C1559.65,285.911 1569.66,296.255 1584.5,296.255 C1595.07,296.255 1602.44,291.083 1606.96,280.63 L1603.1,278.536 C1598.6,287.005 1593.97,290.302 1586.6,290.302 C1580.99,290.302 1576.93,288.005 1574.07,283.052 C1572.08,279.755 1571.21,275.895 1571.32,269.848 L1606.96,269.848 M1571.43,265.114 C1571.43,261.708 1571.86,259.286 1572.96,256.208 C1575.27,249.614 1578.79,246.411 1584.18,246.411 C1590.79,246.411 1595.18,252.255 1595.18,261.161 C1595.18,264.239 1594.19,265.114 1590.68,265.114 L1571.43,265.114 "/>
<path class="Text" d="M2566.72,413.145 L2564.82,413.145 L2562.82,416.098 C2559.18,413.442 2557.32,412.739 2553.86,412.739 C2549.11,412.739 2545.07,414.739 2541.72,418.739 C2538.52,422.552 2537.02,426.755 2537.02,431.895 C2537.02,442.692 2544.07,450.348 2553.93,450.348 C2561.93,450.348 2567.02,445.645 2568.18,437.255 L2565.82,436.848 C2564.47,444.302 2560.68,448.005 2554.52,448.005 C2547.11,448.005 2543.61,442.895 2543.61,432.098 C2543.61,426.395 2544.36,422.645 2546.07,419.645 C2547.61,416.848 2550.68,415.098 2553.93,415.098 C2557.43,415.098 2560.52,416.942 2562.43,420.145 C2563.38,421.802 2564.07,423.645 2565.27,427.598 L2567.47,427.598 L2566.72,413.145 M2583.25,425.552 C2577.11,425.552 2572.36,431.005 2572.36,438.005 C2572.36,444.848 2577.16,450.348 2583.16,450.348 C2589.16,450.348 2593.96,444.848 2593.96,437.942 C2593.96,431.098 2589.16,425.552 2583.25,425.552 M2583.25,427.692 C2586.75,427.692 2588.71,431.348 2588.71,437.942 C2588.71,444.598 2586.75,448.192 2583.16,448.192 C2579.57,448.192 2577.61,444.598 2577.61,438.005 C2577.61,431.192 2579.5,427.692 2583.25,427.692 M2605.69,426.302 L2596.8,426.848 L2596.8,429.005 L2598.85,429.005 C2600.74,429.052 2600.99,429.348 2600.99,431.505 L2600.99,443.442 L2600.99,445.395 L2600.99,445.802 C2600.94,446.552 2600.9,446.848 2600.69,447.098 C2600.35,447.552 2599.4,447.755 2597.24,447.802 L2597.05,447.802 L2597.05,449.598 L2609.65,449.598 L2609.65,447.802 L2609.44,447.802 C2606.15,447.692 2605.69,447.442 2605.69,445.598 L2605.69,443.442 L2605.69,436.348 C2605.69,431.895 2608.15,428.598 2611.4,428.598 C2614.24,428.598 2615.69,430.645 2615.69,434.692 L2615.69,443.442 L2615.69,445.848 C2615.65,446.505 2615.6,446.848 2615.35,447.098 C2615.05,447.552 2614.05,447.755 2611.9,447.802 L2611.69,447.802 L2611.69,449.598 L2624.35,449.598 L2624.35,447.802 L2624.15,447.802 C2620.85,447.692 2620.4,447.442 2620.4,445.645 L2620.4,443.442 L2620.4,436.802 C2620.4,431.802 2622.65,428.598 2626.15,428.598 C2629,428.598 2630.4,430.755 2630.4,435.255 L2630.4,443.442 L2630.4,445.802 C2630.35,446.505 2630.3,446.848 2630.05,447.098 C2629.75,447.552 2628.75,447.755 2626.6,447.802 L2626.4,447.802 L2626.4,449.598 L2639.05,449.598 L2639.05,447.802 L2638.85,447.802 C2635.55,447.692 2635.1,447.442 2635.1,445.598 L2635.1,443.442 L2635.1,434.255 C2635.1,431.145 2634.8,430.098 2633.5,428.395 C2632.05,426.552 2630,425.552 2627.6,425.552 C2624.35,425.552 2621.94,427.098 2619.8,430.552 C2618.94,427.552 2616.24,425.552 2612.9,425.552 C2609.85,425.552 2607.65,427.005 2605.69,430.145 L2605.69,426.302 M2648.63,426.302 L2639.99,426.848 L2639.99,429.005 L2641.79,429.005 C2643.68,429.052 2643.93,429.348 2643.93,431.505 L2643.93,453.552 L2643.93,455.942 C2643.88,456.645 2643.83,456.942 2643.63,457.192 C2643.29,457.645 2642.33,457.848 2640.18,457.895 L2639.99,457.895 L2639.99,459.692 L2652.99,459.692 L2652.99,457.895 L2652.43,457.895 C2649.08,457.802 2648.63,457.552 2648.63,455.755 L2648.63,453.552 L2648.63,446.302 C2650.29,449.192 2652.13,450.348 2655.24,450.348 C2658.29,450.348 2660.79,449.052 2662.58,446.598 C2664.33,444.192 2665.33,441.098 2665.33,437.848 C2665.33,434.598 2664.33,431.552 2662.49,429.145 C2660.63,426.755 2658.33,425.552 2655.54,425.552 C2652.43,425.552 2650.38,426.848 2648.63,429.848 L2648.63,426.302 M2654.63,428.255 C2658.08,428.255 2660.08,431.692 2660.08,437.552 C2660.08,444.005 2658.08,447.645 2654.49,447.645 C2650.88,447.645 2648.58,443.942 2648.58,438.192 C2648.58,431.942 2650.83,428.255 2654.63,428.255 M2679.86,425.552 C2673.72,425.552 2668.97,431.005 2668.97,438.005 C2668.97,444.848 2673.77,450.348 2679.77,450.348 C2685.77,450.348 2690.57,444.848 2690.57,437.942 C2690.57,431.098 2685.77,425.552 2679.86,425.552 M2679.86,427.692 C2683.36,427.692 2685.32,431.348 2685.32,437.942 C2685.32,444.598 2683.36,448.192 2679.77,448.192 C2676.18,448.192 2674.22,444.598 2674.22,438.005 C2674.22,431.192 2676.11,427.692 2679.86,427.692 M2711.75,425.755 L2710,425.755 L2708.55,427.552 C2706.75,426.145 2704.96,425.552 2702.46,425.552 C2698.05,425.552 2695.16,428.395 2695.16,432.802 C2695.16,434.755 2695.8,436.395 2696.91,437.395 C2698.05,438.442 2699.21,438.942 2702.21,439.645 L2704.85,440.255 C2708.8,441.192 2710.21,442.192 2710.21,444.192 C2710.21,446.552 2708.16,448.192 2705.25,448.192 C2701,448.192 2698,445.505 2696.8,440.505 L2694.8,440.505 L2694.8,449.942 L2696.55,449.942 L2698.3,447.895 C2700.35,449.552 2702.6,450.348 2705.16,450.348 C2710.05,450.348 2713.3,447.302 2713.3,442.645 C2713.3,440.442 2712.6,438.755 2711.21,437.598 C2710,436.552 2709,436.145 2705.96,435.505 L2703.46,434.942 C2700.71,434.348 2700.71,434.348 2699.8,433.848 C2698.71,433.348 2698.05,432.302 2698.05,431.192 C2698.05,429.145 2699.96,427.755 2702.71,427.755 C2704.6,427.755 2706.16,428.395 2707.55,429.755 C2708.66,430.848 2709.21,431.848 2710,434.145 L2711.75,434.145 L2711.75,425.755 M2738.65,438.348 C2738.69,430.848 2734.44,425.552 2728.35,425.552 C2721.94,425.552 2717.15,431.098 2717.15,438.598 C2717.15,445.645 2721.69,450.348 2728.44,450.348 C2733.24,450.348 2736.6,448.005 2738.65,443.255 L2736.9,442.302 C2734.85,446.145 2732.74,447.645 2729.4,447.645 C2726.85,447.645 2724.99,446.598 2723.69,444.348 C2722.8,442.848 2722.4,441.098 2722.44,438.348 L2738.65,438.348 M2722.49,436.192 C2722.49,434.645 2722.69,433.552 2723.19,432.145 C2724.24,429.145 2725.85,427.692 2728.3,427.692 C2731.3,427.692 2733.3,430.348 2733.3,434.395 C2733.3,435.802 2732.85,436.192 2731.24,436.192 L2722.49,436.192 M2750.29,426.302 L2741.43,426.848 L2741.43,429.005 L2743.47,429.005 C2745.38,429.052 2745.63,429.348 2745.63,431.505 L2745.63,443.442 L2745.63,445.802 C2745.58,446.552 2745.54,446.848 2745.33,447.098 C2744.97,447.552 2743.97,447.755 2741.83,447.802 L2741.63,447.802 L2741.63,449.598 L2754.97,449.598 L2754.97,447.802 L2754.08,447.802 C2750.72,447.692 2750.29,447.442 2750.29,445.645 L2750.29,443.442 L2750.29,442.942 C2750.33,434.552 2753.33,428.145 2757.22,427.942 C2756.54,428.755 2756.33,429.255 2756.33,430.192 C2756.33,431.802 2757.47,432.942 2759.08,432.942 C2760.93,432.942 2762.13,431.598 2762.13,429.598 C2762.13,427.145 2760.43,425.552 2757.79,425.552 C2754.63,425.552 2751.93,428.052 2750.29,432.505 L2750.29,426.302 "/>
<path class="MeasureNumber" d="M217.083,1004.66 C215.833,1005.41 215.473,1005.89 215.473,1006.69 C215.473,1007.45 216.114,1008.02 216.911,1008.02 C217.958,1008.02 218.552,1007.25 218.677,1005.77 C219.911,1004.77 221.239,1004.33 222.833,1004.33 C225.802,1004.33 227.442,1006.17 227.442,1009.49 C227.442,1014.69 224.083,1018.92 219.958,1018.92 C217.598,1018.92 215.677,1017.81 215.677,1016.49 C215.677,1016.25 215.723,1016.17 215.911,1016.05 C216.958,1015.56 216.958,1015.56 217.239,1015.38 C217.88,1014.89 218.239,1014.17 218.239,1013.33 C218.239,1012.05 217.239,1011.1 215.833,1011.1 C214.083,1011.1 212.755,1012.56 212.755,1014.49 C212.755,1018.02 215.802,1020.56 220.083,1020.56 C226.552,1020.56 231.802,1015.41 231.802,1009.02 C231.802,1004.97 228.723,1002.13 224.364,1002.13 C222.63,1002.13 221.239,1002.49 219.317,1003.45 L221.552,995.892 C223.677,996.33 225.364,996.533 226.802,996.533 C229.442,996.533 231.802,995.689 233.114,994.298 C233.802,993.502 234.192,992.814 234.192,992.298 C234.192,992.048 234.067,991.814 233.911,991.814 C233.802,991.814 233.708,991.861 233.473,991.97 C232.161,992.611 230.473,992.97 228.911,992.97 C226.52,992.97 223.677,992.58 220.723,991.814 L217.083,1004.66 "/>
<path class="MeasureNumber" d="M228.317,1441.67 C227.63,1444.83 226.911,1446.75 225.755,1448.98 C223.802,1452.62 221.723,1454.26 218.911,1454.26 C217.755,1454.26 217.005,1453.78 217.005,1453.06 C217.005,1452.78 217.083,1452.67 217.395,1452.19 C217.802,1451.67 218.005,1451.19 218.005,1450.62 C218.005,1449.31 216.958,1448.31 215.598,1448.31 C214.005,1448.31 212.88,1449.5 212.88,1451.26 C212.88,1453.98 215.442,1455.94 219.005,1455.94 C222.192,1455.94 225.161,1454.55 227.598,1451.75 C231.083,1447.86 233.348,1442.06 233.348,1437.14 C233.348,1430.9 230.348,1427.19 225.395,1427.19 C222.442,1427.19 219.677,1428.51 217.833,1430.78 C216.036,1432.98 215.005,1435.78 215.005,1438.39 C215.005,1442.19 217.911,1445.06 221.802,1445.06 C224.442,1445.06 226.473,1443.98 228.317,1441.67 M225.364,1428.87 C227.911,1428.87 229.552,1430.9 229.552,1434.11 C229.552,1439.06 226.833,1442.7 223.161,1442.7 C220.63,1442.7 219.239,1440.98 219.239,1437.98 C219.239,1435.62 219.802,1433.5 220.88,1431.7 C222.083,1429.78 223.52,1428.87 225.364,1428.87"/>
<path class="MeasureNumber" d="M229.958,1862.4 L228.802,1862.4 C226.598,1864.04 222.364,1865.43 219.473,1865.43 L219.005,1867.2 L221.755,1867.2 C224.192,1867.2 224.473,1867.28 224.473,1868 C224.473,1868.35 224.473,1868.35 224.083,1869.79 L219.802,1885.79 C219.27,1887.79 219.239,1887.92 218.88,1888.28 C218.473,1888.67 217.63,1888.79 215.52,1888.84 L213.802,1888.84 L213.598,1890.71 L228.395,1890.71 L228.63,1888.84 L226.473,1888.84 C223.88,1888.84 223.317,1888.64 223.317,1887.76 C223.317,1887.48 223.473,1886.56 223.677,1885.79 L229.958,1862.4 M247.427,1876.15 C249.317,1875.56 250.067,1875.23 251.036,1874.59 C252.911,1873.35 254.067,1871.15 254.067,1868.92 C254.067,1865.12 251.036,1862.56 246.552,1862.56 C242.192,1862.56 238.505,1865.28 238.505,1868.56 C238.505,1870.2 239.505,1871.32 241.036,1871.32 C242.348,1871.32 243.317,1870.35 243.317,1869.04 C243.317,1868.35 243.114,1867.87 242.473,1867.25 C242.067,1866.87 241.911,1866.6 241.911,1866.32 C241.911,1865.35 243.911,1864.35 245.786,1864.35 C248.473,1864.35 250.067,1865.84 250.067,1868.32 C250.067,1871.87 247.552,1875.23 244.864,1875.23 C244.755,1875.23 244.395,1875.2 243.958,1875.15 C242.786,1875.07 242.786,1875.07 242.552,1875.07 C241.677,1875.07 241.192,1875.48 241.192,1876.2 C241.192,1876.84 241.63,1877.23 242.348,1877.23 C242.552,1877.23 242.833,1877.2 243.145,1877.15 C243.708,1877.04 244.317,1877 244.677,1877 C246.552,1877 247.833,1878.68 247.833,1881.15 C247.833,1883.07 247.395,1884.92 246.505,1886.43 C245.317,1888.59 243.473,1889.64 240.864,1889.64 C238.63,1889.64 236.708,1888.51 236.708,1887.23 C236.708,1886.79 236.88,1886.64 237.505,1886.35 C238.677,1885.84 239.145,1885.12 239.145,1884.04 C239.145,1882.64 238.036,1881.56 236.598,1881.56 C234.88,1881.56 233.755,1882.92 233.755,1885 C233.755,1888.87 236.708,1891.31 241.505,1891.31 C247.552,1891.31 252.145,1887.28 252.145,1881.92 C252.145,1880.48 251.708,1879.23 250.864,1878.23 C249.989,1877.2 249.192,1876.71 247.427,1876.15"/>
<path class="MeasureNumber" d="M229.958,2297.77 L228.802,2297.77 C226.598,2299.41 222.364,2300.8 219.473,2300.8 L219.005,2302.57 L221.755,2302.57 C224.192,2302.57 224.473,2302.65 224.473,2303.37 C224.473,2303.73 224.473,2303.73 224.083,2305.16 L219.802,2321.16 C219.27,2323.16 219.239,2323.29 218.88,2323.65 C218.473,2324.04 217.63,2324.16 215.52,2324.21 L213.802,2324.21 L213.598,2326.09 L228.395,2326.09 L228.63,2324.21 L226.473,2324.21 C223.88,2324.21 223.317,2324.01 223.317,2323.13 C223.317,2322.85 223.473,2321.93 223.677,2321.16 L229.958,2297.77 M256.27,2297.93 C254.145,2298.16 251.552,2298.34 249.317,2298.34 C248.192,2298.34 246.911,2298.29 245.473,2298.21 C244.145,2298.13 242.833,2298.05 241.473,2297.98 L240.473,2297.93 L236.598,2306.37 L238.067,2306.85 L239.036,2305.24 C240.911,2302.13 241.786,2301.7 245.864,2301.73 L252.63,2301.73 L248.27,2307.98 C243.145,2315.16 243.145,2315.16 241.192,2318.37 C239.427,2321.21 238.708,2322.96 238.708,2324.4 C238.708,2325.8 239.598,2326.68 240.989,2326.68 C242.473,2326.68 243.223,2325.96 243.755,2324.09 C245.755,2316.57 246.958,2313.96 252.505,2304.98 L256.27,2299.13 L256.27,2297.93 "/>
<path class="MeasureNumber" d="M231.989,2753.18 L230.958,2755.02 C229.348,2757.79 229.036,2758.02 226.989,2758.05 L217.723,2758.05 C218.677,2756.79 220.442,2755.3 223.63,2753.05 C228.911,2749.43 229.27,2749.18 230.395,2748.3 C233.598,2745.82 234.911,2743.46 234.911,2740.3 C234.911,2736.1 231.802,2733.3 227.192,2733.3 C222.083,2733.3 217.645,2737.07 217.645,2741.43 C217.645,2743.66 218.833,2745.1 220.755,2745.1 C222.192,2745.1 223.317,2744.02 223.317,2742.54 C223.317,2741.5 222.802,2740.82 221.473,2740.1 C220.52,2739.61 220.364,2739.43 220.364,2738.94 C220.364,2737.22 223.317,2735.3 226.036,2735.3 C228.833,2735.3 230.723,2737.18 230.723,2739.99 C230.723,2742.97 229.395,2745.18 225.802,2748.3 C215.161,2757.54 213.552,2759.22 213.192,2761.46 L230.348,2761.46 L233.442,2753.74 L231.989,2753.18 M255.192,2733.15 L254.036,2733.15 C251.833,2734.79 247.598,2736.18 244.708,2736.18 L244.239,2737.94 L246.989,2737.94 C249.427,2737.94 249.708,2738.02 249.708,2738.74 C249.708,2739.1 249.708,2739.1 249.317,2740.54 L245.036,2756.54 C244.505,2758.54 244.473,2758.66 244.114,2759.02 C243.708,2759.41 242.864,2759.54 240.755,2759.58 L239.036,2759.58 L238.833,2761.46 L253.63,2761.46 L253.864,2759.58 L251.708,2759.58 C249.114,2759.58 248.552,2759.38 248.552,2758.5 C248.552,2758.22 248.708,2757.3 248.911,2756.54 L255.192,2733.15 "/>
<path class="MeasureNumber" d="M231.989,3188.55 L230.958,3190.39 C229.348,3193.16 229.036,3193.39 226.989,3193.42 L217.723,3193.42 C218.677,3192.16 220.442,3190.67 223.63,3188.42 C228.911,3184.8 229.27,3184.55 230.395,3183.67 C233.598,3181.19 234.911,3178.83 234.911,3175.67 C234.911,3171.47 231.802,3168.67 227.192,3168.67 C222.083,3168.67 217.645,3172.44 217.645,3176.8 C217.645,3179.03 218.833,3180.47 220.755,3180.47 C222.192,3180.47 223.317,3179.39 223.317,3177.91 C223.317,3176.88 222.802,3176.19 221.473,3175.47 C220.52,3174.99 220.364,3174.8 220.364,3174.31 C220.364,3172.6 223.317,3170.67 226.036,3170.67 C228.833,3170.67 230.723,3172.55 230.723,3175.36 C230.723,3178.35 229.395,3180.55 225.802,3183.67 C215.161,3192.91 213.552,3194.6 213.192,3196.83 L230.348,3196.83 L233.442,3189.11 L231.989,3188.55 M241.317,3181.52 C240.067,3182.27 239.708,3182.75 239.708,3183.55 C239.708,3184.31 240.348,3184.88 241.145,3184.88 C242.192,3184.88 242.786,3184.11 242.911,3182.63 C244.145,3181.63 245.473,3181.19 247.067,3181.19 C250.036,3181.19 251.677,3183.03 251.677,3186.35 C251.677,3191.55 248.317,3195.78 244.192,3195.78 C241.833,3195.78 239.911,3194.67 239.911,3193.35 C239.911,3193.11 239.958,3193.03 240.145,3192.91 C241.192,3192.42 241.192,3192.42 241.473,3192.24 C242.114,3191.75 242.473,3191.03 242.473,3190.19 C242.473,3188.91 241.473,3187.95 240.067,3187.95 C238.317,3187.95 236.989,3189.42 236.989,3191.35 C236.989,3194.88 240.036,3197.42 244.317,3197.42 C250.786,3197.42 256.036,3192.27 256.036,3185.88 C256.036,3181.83 252.958,3178.99 248.598,3178.99 C246.864,3178.99 245.473,3179.35 243.552,3180.31 L245.786,3172.75 C247.911,3173.19 249.598,3173.39 251.036,3173.39 C253.677,3173.39 256.036,3172.55 257.348,3171.16 C258.036,3170.36 258.427,3169.67 258.427,3169.16 C258.427,3168.91 258.302,3168.67 258.145,3168.67 C258.036,3168.67 257.942,3168.72 257.708,3168.83 C256.395,3169.47 254.708,3169.83 253.145,3169.83 C250.755,3169.83 247.911,3169.44 244.958,3168.67 L241.317,3181.52 "/>
<path class="MeasureNumber" d="M231.989,3623.92 L230.958,3625.76 C229.348,3628.53 229.036,3628.76 226.989,3628.8 L217.723,3628.8 C218.677,3627.53 220.442,3626.05 223.63,3623.8 C228.911,3620.17 229.27,3619.92 230.395,3619.05 C233.598,3616.56 234.911,3614.2 234.911,3611.05 C234.911,3606.84 231.802,3604.05 227.192,3604.05 C222.083,3604.05 217.645,3607.81 217.645,3612.17 C217.645,3614.4 218.833,3615.84 220.755,3615.84 C222.192,3615.84 223.317,3614.76 223.317,3613.28 C223.317,3612.25 222.802,3611.56 221.473,3610.84 C220.52,3610.36 220.364,3610.17 220.364,3609.69 C220.364,3607.97 223.317,3606.05 226.036,3606.05 C228.833,3606.05 230.723,3607.92 230.723,3610.73 C230.723,3613.72 229.395,3615.92 225.802,3619.05 C215.161,3628.28 213.552,3629.97 213.192,3632.2 L230.348,3632.2 L233.442,3624.48 L231.989,3623.92 M252.552,3618.53 C251.864,3621.69 251.145,3623.61 249.989,3625.84 C248.036,3629.48 245.958,3631.12 243.145,3631.12 C241.989,3631.12 241.239,3630.64 241.239,3629.92 C241.239,3629.64 241.317,3629.53 241.63,3629.05 C242.036,3628.53 242.239,3628.05 242.239,3627.48 C242.239,3626.17 241.192,3625.17 239.833,3625.17 C238.239,3625.17 237.114,3626.36 237.114,3628.12 C237.114,3630.84 239.677,3632.8 243.239,3632.8 C246.427,3632.8 249.395,3631.4 251.833,3628.61 C255.317,3624.72 257.583,3618.92 257.583,3614 C257.583,3607.76 254.583,3604.05 249.63,3604.05 C246.677,3604.05 243.911,3605.37 242.067,3607.64 C240.27,3609.84 239.239,3612.64 239.239,3615.25 C239.239,3619.05 242.145,3621.92 246.036,3621.92 C248.677,3621.92 250.708,3620.84 252.552,3618.53 M249.598,3605.73 C252.145,3605.73 253.786,3607.76 253.786,3610.97 C253.786,3615.92 251.067,3619.56 247.395,3619.56 C244.864,3619.56 243.473,3617.84 243.473,3614.84 C243.473,3612.48 244.036,3610.36 245.114,3608.56 C246.317,3606.64 247.755,3605.73 249.598,3605.73"/>
<polyline class="BarLine" fill="none" stroke="#000000" stroke-width="4.46" stroke-linejoin="bevel" points="1155.08,632.834 1155.08,734.762"/>
<polyline class="BarLine" fill="none" stroke="#000000" stroke-width="4.46" stroke-linejoin="bevel" points="1767.92,632.834 1767.92,734.762"/>
<polyline class="BarLine" fill="none" stroke="#000000" stroke-width="4.46" stroke-linejoin="bevel" points="2264.74,632.834 2264.74,734.762"/>
<polyline class="BarLine" fill="none" stroke="#000000" stroke-width="4.46" stroke-linejoin="bevel" points="2761.55,632.834 2761.55,734.762"/>
<polyline class="BarLine" fill="none" stroke="#000000" stroke-width="4.46" stroke-linejoin="bevel" points="919.568,1068.21 919.568,1170.13"/>
<polyline class="BarLine" fill="none" stroke="#000000" stroke-width="4.46" stroke-linejoin="bevel" points="1533.56,1068.21 1533.56,1170.13"/>
<polyline class="BarLine" fill="none" stroke="#000000" stroke-width="4.46" stroke-linejoin="bevel" points="2147.55,1068.21 2147.55,1170.13"/>
<polyline class="BarLine" fill="none" stroke="#000000" stroke-width="4.46" stroke-linejoin="bevel" points="2761.55,1068.21 2761.55,1170.13"/>
<polyline class="BarLine" fill="none" stroke="#000000" stroke-width="4.46" stroke-linejoin="bevel" points="919.568,1503.58 919.568,1605.51"/>
<polyline class="BarLine" fill="none" stroke="#000000" stroke-width="4.46" stroke-linejoin="bevel" points="1533.56,1503.58 1533.56,1605.51"/>
<polyline class="BarLine" fill="none" stroke="#000000" stroke-width="4.46" stroke-linejoin="bevel" points="2147.55,1503.58 2147.55,1605.51"/>
<polyline class="BarLine" fill="none" stroke="#000000" stroke-width="4.46" stroke-linejoin="bevel" points="2761.55,1503.58 2761.55,1605.51"/>
<polyline class="BarLine" fill="none" stroke="#000000" stroke-width="4.46" stroke-linejoin="bevel" points="919.568,1938.95 919.568,2040.88"/>
<polyline class="BarLine" fill="none" stroke="#000000" stroke-width="4.46" stroke-linejoin="bevel" points="1533.56,1938.95 1533.56,2040.88"/>
<polyline class="BarLine" fill="none" stroke="#000000" stroke-width="4.46" stroke-linejoin="bevel" points="2147.55,1938.95 2147.55,2040.88"/>
<polyline class="BarLine" fill="none" stroke="#000000" stroke-width="4.46" stroke-linejoin="bevel" points="2761.55,1938.95 2761.55,2040.88"/>
<polyline class="BarLine" fill="none" stroke="#000000" stroke-width="4.46" stroke-linejoin="bevel" points="919.568,2374.32 919.568,2476.25"/>
<polyline class="BarLine" fill="none" stroke="#000000" stroke-width="4.46" stroke-linejoin="bevel" points="1533.56,2374.32 1533.56,2476.25"/>
<polyline class="BarLine" fill="none" stroke="#000000" stroke-width="4.46" stroke-linejoin="bevel" points="2147.55,2374.32 2147.55,2476.25"/>
<polyline class="BarLine" fill="none" stroke="#000000" stroke-width="4.46" stroke-linejoin="bevel" points="2761.55,2374.32 2761.55,2476.25"/>
<polyline class="BarLine" fill="none" stroke="#000000" stroke-width="4.46" stroke-linejoin="bevel" points="919.568,2809.69 919.568,2911.62"/>
<polyline class="BarLine" fill="none" stroke="#000000" stroke-width="4.46" stroke-linejoin="bevel" points="1533.56,2809.69 1533.56,2911.62"/>
<polyline class="BarLine" fill="none" stroke="#000000" stroke-width="4.46" stroke-linejoin="bevel" points="2147.55,2809.69 2147.55,2911.62"/>
<polyline class="BarLine" fill="none" stroke="#000000" stroke-width="4.46" stroke-linejoin="bevel" points="2761.55,2809.69 2761.55,2911.62"/>
<polyline class="BarLine" fill="none" stroke="#000000" stroke-width="4.46" stroke-linejoin="bevel" points="919.568,3245.07 919.568,3346.99"/>
<polyline class="BarLine" fill="none" stroke="#000000" stroke-width="4.46" stroke-linejoin="bevel" points="1533.56,3245.07 1533.56,3346.99"/>
<polyline class="BarLine" fill="none" stroke="#000000" stroke-width="4.46" stroke-linejoin="bevel" points="2147.55,3245.07 2147.55,3346.99"/>
<polyline class="BarLine" fill="none" stroke="#000000" stroke-width="4.46" stroke-linejoin="bevel" points="2761.55,3245.07 2761.55,3346.99"/>
<polyline class="BarLine" fill="none" stroke="#000000" stroke-width="4.46" stroke-linejoin="bevel" points="606.171,3680.44 606.171,3782.37"/>
<polyline class="BarLine" fill="none" stroke="#000000" stroke-width="4.46" stroke-linejoin="bevel" points="906.767,3680.44 906.767,3782.37"/>
<polyline class="BarLine" fill="none" stroke="#000000" stroke-width="4.46" stroke-linejoin="bevel" points="1207.36,3680.44 1207.36,3782.37"/>
<polyline class="BarLine" fill="none" stroke="#000000" stroke-width="4.46" stroke-linejoin="bevel" points="1490.1,3680.44 1490.1,3782.37"/>
<polyline class="BarLine" fill="none" stroke="#000000" stroke-width="13.64" stroke-linejoin="bevel" points="1507.46,3680.44 1507.46,3782.37"/>
<polyline class="LedgerLine" fill="none" stroke="#000000" stroke-width="3.97" stroke-linejoin="bevel" points="536.789,758.198 586.381,758.198"/>
<polyline class="LedgerLine" fill="none" stroke="#000000" stroke-width="3.97" stroke-linejoin="bevel" points="688.635,758.198 738.227,758.198"/>
<polyline class="Stem" fill="none" stroke="#000000" stroke-width="2.73" stroke-linejoin="bevel" points="576.337,767.424 576.337,683.798"/>
<polyline class="Stem" fill="none" stroke="#000000" stroke-width="2.73" stroke-linejoin="bevel" points="728.183,755.024 728.183,671.398"/>
<polyline class="Stem" fill="none" stroke="#000000" stroke-width="2.73" stroke-linejoin="bevel" points="880.029,742.624 880.029,658.998"/>
<polyline class="Stem" fill="none" stroke="#000000" stroke-width="2.73" stroke-linejoin="bevel" points="1031.87,730.224 1031.87,646.598"/>
<polyline class="Stem" fill="none" stroke="#000000" stroke-width="2.73" stroke-linejoin="bevel" points="1220.42,717.824 1220.42,634.198"/>
<polyline class="Stem" fill="none" stroke="#000000" stroke-width="2.73" stroke-linejoin="bevel" points="1364.46,705.424 1364.46,624.898"/>
<polyline class="Stem" fill="none" stroke="#000000" stroke-width="2.73" stroke-linejoin="bevel" points="1508.49,693.024 1508.49,615.598"/>
<path class="Note" transform="matrix(0.992,0,0,0.992,545.469,770.598)" d="M31.5,-8.09375 C29.7031,-11.4063 25.9063,-13.2031 21.2969,-13.2031 C17.9063,-13.2031 14.2031,-12.2031 10.5938,-10.2969 C4,-6.79688 0,-0.90625 0,4.20313 C0,5.59375 0.296875,7 1,8.29688 C2.79688,11.5938 6.59375,13.2969 11.2031,13.2969 C14.5938,13.2969 18.2969,12.4063 21.9063,10.5 C28.5,7 32.5,1.09375 32.5,-4 C32.5,-5.40625 32.2031,-6.79688 31.5,-8.09375"/>
<path class="Note" transform="matrix(0.992,0,0,0.992,697.315,758.198)" d="M31.5,-8.09375 C29.7031,-11.4063 25.9063,-13.2031 21.2969,-13.2031 C17.9063,-13.2031 14.2031,-12.2031 10.5938,-10.2969 C4,-6.79688 0,-0.90625 0,4.20313 C0,5.59375 0.296875,7 1,8.29688 C2.79688,11.5938 6.59375,13.2969 11.2031,13.2969 C14.5938,13.2969 18.2969,12.4063 21.9063,10.5 C28.5,7 32.5,1.09375 32.5,-4 C32.5,-5.40625 32.2031,-6.79688 31.5,-8.09375"/>
<path class="Note" transform="matrix(0.992,0,0,0.992,849.161,745.798)" d="M31.5,-8.09375 C29.7031,-11.4063 25.9063,-13.2031 21.2969,-13.2031 C17.9063,-13.2031 14.2031,-12.2031 10.5938,-10.2969 C4,-6.79688 0,-0.90625 0,4.20313 C0,5.59375 0.296875,7 1,8.29688 C2.79688,11.5938 6.59375,13.2969 11.2031,13.2969 C14.5938,13.2969 18.2969,12.4063 21.9063,10.5 C28.5,7 32.5,1.09375 32.5,-4 C32.5,-5.40625 32.2031,-6.79688 31.5,-8.09375"/>
<path class="Note" transform="matrix(0.992,0,0,0.992,1001.01,733.398)" d="M31.5,-8.09375 C29.7031,-11.4063 25.9063,-13.2031 21.2969,-13.2031 C17.9063,-13.2031 14.2031,-12.2031 10.5938,-10.2969 C4,-6.79688 0,-0.90625 0,4.20313 C0,5.59375 0.296875,7 1,8.29688 C2.79688,11.5938 6.59375,13.2969 11.2031,13.2969 C14.5938,13.2969 18.2969,12.4063 21.9063,10.5 C28.5,7 32.5,1.09375 32.5,-4 C32.5,-5.40625 32.2031,-6.79688 31.5,-8.09375"/>
<path class="Note" transform="matrix(0.992,0,0,0.992,1189.56,720.998)" d="M31.5,-8.09375 C29.7031,-11.4063 25.9063,-13.2031 21.2969,-13.2031 C17.9063,-13.2031 14.2031,-12.2031 10.5938,-10.2969 C4,-6.79688 0,-0.90625 0,4.20313 C0,5.59375 0.296875,7 1,8.29688 C2.79688,11.5938 6.59375,13.2969 11.2031,13.2969 C14.5938,13.2969 18.2969,12.4063 21.9063,10.5 C28.5,7 32.5,1.09375 32.5,-4 C32.5,-5.40625 32.2031,-6.79688 31.5,-8.09375"/>
<path class="Note" transform="matrix(0.992,0,0,0.992,1333.59,708.598)" d="M31.5,-8.09375 C29.7031,-11.4063 25.9063,-13.2031 21.2969,-13.2031 C17.9063,-13.2031 14.2031,-12.2031 10.5938,-10.2969 C4,-6.79688 0,-0.90625 0,4.20313 C0,5.59375 0.296875,7 1,8.29688 C2.79688,11.5938 6.59375,13.2969 11.2031,13.2969 C14.5938,13.2969 18.2969,12.4063 21.9063,10.5 C28.5,7 32.5,1.09375 32.5,-4 C32.5,-5.40625 32.2031,-6.79688 31.5,-8.09375"/>
<path class="Note" transform="matrix(0.992,0,0,0.992,1477.62,696.198)" d="M31.5,-8.09375 C29.7031,-11.4063 25.9063,-13.2031 21.2969,-13.2031 C17.9063,-13.2031 14.2031,-12.2031 10.5938,-10.2969 C4,-6.79688 0,-0.90625 0,4.20313 C0,5.59375 0.296875,7 1,8.29688 C2.79688,11.5938 6.59375,13.2969 11.2031,13.2969 C14.5938,13.2969 18.2969,12.4063 21.9063,10.5 C28.5,7 32.5,1.09375 32.5,-4 C32.5,-5.40625 32.2031,-6.79688 31.5,-8.09375"/>
<path class="Clef" transform="matrix(0.992,0,0,0.992,356.438,708.598)" d="M63.3594,-5.92188 C62.125,-11.3438 59.4844,-15.1719 58.7031,-16.2031 C55.5156,-20.4844 51.5,-23.3281 46.8125,-24.6875 C43.7031,-25.5625 40.7031,-25.6875 38.2813,-25.5 C37.2344,-31.5156 36.2344,-37.3906 35.3281,-42.8438 C40.7813,-49.0156 44.4063,-54.8125 46.6875,-59.1094 C50.1563,-65.6875 51.2969,-70.2656 51.3594,-70.4688 C53.0781,-75.6875 53.4375,-83.3906 52.3281,-91.5938 C51.3281,-99.1406 49.2344,-105.859 46.875,-109.109 C45.8594,-110.531 44.7969,-111.266 43.7656,-111.266 C42.5469,-111.266 40.0313,-110.031 37.1406,-107.25 C34.8438,-105.063 31.5781,-101.172 29.0156,-95.1563 C26.0156,-88.0938 25.7969,-78.6094 26.1563,-71.8906 C26.5313,-64.6094 27.6406,-58.9219 27.6563,-58.875 C27.6719,-58.7813 27.9375,-57.2813 28.375,-54.7188 C28.1563,-54.4844 27.9063,-54.2656 27.6563,-54.0156 C26.625,-53.0156 25.4375,-51.8906 24.0469,-50.5 C23.1875,-49.6406 22.2344,-48.7344 21.2344,-47.7656 C12.7969,-39.625 0,-27.2969 0,-8.14063 C0,-3.4375 0.90625,0.984375 2.6875,5 C4.26563,8.59375 6.5625,11.875 9.5,14.75 C17.2344,22.3125 27.8281,25.5156 34.875,25.3594 C37.8281,25.2813 40.4688,25.0469 42.8594,24.5938 C44.6875,34.2031 45.8281,41.2344 45.8594,46.5781 C45.9063,53.0938 44.25,57.0781 40.3594,59.8438 C37.9219,61.5781 35.1094,62.5313 32.0156,62.6719 C29.4219,62.7969 27.1563,62.3281 25.7344,61.9219 L25.7188,61.9219 C25.7188,61.9219 25.4375,61.8281 25.4219,61.6406 C25.4063,61.4531 25.7656,61.4063 25.7656,61.4063 L25.7969,61.4063 C27.7188,60.9688 31.2813,59.7344 33.6406,56.4375 C35.4375,53.9063 36.3125,49.2813 34.4688,45.3438 C33.3594,42.9531 30.8594,40 25.2344,39.5469 C22.7344,39.3438 20.4688,39.8594 18.4688,41.0625 C16.6563,42.1406 15.1563,43.7813 14.1094,45.7813 C11.6563,50.4844 12.1094,56.2188 15.2344,60.0625 C18.2031,63.6875 22.8125,66 28.25,66.5781 C29.1094,66.6719 29.9531,66.7031 30.7969,66.7031 C35.2344,66.7031 39.625,65.5 43.2031,63.2969 C46.8594,60.7188 48.9844,56.7344 49.6563,51.1094 C50.2188,46.4688 49.8281,40.5469 48.4375,32.4688 C48.0781,30.375 47.5313,27.3438 46.875,23.5938 C52.625,21.6719 56.7813,18.0938 60.5469,12.2344 C63.8438,6.5 64.7813,0.390625 63.3594,-5.92188 M29.1406,20.2969 C24.5,19.0781 20.0625,16.5781 16.3125,13.0625 C15,11.8438 13.125,9.67188 11.6563,6.28125 C10.2969,3.10938 9.625,-0.328125 9.6875,-3.90625 C9.75,-8.60938 11.0625,-13.4375 13.5625,-18.2188 C16.4844,-23.7969 21.0469,-29.3281 27.1094,-34.6563 C28.5625,-35.9375 29.9375,-37.2188 31.2188,-38.5 C31.9844,-34.2344 32.8125,-29.5469 33.6875,-24.6719 C29.8438,-23.4063 25.0938,-20.25 21.9844,-14.5938 C18.4375,-8.03125 18.5781,-2.5 19.3125,0.984375 C20.25,5.4375 22.7813,9.20313 26.2344,11.2969 C27.1719,11.8594 31.2969,13.9844 33.1406,13.4063 C33.5156,13.2969 33.7813,13.0625 33.9219,12.7344 C34.4375,11.5625 33.4063,10.9219 31.8594,9.96875 C31.25,9.59375 30.5781,9.17188 29.8594,8.64063 C26.5313,6.15625 25.0781,1.70313 26.1563,-2.6875 C26.7344,-5.07813 28.0156,-7.25 29.8594,-8.95313 C31.5156,-10.5 33.5625,-11.5938 35.9375,-12.2344 C37.9844,-0.984375 40.0469,10.1719 41.6875,18.5313 C41.8125,19.2188 41.9531,19.8906 42.0781,20.5625 C37.7031,21.5 33.3594,21.4063 29.1406,20.2969 M40.4688,-12.9063 C50.8125,-13.375 55.0781,-5.9375 55.9688,-1.10938 C56.4375,1.4375 56.4375,5.875 54.8906,10.0938 C53.7188,13.2656 51.2656,17.3438 46.125,19.4063 C46.0625,18.9844 45.9844,18.5469 45.9063,18.125 C44.3594,9.34375 42.4219,-1.65625 40.4688,-12.9063 M33.1406,-83.8594 C34.9219,-89.5938 37.6563,-92.8438 39.6563,-94.5781 C41.4063,-96.0938 43.0469,-96.8125 43.9688,-96.8125 C44.1094,-96.8125 44.2344,-96.7813 44.3281,-96.75 C44.7969,-96.6094 45.3281,-96.0469 45.7969,-95.1719 C48.1094,-90.8906 47.3594,-84.1719 46.0156,-79.7344 C44.3906,-74.3281 41.4688,-68.7188 32.6719,-59.1094 C32.5,-60.2188 32.3438,-61.2656 32.1875,-62.25 C30.9375,-70.5313 31.2656,-77.8125 33.1406,-83.8594"/>
<path class="Clef" transform="matrix(0.992,0,0,0.992,232.438,1143.97)" d="M63.3594,-5.92188 C62.125,-11.3438 59.4844,-15.1719 58.7031,-16.2031 C55.5156,-20.4844 51.5,-23.3281 46.8125,-24.6875 C43.7031,-25.5625 40.7031,-25.6875 38.2813,-25.5 C37.2344,-31.5156 36.2344,-37.3906 35.3281,-42.8438 C40.7813,-49.0156 44.4063,-54.8125 46.6875,-59.1094 C50.1563,-65.6875 51.2969,-70.2656 51.3594,-70.4688 C53.0781,-75.6875 53.4375,-83.3906 52.3281,-91.5938 C51.3281,-99.1406 49.2344,-105.859 46.875,-109.109 C45.8594,-110.531 44.7969,-111.266 43.7656,-111.266 C42.5469,-111.266 40.0313,-110.031 37.1406,-107.25 C34.8438,-105.063 31.5781,-101.172 29.0156,-95.1563 C26.0156,-88.0938 25.7969,-78.6094 26.1563,-71.8906 C26.5313,-64.6094 27.6406,-58.9219 27.6563,-58.875 C27.6719,-58.7813 27.9375,-57.2813 28.375,-54.7188 C28.1563,-54.4844 27.9063,-54.2656 27.6563,-54.0156 C26.625,-53.0156 25.4375,-51.8906 24.0469,-50.5 C23.1875,-49.6406 22.2344,-48.7344 21.2344,-47.7656 C12.7969,-39.625 0,-27.2969 0,-8.14063 C0,-3.4375 0.90625,0.984375 2.6875,5 C4.26563,8.59375 6.5625,11.875 9.5,14.75 C17.2344,22.3125 27.8281,25.5156 34.875,25.3594 C37.8281,25.2813 40.4688,25.0469 42.8594,24.5938 C44.6875,34.2031 45.8281,41.2344 45.8594,46.5781 C45.9063,53.0938 44.25,57.0781 40.3594,59.8438 C37.9219,61.5781 35.1094,62.5313 32.0156,62.6719 C29.4219,62.7969 27.1563,62.3281 25.7344,61.9219 L25.7188,61.9219 C25.7188,61.9219 25.4375,61.8281 25.4219,61.6406 C25.4063,61.4531 25.7656,61.4063 25.7656,61.4063 L25.7969,61.4063 C27.7188,60.9688 31.2813,59.7344 33.6406,56.4375 C35.4375,53.9063 36.3125,49.2813 34.4688,45.3438 C33.3594,42.9531 30.8594,40 25.2344,39.5469 C22.7344,39.3438 20.4688,39.8594 18.4688,41.0625 C16.6563,42.1406 15.1563,43.7813 14.1094,45.7813 C11.6563,50.4844 12.1094,56.2188 15.2344,60.0625 C18.2031,63.6875 22.8125,66 28.25,66.5781 C29.1094,66.6719 29.9531,66.7031 30.7969,66.7031 C35.2344,66.7031 39.625,65.5 43.2031,63.2969 C46.8594,60.7188 48.9844,56.7344 49.6563,51.1094 C50.2188,46.4688 49.8281,40.5469 48.4375,32.4688 C48.0781,30.375 47.5313,27.3438 46.875,23.5938 C52.625,21.6719 56.7813,18.0938 60.5469,12.2344 C63.8438,6.5 64.7813,0.390625 63.3594,-5.92188 M29.1406,20.2969 C24.5,19.0781 20.0625,16.5781 16.3125,13.0625 C15,11.8438 13.125,9.67188 11.6563,6.28125 C10.2969,3.10938 9.625,-0.328125 9.6875,-3.90625 C9.75,-8.60938 11.0625,-13.4375 13.5625,-18.2188 C16.4844,-23.7969 21.0469,-29.3281 27.1094,-34.6563 C28.5625,-35.9375 29.9375,-37.2188 31.2188,-38.5 C31.9844,-34.2344 32.8125,-29.5469 33.6875,-24.6719 C29.8438,-23.4063 25.0938,-20.25 21.9844,-14.5938 C18.4375,-8.03125 18.5781,-2.5 19.3125,0.984375 C20.25,5.4375 22.7813,9.20313 26.2344,11.2969 C27.1719,11.8594 31.2969,13.9844 33.1406,13.4063 C33.5156,13.2969 33.7813,13.0625 33.9219,12.7344 C34.4375,11.5625 33.4063,10.9219 31.8594,9.96875 C31.25,9.59375 30.5781,9.17188 29.8594,8.64063 C26.5313,6.15625 25.0781,1.70313 26.1563,-2.6875 C26.7344,-5.07813 28.0156,-7.25 29.8594,-8.95313 C31.5156,-10.5 33.5625,-11.5938 35.9375,-12.2344 C37.9844,-0.984375 40.0469,10.1719 41.6875,18.5313 C41.8125,19.2188 41.9531,19.8906 42.0781,20.5625 C37.7031,21.5 33.3594,21.4063 29.1406,20.2969 M40.4688,-12.9063 C50.8125,-13.375 55.0781,-5.9375 55.9688,-1.10938 C56.4375,1.4375 56.4375,5.875 54.8906,10.0938 C53.7188,13.2656 51.2656,17.3438 46.125,19.4063 C46.0625,18.9844 45.9844,18.5469 45.9063,18.125 C44.3594,9.34375 42.4219,-1.65625 40.4688,-12.9063 M33.1406,-83.8594 C34.9219,-89.5938 37.6563,-92.8438 39.6563,-94.5781 C41.4063,-96.0938 43.0469,-96.8125 43.9688,-96.8125 C44.1094,-96.8125 44.2344,-96.7813 44.3281,-96.75 C44.7969,-96.6094 45.3281,-96.0469 45.7969,-95.1719 C48.1094,-90.8906 47.3594,-84.1719 46.0156,-79.7344 C44.3906,-74.3281 41.4688,-68.7188 32.6719,-59.1094 C32.5,-60.2188 32.3438,-61.2656 32.1875,-62.25 C30.9375,-70.5313 31.2656,-77.8125 33.1406,-83.8594"/>
<path class="Clef" transform="matrix(0.992,0,0,0.992,232.438,1579.34)" d="M63.3594,-5.92188 C62.125,-11.3438 59.4844,-15.1719 58.7031,-16.2031 C55.5156,-20.4844 51.5,-23.3281 46.8125,-24.6875 C43.7031,-25.5625 40.7031,-25.6875 38.2813,-25.5 C37.2344,-31.5156 36.2344,-37.3906 35.3281,-42.8438 C40.7813,-49.0156 44.4063,-54.8125 46.6875,-59.1094 C50.1563,-65.6875 51.2969,-70.2656 51.3594,-70.4688 C53.0781,-75.6875 53.4375,-83.3906 52.3281,-91.5938 C51.3281,-99.1406 49.2344,-105.859 46.875,-109.109 C45.8594,-110.531 44.7969,-111.266 43.7656,-111.266 C42.5469,-111.266 40.0313,-110.031 37.1406,-107.25 C34.8438,-105.063 31.5781,-101.172 29.0156,-95.1563 C26.0156,-88.0938 25.7969,-78.6094 26.1563,-71.8906 C26.5313,-64.6094 27.6406,-58.9219 27.6563,-58.875 C27.6719,-58.7813 27.9375,-57.2813 28.375,-54.7188 C28.1563,-54.4844 27.9063,-54.2656 27.6563,-54.0156 C26.625,-53.0156 25.4375,-51.8906 24.0469,-50.5 C23.1875,-49.6406 22.2344,-48.7344 21.2344,-47.7656 C12.7969,-39.625 0,-27.2969 0,-8.14063 C0,-3.4375 0.90625,0.984375 2.6875,5 C4.26563,8.59375 6.5625,11.875 9.5,14.75 C17.2344,22.3125 27.8281,25.5156 34.875,25.3594 C37.8281,25.2813 40.4688,25.0469 42.8594,24.5938 C44.6875,34.2031 45.8281,41.2344 45.8594,46.5781 C45.9063,53.0938 44.25,57.0781 40.3594,59.8438 C37.9219,61.5781 35.1094,62.5313 32.0156,62.6719 C29.4219,62.7969 27.1563,62.3281 25.7344,61.9219 L25.7188,61.9219 C25.7188,61.9219 25.4375,61.8281 25.4219,61.6406 C25.4063,61.4531 25.7656,61.4063 25.7656,61.4063 L25.7969,61.4063 C27.7188,60.9688 31.2813,59.7344 33.6406,56.4375 C35.4375,53.9063 36.3125,49.2813 34.4688,45.3438 C33.3594,42.9531 30.8594,40 25.2344,39.5469 C22.7344,39.3438 20.4688,39.8594 18.4688,41.0625 C16.6563,42.1406 15.1563,43.7813 14.1094,45.7813 C11.6563,50.4844 12.1094,56.2188 15.2344,60.0625 C18.2031,63.6875 22.8125,66 28.25,66.5781 C29.1094,66.6719 29.9531,66.7031 30.7969,66.7031 C35.2344,66.7031 39.625,65.5 43.2031,63.2969 C46.8594,60.7188 48.9844,56.7344 49.6563,51.1094 C50.2188,46.4688 49.8281,40.5469 48.4375,32.4688 C48.0781,30.375 47.5313,27.3438 46.875,23.5938 C52.625,21.6719 56.7813,18.0938 60.5469,12.2344 C63.8438,6.5 64.7813,0.390625 63.3594,-5.92188 M29.1406,20.2969 C24.5,19.0781 20.0625,16.5781 16.3125,13.0625 C15,11.8438 13.125,9.67188 11.6563,6.28125 C10.2969,3.10938 9.625,-0.328125 9.6875,-3.90625 C9.75,-8.60938 11.0625,-13.4375 13.5625,-18.2188 C16.4844,-23.7969 21.0469,-29.3281 27.1094,-34.6563 C28.5625,-35.9375 29.9375,-37.2188 31.2188,-38.5 C31.9844,-34.2344 32.8125,-29.5469 33.6875,-24.6719 C29.8438,-23.4063 25.0938,-20.25 21.9844,-14.5938 C18.4375,-8.03125 18.5781,-2.5 19.3125,0.984375 C20.25,5.4375 22.7813,9.20313 26.2344,11.2969 C27.1719,11.8594 31.2969,13.9844 33.1406,13.4063 C33.5156,13.2969 33.7813,13.0625 33.9219,12.7344 C34.4375,11.5625 33.4063,10.9219 31.8594,9.96875 C31.25,9.59375 30.5781,9.17188 29.8594,8.64063 C26.5313,6.15625 25.0781,1.70313 26.1563,-2.6875 C26.7344,-5.07813 28.0156,-7.25 29.8594,-8.95313 C31.5156,-10.5 33.5625,-11.5938 35.9375,-12.2344 C37.9844,-0.984375 40.0469,10.1719 41.6875,18.5313 C41.8125,19.2188 41.9531,19.8906 42.0781,20.5625 C37.7031,21.5 33.3594,21.4063 29.1406,20.2969 M40.4688,-12.9063 C50.8125,-13.375 55.0781,-5.9375 55.9688,-1.10938 C56.4375,1.4375 56.4375,5.875 54.8906,10.0938 C53.7188,13.2656 51.2656,17.3438 46.125,19.4063 C46.0625,18.9844 45.9844,18.5469 45.9063,18.125 C44.3594,9.34375 42.4219,-1.65625 40.4688,-12.9063 M33.1406,-83.8594 C34.9219,-89.5938 37.6563,-92.8438 39.6563,-94.5781 C41.4063,-96.0938 43.0469,-96.8125 43.9688,-96.8125 C44.1094,-96.8125 44.2344,-96.7813 44.3281,-96.75 C44.7969,-96.6094 45.3281,-96.0469 45.7969,-95.1719 C48.1094,-90.8906 47.3594,-84.1719 46.0156,-79.7344 C44.3906,-74.3281 41.4688,-68.7188 32.6719,-59.1094 C32.5,-60.2188 32.3438,-61.2656 32.1875,-62.25 C30.9375,-70.5313 31.2656,-77.8125 33.1406,-83.8594"/>
<path class="Clef" transform="matrix(0.992,0,0,0.992,232.438,2014.71)" d="M63.3594,-5.92188 C62.125,-11.3438 59.4844,-15.1719 58.7031,-16.2031 C55.5156,-20.4844 51.5,-23.3281 46.8125,-24.6875 C43.7031,-25.5625 40.7031,-25.6875 38.2813,-25.5 C37.2344,-31.5156 36.2344,-37.3906 35.3281,-42.8438 C40.7813,-49.0156 44.4063,-54.8125 46.6875,-59.1094 C50.1563,-65.6875 51.2969,-70.2656 51.3594,-70.4688 C53.0781,-75.6875 53.4375,-83.3906 52.3281,-91.5938 C51.3281,-99.1406 49.2344,-105.859 46.875,-109.109 C45.8594,-110.531 44.7969,-111.266 43.7656,-111.266 C42.5469,-111.266 40.0313,-110.031 37.1406,-107.25 C34.8438,-105.063 31.5781,-101.172 29.0156,-95.1563 C26.0156,-88.0938 25.7969,-78.6094 26.1563,-71.8906 C26.5313,-64.6094 27.6406,-58.9219 27.6563,-58.875 C27.6719,-58.7813 27.9375,-57.2813 28.375,-54.7188 C28.1563,-54.4844 27.9063,-54.2656 27.6563,-54.0156 C26.625,-53.0156 25.4375,-51.8906 24.0469,-50.5 C23.1875,-49.6406 22.2344,-48.7344 21.2344,-47.7656 C12.7969,-39.625 0,-27.2969 0,-8.14063 C0,-3.4375 0.90625,0.984375 2.6875,5 C4.26563,8.59375 6.5625,11.875 9.5,14.75 C17.2344,22.3125 27.8281,25.5156 34.875,25.3594 C37.8281,25.2813 40.4688,25.0469 42.8594,24.5938 C44.6875,34.2031 45.8281,41.2344 45.8594,46.5781 C45.9063,53.0938 44.25,57.0781 40.3594,59.8438 C37.9219,61.5781 35.1094,62.5313 32.0156,62.6719 C29.4219,62.7969 27.1563,62.3281 25.7344,61.9219 L25.7188,61.9219 C25.7188,61.9219 25.4375,61.8281 25.4219,61.6406 C25.4063,61.4531 25.7656,61.4063 25.7656,61.4063 L25.7969,61.4063 C27.7188,60.9688 31.2813,59.7344 33.6406,56.4375 C35.4375,53.9063 36.3125,49.2813 34.4688,45.3438 C33.3594,42.9531 30.8594,40 25.2344,39.5469 C22.7344,39.3438 20.4688,39.8594 18.4688,41.0625 C16.6563,42.1406 15.1563,43.7813 14.1094,45.7813 C11.6563,50.4844 12.1094,56.2188 15.2344,60.0625 C18.2031,63.6875 22.8125,66 28.25,66.5781 C29.1094,66.6719 29.9531,66.7031 30.7969,66.7031 C35.2344,66.7031 39.625,65.5 43.2031,63.2969 C46.8594,60.7188 48.9844,56.7344 49.6563,51.1094 C50.2188,46.4688 49.8281,40.5469 48.4375,32.4688 C48.0781,30.375 47.5313,27.3438 46.875,23.5938 C52.625,21.6719 56.7813,18.0938 60.5469,12.2344 C63.8438,6.5 64.7813,0.390625 63.3594,-5.92188 M29.1406,20.2969 C24.5,19.0781 20.0625,16.5781 16.3125,13.0625 C15,11.8438 13.125,9.67188 11.6563,6.28125 C10.2969,3.10938 9.625,-0.328125 9.6875,-3.90625 C9.75,-8.60938 11.0625,-13.4375 13.5625,-18.2188 C16.4844,-23.7969 21.0469,-29.3281 27.1094,-34.6563 C28.5625,-35.9375 29.9375,-37.2188 31.2188,-38.5 C31.9844,-34.2344 32.8125,-29.5469 33.6875,-24.6719 C29.8438,-23.4063 25.0938,-20.25 21.9844,-14.5938 C18.4375,-8.03125 18.5781,-2.5 19.3125,0.984375 C20.25,5.4375 22.7813,9.20313 26.2344,11.2969 C27.1719,11.8594 31.2969,13.9844 33.1406,13.4063 C33.5156,13.2969 33.7813,13.0625 33.9219,12.7344 C34.4375,11.5625 33.4063,10.9219 31.8594,9.96875 C31.25,9.59375 30.5781,9.17188 29.8594,8.64063 C26.5313,6.15625 25.0781,1.70313 26.1563,-2.6875 C26.7344,-5.07813 28.0156,-7.25 29.8594,-8.95313 C31.5156,-10.5 33.5625,-11.5938 35.9375,-12.2344 C37.9844,-0.984375 40.0469,10.1719 41.6875,18.5313 C41.8125,19.2188 41.9531,19.8906 42.0781,20.5625 C37.7031,21.5 33.3594,21.4063 29.1406,20.2969 M40.4688,-12.9063 C50.8125,-13.375 55.0781,-5.9375 55.9688,-1.10938 C56.4375,1.4375 56.4375,5.875 54.8906,10.0938 C53.7188,13.2656 51.2656,17.3438 46.125,19.4063 C46.0625,18.9844 45.9844,18.5469 45.9063,18.125 C44.3594,9.34375 42.4219,-1.65625 40.4688,-12.9063 M33.1406,-83.8594 C34.9219,-89.5938 37.6563,-92.8438 39.6563,-94.5781 C41.4063,-96.0938 43.0469,-96.8125 43.9688,-96.8125 C44.1094,-96.8125 44.2344,-96.7813 44.3281,-96.75 C44.7969,-96.6094 45.3281,-96.0469 45.7969,-95.1719 C48.1094,-90.8906 47.3594,-84.1719 46.0156,-79.7344 C44.3906,-74.3281 41.4688,-68.7188 32.6719,-59.1094 C32.5,-60.2188 32.3438,-61.2656 32.1875,-62.25 C30.9375,-70.5313 31.2656,-77.8125 33.1406,-83.8594"/>
<path class="Clef" transform="matrix(0.992,0,0,0.992,232.438,2450.09)" d="M63.3594,-5.92188 C62.125,-11.3438 59.4844,-15.1719 58.7031,-16.2031 C55.5156,-20.4844 51.5,-23.3281 46.8125,-24.6875 C43.7031,-25.5625 40.7031,-25.6875 38.2813,-25.5 C37.2344,-31.5156 36.2344,-37.3906 35.3281,-42.8438 C40.7813,-49.0156 44.4063,-54.8125 46.6875,-59.1094 C50.1563,-65.6875 51.2969,-70.2656 51.3594,-70.4688 C53.0781,-75.6875 53.4375,-83.3906 52.3281,-91.5938 C51.3281,-99.1406 49.2344,-105.859 46.875,-109.109 C45.8594,-110.531 44.7969,-111.266 43.7656,-111.266 C42.5469,-111.266 40.0313,-110.031 37.1406,-107.25 C34.8438,-105.063 31.5781,-101.172 29.0156,-95.1563 C26.0156,-88.0938 25.7969,-78.6094 26.1563,-71.8906 C26.5313,-64.6094 27.6406,-58.9219 27.6563,-58.875 C27.6719,-58.7813 27.9375,-57.2813 28.375,-54.7188 C28.1563,-54.4844 27.9063,-54.2656 27.6563,-54.0156 C26.625,-53.0156 25.4375,-51.8906 24.0469,-50.5 C23.1875,-49.6406 22.2344,-48.7344 21.2344,-47.7656 C12.7969,-39.625 0,-27.2969 0,-8.14063 C0,-3.4375 0.90625,0.984375 2.6875,5 C4.26563,8.59375 6.5625,11.875 9.5,14.75 C17.2344,22.3125 27.8281,25.5156 34.875,25.3594 C37.8281,25.2813 40.4688,25.0469 42.8594,24.5938 C44.6875,34.2031 45.8281,41.2344 45.8594,46.5781 C45.9063,53.0938 44.25,57.0781 40.3594,59.8438 C37.9219,61.5781 35.1094,62.5313 32.0156,62.6719 C29.4219,62.7969 27.1563,62.3281 25.7344,61.9219 L25.7188,61.9219 C25.7188,61.9219 25.4375,61.8281 25.4219,61.6406 C25.4063,61.4531 25.7656,61.4063 25.7656,61.4063 L25.7969,61.4063 C27.7188,60.9688 31.2813,59.7344 33.6406,56.4375 C35.4375,53.9063 36.3125,49.2813 34.4688,45.3438 C33.3594,42.9531 30.8594,40 25.2344,39.5469 C22.7344,39.3438 20.4688,39.8594 18.4688,41.0625 C16.6563,42.1406 15.1563,43.7813 14.1094,45.7813 C11.6563,50.4844 12.1094,56.2188 15.2344,60.0625 C18.2031,63.6875 22.8125,66 28.25,66.5781 C29.1094,66.6719 29.9531,66.7031 30.7969,66.7031 C35.2344,66.7031 39.625,65.5 43.2031,63.2969 C46.8594,60.7188 48.9844,56.7344 49.6563,51.1094 C50.2188,46.4688 49.8281,40.5469 48.4375,32.4688 C48.0781,30.375 47.5313,27.3438 46.875,23.5938 C52.625,21.6719 56.7813,18.0938 60.5469,12.2344 C63.8438,6.5 64.7813,0.390625 63.3594,-5.92188 M29.1406,20.2969 C24.5,19.0781 20.0625,16.5781 16.3125,13.0625 C15,11.8438 13.125,9.67188 11.6563,6.28125 C10.2969,3.10938 9.625,-0.328125 9.6875,-3.90625 C9.75,-8.60938 11.0625,-13.4375 13.5625,-18.2188 C16.4844,-23.7969 21.0469,-29.3281 27.1094,-34.6563 C28.5625,-35.9375 29.9375,-37.2188 31.2188,-38.5 C31.9844,-34.2344 32.8125,-29.5469 33.6875,-24.6719 C29.8438,-23.4063 25.0938,-20.25 21.9844,-14.5938 C18.4375,-8.03125 18.5781,-2.5 19.3125,0.984375 C20.25,5.4375 22.7813,9.20313 26.2344,11.2969 C27.1719,11.8594 31.2969,13.9844 33.1406,13.4063 C33.5156,13.2969 33.7813,13.0625 33.9219,12.7344 C34.4375,11.5625 33.4063,10.9219 31.8594,9.96875 C31.25,9.59375 30.5781,9.17188 29.8594,8.64063 C26.5313,6.15625 25.0781,1.70313 26.1563,-2.6875 C26.7344,-5.07813 28.0156,-7.25 29.8594,-8.95313 C31.5156,-10.5 33.5625,-11.5938 35.9375,-12.2344 C37.9844,-0.984375 40.0469,10.1719 41.6875,18.5313 C41.8125,19.2188 41.9531,19.8906 42.0781,20.5625 C37.7031,21.5 33.3594,21.4063 29.1406,20.2969 M40.4688,-12.9063 C50.8125,-13.375 55.0781,-5.9375 55.9688,-1.10938 C56.4375,1.4375 56.4375,5.875 54.8906,10.0938 C53.7188,13.2656 51.2656,17.3438 46.125,19.4063 C46.0625,18.9844 45.9844,18.5469 45.9063,18.125 C44.3594,9.34375 42.4219,-1.65625 40.4688,-12.9063 M33.1406,-83.8594 C34.9219,-89.5938 37.6563,-92.8438 39.6563,-94.5781 C41.4063,-96.0938 43.0469,-96.8125 43.9688,-96.8125 C44.1094,-96.8125 44.2344,-96.7813 44.3281,-96.75 C44.7969,-96.6094 45.3281,-96.0469 45.7969,-95.1719 C48.1094,-90.8906 47.3594,-84.1719 46.0156,-79.7344 C44.3906,-74.3281 41.4688,-68.7188 32.6719,-59.1094 C32.5,-60.2188 32.3438,-61.2656 32.1875,-62.25 C30.9375,-70.5313 31.2656,-77.8125 33.1406,-83.8594"/>
<path class="Clef" transform="matrix(0.992,0,0,0.992,232.438,2885.46)" d="M63.3594,-5.92188 C62.125,-11.3438 59.4844,-15.1719 58.7031,-16.2031 C55.5156,-20.4844 51.5,-23.3281 46.8125,-24.6875 C43.7031,-25.5625 40.7031,-25.6875 38.2813,-25.5 C37.2344,-31.5156 36.2344,-37.3906 35.3281,-42.8438 C40.7813,-49.0156 44.4063,-54.8125 46.6875,-59.1094 C50.1563,-65.6875 51.2969,-70.2656 51.3594,-70.4688 C53.0781,-75.6875 53.4375,-83.3906 52.3281,-91.5938 C51.3281,-99.1406 49.2344,-105.859 46.875,-109.109 C45.8594,-110.531 44.7969,-111.266 43.7656,-111.266 C42.5469,-111.266 40.0313,-110.031 37.1406,-107.25 C34.8438,-105.063 31.5781,-101.172 29.0156,-95.1563 C26.0156,-88.0938 25.7969,-78.6094 26.1563,-71.8906 C26.5313,-64.6094 27.6406,-58.9219 27.6563,-58.875 C27.6719,-58.7813 27.9375,-57.2813 28.375,-54.7188 C28.1563,-54.4844 27.9063,-54.2656 27.6563,-54.0156 C26.625,-53.0156 25.4375,-51.8906 24.0469,-50.5 C23.1875,-49.6406 22.2344,-48.7344 21.2344,-47.7656 C12.7969,-39.625 0,-27.2969 0,-8.14063 C0,-3.4375 0.90625,0.984375 2.6875,5 C4.26563,8.59375 6.5625,11.875 9.5,14.75 C17.2344,22.3125 27.8281,25.5156 34.875,25.3594 C37.8281,25.2813 40.4688,25.0469 42.8594,24.5938 C44.6875,34.2031 45.8281,41.2344 45.8594,46.5781 C45.9063,53.0938 44.25,57.0781 40.3594,59.8438 C37.9219,61.5781 35.1094,62.5313 32.0156,62.6719 C29.4219,62.7969 27.1563,62.3281 25.7344,61.9219 L25.7188,61.9219 C25.7188,61.9219 25.4375,61.8281 25.4219,61.6406 C25.4063,61.4531 25.7656,61.4063 25.7656,61.4063 L25.7969,61.4063 C27.7188,60.9688 31.2813,59.7344 33.6406,56.4375 C35.4375,53.9063 36.3125,49.2813 34.4688,45.3438 C33.3594,42.9531 30.8594,40 25.2344,39.5469 C22.7344,39.3438 20.4688,39.8594 18.4688,41.0625 C16.6563,42.1406 15.1563,43.7813 14.1094,45.7813 C11.6563,50.4844 12.1094,56.2188 15.2344,60.0625 C18.2031,63.6875 22.8125,66 28.25,66.5781 C29.1094,66.6719 29.9531,66.7031 30.7969,66.7031 C35.2344,66.7031 39.625,65.5 43.2031,63.2969 C46.8594,60.7188 48.9844,56.7344 49.6563,51.1094 C50.2188,46.4688 49.8281,40.5469 48.4375,32.4688 C48.0781,30.375 47.5313,27.3438 46.875,23.5938 C52.625,21.6719 56.7813,18.0938 60.5469,12.2344 C63.8438,6.5 64.7813,0.390625 63.3594,-5.92188 M29.1406,20.2969 C24.5,19.0781 20.0625,16.5781 16.3125,13.0625 C15,11.8438 13.125,9.67188 11.6563,6.28125 C10.2969,3.10938 9.625,-0.328125 9.6875,-3.90625 C9.75,-8.60938 11.0625,-13.4375 13.5625,-18.2188 C16.4844,-23.7969 21.0469,-29.3281 27.1094,-34.6563 C28.5625,-35.9375 29.9375,-37.2188 31.2188,-38.5 C31.9844,-34.2344 32.8125,-29.5469 33.6875,-24.6719 C29.8438,-23.4063 25.0938,-20.25 21.9844,-14.5938 C18.4375,-8.03125 18.5781,-2.5 19.3125,0.984375 C20.25,5.4375 22.7813,9.20313 26.2344,11.2969 C27.1719,11.8594 31.2969,13.9844 33.1406,13.4063 C33.5156,13.2969 33.7813,13.0625 33.9219,12.7344 C34.4375,11.5625 33.4063,10.9219 31.8594,9.96875 C31.25,9.59375 30.5781,9.17188 29.8594,8.64063 C26.5313,6.15625 25.0781,1.70313 26.1563,-2.6875 C26.7344,-5.07813 28.0156,-7.25 29.8594,-8.95313 C31.5156,-10.5 33.5625,-11.5938 35.9375,-12.2344 C37.9844,-0.984375 40.0469,10.1719 41.6875,18.5313 C41.8125,19.2188 41.9531,19.8906 42.0781,20.5625 C37.7031,21.5 33.3594,21.4063 29.1406,20.2969 M40.4688,-12.9063 C50.8125,-13.375 55.0781,-5.9375 55.9688,-1.10938 C56.4375,1.4375 56.4375,5.875 54.8906,10.0938 C53.7188,13.2656 51.2656,17.3438 46.125,19.4063 C46.0625,18.9844 45.9844,18.5469 45.9063,18.125 C44.3594,9.34375 42.4219,-1.65625 40.4688,-12.9063 M33.1406,-83.8594 C34.9219,-89.5938 37.6563,-92.8438 39.6563,-94.5781 C41.4063,-96.0938 43.0469,-96.8125 43.9688,-96.8125 C44.1094,-96.8125 44.2344,-96.7813 44.3281,-96.75 C44.7969,-96.6094 45.3281,-96.0469 45.7969,-95.1719 C48.1094,-90.8906 47.3594,-84.1719 46.0156,-79.7344 C44.3906,-74.3281 41.4688,-68.7188 32.6719,-59.1094 C32.5,-60.2188 32.3438,-61.2656 32.1875,-62.25 C30.9375,-70.5313 31.2656,-77.8125 33.1406,-83.8594"/>
<path class="Clef" transform="matrix(0.992,0,0,0.992,232.438,3320.83)" d="M63.3594,-5.92188 C62.125,-11.3438 59.4844,-15.1719 58.7031,-16.2031 C55.5156,-20.4844 51.5,-23.3281 46.8125,-24.6875 C43.7031,-25.5625 40.7031,-25.6875 38.2813,-25.5 C37.2344,-31.5156 36.2344,-37.3906 35.3281,-42.8438 C40.7813,-49.0156 44.4063,-54.8125 46.6875,-59.1094 C50.1563,-65.6875 51.2969,-70.2656 51.3594,-70.4688 C53.0781,-75.6875 53.4375,-83.3906 52.3281,-91.5938 C51.3281,-99.1406 49.2344,-105.859 46.875,-109.109 C45.8594,-110.531 44.7969,-111.266 43.7656,-111.266 C42.5469,-111.266 40.0313,-110.031 37.1406,-107.25 C34.8438,-105.063 31.5781,-101.172 29.0156,-95.1563 C26.0156,-88.0938 25.7969,-78.6094 26.1563,-71.8906 C26.5313,-64.6094 27.6406,-58.9219 27.6563,-58.875 C27.6719,-58.7813 27.9375,-57.2813 28.375,-54.7188 C28.1563,-54.4844 27.9063,-54.2656 27.6563,-54.0156 C26.625,-53.0156 25.4375,-51.8906 24.0469,-50.5 C23.1875,-49.6406 22.2344,-48.7344 21.2344,-47.7656 C12.7969,-39.625 0,-27.2969 0,-8.14063 C0,-3.4375 0.90625,0.984375 2.6875,5 C4.26563,8.59375 6.5625,11.875 9.5,14.75 C17.2344,22.3125 27.8281,25.5156 34.875,25.3594 C37.8281,25.2813 40.4688,25.0469 42.8594,24.5938 C44.6875,34.2031 45.8281,41.2344 45.8594,46.5781 C45.9063,53.0938 44.25,57.0781 40.3594,59.8438 C37.9219,61.5781 35.1094,62.5313 32.0156,62.6719 C29.4219,62.7969 27.1563,62.3281 25.7344,61.9219 L25.7188,61.9219 C25.7188,61.9219 25.4375,61.8281 25.4219,61.6406 C25.4063,61.4531 25.7656,61.4063 25.7656,61.4063 L25.7969,61.4063 C27.7188,60.9688 31.2813,59.7344 33.6406,56.4375 C35.4375,53.9063 36.3125,49.2813 34.4688,45.3438 C33.3594,42.9531 30.8594,40 25.2344,39.5469 C22.7344,39.3438 20.4688,39.8594 18.4688,41.0625 C16.6563,42.1406 15.1563,43.7813 14.1094,45.7813 C11.6563,50.4844 12.1094,56.2188 15.2344,60.0625 C18.2031,63.6875 22.8125,66 28.25,66.5781 C29.1094,66.6719 29.9531,66.7031 30.7969,66.7031 C35.2344,66.7031 39.625,65.5 43.2031,63.2969 C46.8594,60.7188 48.9844,56.7344 49.6563,51.1094 C50.2188,46.4688 49.8281,40.5469 48.4375,32.4688 C48.0781,30.375 47.5313,27.3438 46.875,23.5938 C52.625,21.6719 56.7813,18.0938 60.5469,12.2344 C63.8438,6.5 64.7813,0.390625 63.3594,-5.92188 M29.1406,20.2969 C24.5,19.0781 20.0625,16.5781 16.3125,13.0625 C15,11.8438 13.125,9.67188 11.6563,6.28125 C10.2969,3.10938 9.625,-0.328125 9.6875,-3.90625 C9.75,-8.60938 11.0625,-13.4375 13.5625,-18.2188 C16.4844,-23.7969 21.0469,-29.3281 27.1094,-34.6563 C28.5625,-35.9375 29.9375,-37.2188 31.2188,-38.5 C31.9844,-34.2344 32.8125,-29.5469 33.6875,-24.6719 C29.8438,-23.4063 25.0938,-20.25 21.9844,-14.5938 C18.4375,-8.03125 18.5781,-2.5 19.3125,0.984375 C20.25,5.4375 22.7813,9.20313 26.2344,11.2969 C27.1719,11.8594 31.2969,13.9844 33.1406,13.4063 C33.5156,13.2969 33.7813,13.0625 33.9219,12.7344 C34.4375,11.5625 33.4063,10.9219 31.8594,9.96875 C31.25,9.59375 30.5781,9.17188 29.8594,8.64063 C26.5313,6.15625 25.0781,1.70313 26.1563,-2.6875 C26.7344,-5.07813 28.0156,-7.25 29.8594,-8.95313 C31.5156,-10.5 33.5625,-11.5938 35.9375,-12.2344 C37.9844,-0.984375 40.0469,10.1719 41.6875,18.5313 C41.8125,19.2188 41.9531,19.8906 42.0781,20.5625 C37.7031,21.5 33.3594,21.4063 29.1406,20.2969 M40.4688,-12.9063 C50.8125,-13.375 55.0781,-5.9375 55.9688,-1.10938 C56.4375,1.4375 56.4375,5.875 54.8906,10.0938 C53.7188,13.2656 51.2656,17.3438 46.125,19.4063 C46.0625,18.9844 45.9844,18.5469 45.9063,18.125 C44.3594,9.34375 42.4219,-1.65625 40.4688,-12.9063 M33.1406,-83.8594 C34.9219,-89.5938 37.6563,-92.8438 39.6563,-94.5781 C41.4063,-96.0938 43.0469,-96.8125 43.9688,-96.8125 C44.1094,-96.8125 44.2344,-96.7813 44.3281,-96.75 C44.7969,-96.6094 45.3281,-96.0469 45.7969,-95.1719 C48.1094,-90.8906 47.3594,-84.1719 46.0156,-79.7344 C44.3906,-74.3281 41.4688,-68.7188 32.6719,-59.1094 C32.5,-60.2188 32.3438,-61.2656 32.1875,-62.25 C30.9375,-70.5313 31.2656,-77.8125 33.1406,-83.8594"/>
<path class="Clef" transform="matrix(0.992,0,0,0.992,232.438,3756.2)" d="M63.3594,-5.92188 C62.125,-11.3438 59.4844,-15.1719 58.7031,-16.2031 C55.5156,-20.4844 51.5,-23.3281 46.8125,-24.6875 C43.7031,-25.5625 40.7031,-25.6875 38.2813,-25.5 C37.2344,-31.5156 36.2344,-37.3906 35.3281,-42.8438 C40.7813,-49.0156 44.4063,-54.8125 46.6875,-59.1094 C50.1563,-65.6875 51.2969,-70.2656 51.3594,-70.4688 C53.0781,-75.6875 53.4375,-83.3906 52.3281,-91.5938 C51.3281,-99.1406 49.2344,-105.859 46.875,-109.109 C45.8594,-110.531 44.7969,-111.266 43.7656,-111.266 C42.5469,-111.266 40.0313,-110.031 37.1406,-107.25 C34.8438,-105.063 31.5781,-101.172 29.0156,-95.1563 C26.0156,-88.0938 25.7969,-78.6094 26.1563,-71.8906 C26.5313,-64.6094 27.6406,-58.9219 27.6563,-58.875 C27.6719,-58.7813 27.9375,-57.2813 28.375,-54.7188 C28.1563,-54.4844 27.9063,-54.2656 27.6563,-54.0156 C26.625,-53.0156 25.4375,-51.8906 24.0469,-50.5 C23.1875,-49.6406 22.2344,-48.7344 21.2344,-47.7656 C12.7969,-39.625 0,-27.2969 0,-8.14063 C0,-3.4375 0.90625,0.984375 2.6875,5 C4.26563,8.59375 6.5625,11.875 9.5,14.75 C17.2344,22.3125 27.8281,25.5156 34.875,25.3594 C37.8281,25.2813 40.4688,25.0469 42.8594,24.5938 C44.6875,34.2031 45.8281,41.2344 45.8594,46.5781 C45.9063,53.0938 44.25,57.0781 40.3594,59.8438 C37.9219,61.5781 35.1094,62.5313 32.0156,62.6719 C29.4219,62.7969 27.1563,62.3281 25.7344,61.9219 L25.7188,61.9219 C25.7188,61.9219 25.4375,61.8281 25.4219,61.6406 C25.4063,61.4531 25.7656,61.4063 25.7656,61.4063 L25.7969,61.4063 C27.7188,60.9688 31.2813,59.7344 33.6406,56.4375 C35.4375,53.9063 36.3125,49.2813 34.4688,45.3438 C33.3594,42.9531 30.8594,40 25.2344,39.5469 C22.7344,39.3438 20.4688,39.8594 18.4688,41.0625 C16.6563,42.1406 15.1563,43.7813 14.1094,45.7813 C11.6563,50.4844 12.1094,56.2188 15.2344,60.0625 C18.2031,63.6875 22.8125,66 28.25,66.5781 C29.1094,66.6719 29.9531,66.7031 30.7969,66.7031 C35.2344,66.7031 39.625,65.5 43.2031,63.2969 C46.8594,60.7188 48.9844,56.7344 49.6563,51.1094 C50.2188,46.4688 49.8281,40.5469 48.4375,32.4688 C48.0781,30.375 47.5313,27.3438 46.875,23.5938 C52.625,21.6719 56.7813,18.0938 60.5469,12.2344 C63.8438,6.5 64.7813,0.390625 63.3594,-5.92188 M29.1406,20.2969 C24.5,19.0781 20.0625,16.5781 16.3125,13.0625 C15,11.8438 13.125,9.67188 11.6563,6.28125 C10.2969,3.10938 9.625,-0.328125 9.6875,-3.90625 C9.75,-8.60938 11.0625,-13.4375 13.5625,-18.2188 C16.4844,-23.7969 21.0469,-29.3281 27.1094,-34.6563 C28.5625,-35.9375 29.9375,-37.2188 31.2188,-38.5 C31.9844,-34.2344 32.8125,-29.5469 33.6875,-24.6719 C29.8438,-23.4063 25.0938,-20.25 21.9844,-14.5938 C18.4375,-8.03125 18.5781,-2.5 19.3125,0.984375 C20.25,5.4375 22.7813,9.20313 26.2344,11.2969 C27.1719,11.8594 31.2969,13.9844 33.1406,13.4063 C33.5156,13.2969 33.7813,13.0625 33.9219,12.7344 C34.4375,11.5625 33.4063,10.9219 31.8594,9.96875 C31.25,9.59375 30.5781,9.17188 29.8594,8.64063 C26.5313,6.15625 25.0781,1.70313 26.1563,-2.6875 C26.7344,-5.07813 28.0156,-7.25 29.8594,-8.95313 C31.5156,-10.5 33.5625,-11.5938 35.9375,-12.2344 C37.9844,-0.984375 40.0469,10.1719 41.6875,18.5313 C41.8125,19.2188 41.9531,19.8906 42.0781,20.5625 C37.7031,21.5 33.3594,21.4063 29.1406,20.2969 M40.4688,-12.9063 C50.8125,-13.375 55.0781,-5.9375 55.9688,-1.10938 C56.4375,1.4375 56.4375,5.875 54.8906,10.0938 C53.7188,13.2656 51.2656,17.3438 46.125,19.4063 C46.0625,18.9844 45.9844,18.5469 45.9063,18.125 C44.3594,9.34375 42.4219,-1.65625 40.4688,-12.9063 M33.1406,-83.8594 C34.9219,-89.5938 37.6563,-92.8438 39.6563,-94.5781 C41.4063,-96.0938 43.0469,-96.8125 43.9688,-96.8125 C44.1094,-96.8125 44.2344,-96.7813 44.3281,-96.75 C44.7969,-96.6094 45.3281,-96.0469 45.7969,-95.1719 C48.1094,-90.8906 47.3594,-84.1719 46.0156,-79.7344 C44.3906,-74.3281 41.4688,-68.7188 32.6719,-59.1094 C32.5,-60.2188 32.3438,-61.2656 32.1875,-62.25 C30.9375,-70.5313 31.2656,-77.8125 33.1406,-83.8594"/>
<path class="TimeSig" transform="matrix(0.992,0,0,0.992,443.347,659.13)" d="M3.59375,12.625 L20.7656,12.625 L20.7656,20.0781 L12.5469,20.0781 C11.7656,20.0781 11.125,20.7031 11.125,21.4844 L11.125,23.3906 C11.125,24.1719 11.7656,24.7969 12.5469,24.7969 L42.7969,24.7969 C43.5781,24.7969 44.2031,24.1719 44.2031,23.3906 L44.2031,21.4844 C44.2031,20.7031 43.5781,20.0781 42.7969,20.0781 L33.8594,20.0781 L33.8594,12.625 L42.7969,12.625 C43.5781,12.625 44.2031,12 44.2031,11.2188 L44.2031,9.3125 C44.2031,8.53125 43.5781,7.90625 42.7969,7.90625 L33.8594,7.90625 L33.8594,-8.0625 C33.8594,-8.59375 33.5469,-9.07813 33.0781,-9.3125 L31.8594,-9.92188 C31.3281,-10.1719 30.7031,-10.0781 30.2656,-9.6875 L21.2188,-1.375 C20.9375,-1.09375 20.7656,-0.734375 20.7656,-0.328125 L20.7656,7.90625 L9.25,7.90625 C9.25,7.90625 20.375,-4.125 32.2188,-19.8906 C33.0781,-21.0469 32.5781,-22.0938 32.3906,-22.2813 L30.2188,-24.4844 C29.9531,-24.75 29.5938,-24.9063 29.2188,-24.9063 C28.625,-24.9063 15.0625,-24.875 14.3438,-24.9063 C13.625,-24.9219 13.0938,-24.2969 13.0156,-23.6875 C13.0156,-23.6875 12.4844,-16.3281 9.875,-8.1875 C7.28125,-0.078125 4.34375,4.90625 1.6875,8.53125 C1.6875,8.53125 1.14063,9.51563 1.5,10.2656 C1.84375,11.0156 2.48438,12.0938 2.48438,12.0938 C2.48438,12.0938 2.73438,12.625 3.59375,12.625"/>
<path class="TimeSig" transform="matrix(0.992,0,0,0.992,443.347,708.467)" d="M3.59375,12.625 L20.7656,12.625 L20.7656,20.0781 L12.5469,20.0781 C11.7656,20.0781 11.125,20.7031 11.125,21.4844 L11.125,23.3906 C11.125,24.1719 11.7656,24.7969 12.5469,24.7969 L42.7969,24.7969 C43.5781,24.7969 44.2031,24.1719 44.2031,23.3906 L44.2031,21.4844 C44.2031,20.7031 43.5781,20.0781 42.7969,20.0781 L33.8594,20.0781 L33.8594,12.625 L42.7969,12.625 C43.5781,12.625 44.2031,12 44.2031,11.2188 L44.2031,9.3125 C44.2031,8.53125 43.5781,7.90625 42.7969,7.90625 L33.8594,7.90625 L33.8594,-8.0625 C33.8594,-8.59375 33.5469,-9.07813 33.0781,-9.3125 L31.8594,-9.92188 C31.3281,-10.1719 30.7031,-10.0781 30.2656,-9.6875 L21.2188,-1.375 C20.9375,-1.09375 20.7656,-0.734375 20.7656,-0.328125 L20.7656,7.90625 L9.25,7.90625 C9.25,7.90625 20.375,-4.125 32.2188,-19.8906 C33.0781,-21.0469 32.5781,-22.0938 32.3906,-22.2813 L30.2188,-24.4844 C29.9531,-24.75 29.5938,-24.9063 29.2188,-24.9063 C28.625,-24.9063 15.0625,-24.875 14.3438,-24.9063 C13.625,-24.9219 13.0938,-24.2969 13.0156,-23.6875 C13.0156,-23.6875 12.4844,-16.3281 9.875,-8.1875 C7.28125,-0.078125 4.34375,4.90625 1.6875,8.53125 C1.6875,8.53125 1.14063,9.51563 1.5,10.2656 C1.84375,11.0156 2.48438,12.0938 2.48438,12.0938 C2.48438,12.0938 2.73438,12.625 3.59375,12.625"/>
<path class="Rest" transform="matrix(0.992,0,0,0.992,1621.66,683.798)" d="M23.2031,16.9063 L23,16.5938 C22.9063,16.5 22.7031,16.2969 22.4063,15.9063 L10.9063,1.70313 C10.5938,1.40625 10.7031,0.59375 10.9063,0.203125 L21.0938,-15.2031 C21.2031,-15.4063 21.2969,-15.7031 21.2969,-15.9063 L21.2969,-16.7969 C21.2969,-17.0938 21.2031,-17.4063 21,-17.5938 L4.79688,-39.5 C4.79688,-39.5 4,-40.7031 3,-39.7969 C2,-39 2.79688,-37.7031 2.79688,-37.7031 L10.4063,-27.2969 C10.7969,-26.7031 10.7969,-25.5 10.4063,-24.9063 L0.296875,-9.5 C0.203125,-9.29688 0.09375,-8.90625 0.09375,-8.70313 L0.09375,-7.79688 C0.09375,-7.5 0.203125,-7.20313 0.40625,-7 L11.5938,6.90625 C11.2031,6.79688 10.2969,6.59375 9.09375,6.59375 C7.40625,6.59375 5.20313,7 3.40625,8.59375 C1.20313,10.5938 0,13.4063 0,15.9063 C0,17.2969 0.296875,18.7031 1.09375,19.7969 C3.20313,23 10.7031,32.5 10.7031,32.5 C10.7031,32.5 11.5938,33.6094 12.5,32.9063 C13.4063,32.2031 13.2031,31.2969 12.9063,30.7969 C12.5938,30.2969 9.40625,24.5 9.40625,24.5 C9.40625,24.5 8.70313,23.0938 8.70313,21.2969 C8.70313,20 9.09375,18.4063 10.4063,17.0938 C11.5938,15.9063 13,15.5 14.2969,15.5 C15.5938,15.5 16.7031,15.9063 17.5,16.4063 L21.4063,18.9063 C21.4063,18.9063 22.5938,19.5 23.2031,18.5938 C23.7031,17.7969 23.5,17.4063 23.2031,16.9063"/>
<path class="Rest" transform="matrix(0.992,0,0,0.992,2000.21,658.998)" d="M31.1094,-0.5 L1.40625,-0.5 C0.59375,-0.5 0,0.09375 0,0.90625 L0,11.7031 C0,12.5 0.59375,13.0938 1.40625,13.0938 L31.1094,13.0938 C31.9063,13.0938 32.5,12.5 32.5,11.7031 L32.5,0.90625 C32.5,0.09375 31.9063,-0.5 31.1094,-0.5"/>
<path class="Rest" transform="matrix(0.992,0,0,0.992,2497.03,658.998)" d="M31.1094,-0.5 L1.40625,-0.5 C0.59375,-0.5 0,0.09375 0,0.90625 L0,11.7031 C0,12.5 0.59375,13.0938 1.40625,13.0938 L31.1094,13.0938 C31.9063,13.0938 32.5,12.5 32.5,11.7031 L32.5,0.90625 C32.5,0.09375 31.9063,-0.5 31.1094,-0.5"/>
<path class="Rest" transform="matrix(0.992,0,0,0.992,590.507,1094.37)" d="M31.1094,-0.5 L1.40625,-0.5 C0.59375,-0.5 0,0.09375 0,0.90625 L0,11.7031 C0,12.5 0.59375,13.0938 1.40625,13.0938 L31.1094,13.0938 C31.9063,13.0938 32.5,12.5 32.5,11.7031 L32.5,0.90625 C32.5,0.09375 31.9063,-0.5 31.1094,-0.5"/>
<path class="Rest" transform="matrix(0.992,0,0,0.992,1210.45,1094.37)" d="M31.1094,-0.5 L1.40625,-0.5 C0.59375,-0.5 0,0.09375 0,0.90625 L0,11.7031 C0,12.5 0.59375,13.0938 1.40625,13.0938 L31.1094,13.0938 C31.9063,13.0938 32.5,12.5 32.5,11.7031 L32.5,0.90625 C32.5,0.09375 31.9063,-0.5 31.1094,-0.5"/>
<path class="Rest" transform="matrix(0.992,0,0,0.992,1824.44,1094.37)" d="M31.1094,-0.5 L1.40625,-0.5 C0.59375,-0.5 0,0.09375 0,0.90625 L0,11.7031 C0,12.5 0.59375,13.0938 1.40625,13.0938 L31.1094,13.0938 C31.9063,13.0938 32.5,12.5 32.5,11.7031 L32.5,0.90625 C32.5,0.09375 31.9063,-0.5 31.1094,-0.5"/>
<path class="Rest" transform="matrix(0.992,0,0,0.992,2438.43,1094.37)" d="M31.1094,-0.5 L1.40625,-0.5 C0.59375,-0.5 0,0.09375 0,0.90625 L0,11.7031 C0,12.5 0.59375,13.0938 1.40625,13.0938 L31.1094,13.0938 C31.9063,13.0938 32.5,12.5 32.5,11.7031 L32.5,0.90625 C32.5,0.09375 31.9063,-0.5 31.1094,-0.5"/>
<path class="Rest" transform="matrix(0.992,0,0,0.992,590.507,1529.74)" d="M31.1094,-0.5 L1.40625,-0.5 C0.59375,-0.5 0,0.09375 0,0.90625 L0,11.7031 C0,12.5 0.59375,13.0938 1.40625,13.0938 L31.1094,13.0938 C31.9063,13.0938 32.5,12.5 32.5,11.7031 L32.5,0.90625 C32.5,0.09375 31.9063,-0.5 31.1094,-0.5"/>
<path class="Rest" transform="matrix(0.992,0,0,0.992,1210.45,1529.74)" d="M31.1094,-0.5 L1.40625,-0.5 C0.59375,-0.5 0,0.09375 0,0.90625 L0,11.7031 C0,12.5 0.59375,13.0938 1.40625,13.0938 L31.1094,13.0938 C31.9063,13.0938 32.5,12.5 32.5,11.7031 L32.5,0.90625 C32.5,0.09375 31.9063,-0.5 31.1094,-0.5"/>
<path class="Rest" transform="matrix(0.992,0,0,0.992,1824.44,1529.74)" d="M31.1094,-0.5 L1.40625,-0.5 C0.59375,-0.5 0,0.09375 0,0.90625 L0,11.7031 C0,12.5 0.59375,13.0938 1.40625,13.0938 L31.1094,13.0938 C31.9063,13.0938 32.5,12.5 32.5,11.7031 L32.5,0.90625 C32.5,0.09375 31.9063,-0.5 31.1094,-0.5"/>
<path class="Rest" transform="matrix(0.992,0,0,0.992,2438.43,1529.74)" d="M31.1094,-0.5 L1.40625,-0.5 C0.59375,-0.5 0,0.09375 0,0.90625 L0,11.7031 C0,12.5 0.59375,13.0938 1.40625,13.0938 L31.1094,13.0938 C31.9063,13.0938 32.5,12.5 32.5,11.7031 L32.5,0.90625 C32.5,0.09375 31.9063,-0.5 31.1094,-0.5"/>
<path class="Rest" transform="matrix(0.992,0,0,0.992,590.507,1965.11)" d="M31.1094,-0.5 L1.40625,-0.5 C0.59375,-0.5 0,0.09375 0,0.90625 L0,11.7031 C0,12.5 0.59375,13.0938 1.40625,13.0938 L31.1094,13.0938 C31.9063,13.0938 32.5,12.5 32.5,11.7031 L32.5,0.90625 C32.5,0.09375 31.9063,-0.5 31.1094,-0.5"/>
<path class="Rest" transform="matrix(0.992,0,0,0.992,1210.45,1965.11)" d="M31.1094,-0.5 L1.40625,-0.5 C0.59375,-0.5 0,0.09375 0,0.90625 L0,11.7031 C0,12.5 0.59375,13.0938 1.40625,13.0938 L31.1094,13.0938 C31.9063,13.0938 32.5,12.5 32.5,11.7031 L32.5,0.90625 C32.5,0.09375 31.9063,-0.5 31.1094,-0.5"/>
<path class="Rest" transform="matrix(0.992,0,0,0.992,1824.44,1965.11)" d="M31.1094,-0.5 L1.40625,-0.5 C0.59375,-0.5 0,0.09375 0,0.90625 L0,11.7031 C0,12.5 0.59375,13.0938 1.40625,13.0938 L31.1094,13.0938 C31.9063,13.0938 32.5,12.5 32.5,11.7031 L32.5,0.90625 C32.5,0.09375 31.9063,-0.5 31.1094,-0.5"/>
<path class="Rest" transform="matrix(0.992,0,0,0.992,2438.43,1965.11)" d="M31.1094,-0.5 L1.40625,-0.5 C0.59375,-0.5 0,0.09375 0,0.90625 L0,11.7031 C0,12.5 0.59375,13.0938 1.40625,13.0938 L31.1094,13.0938 C31.9063,13.0938 32.5,12.5 32.5,11.7031 L32.5,0.90625 C32.5,0.09375 31.9063,-0.5 31.1094,-0.5"/>
<path class="Rest" transform="matrix(0.992,0,0,0.992,590.507,2400.49)" d="M31.1094,-0.5 L1.40625,-0.5 C0.59375,-0.5 0,0.09375 0,0.90625 L0,11.7031 C0,12.5 0.59375,13.0938 1.40625,13.0938 L31.1094,13.0938 C31.9063,13.0938 32.5,12.5 32.5,11.7031 L32.5,0.90625 C32.5,0.09375 31.9063,-0.5 31.1094,-0.5"/>
<path class="Rest" transform="matrix(0.992,0,0,0.992,1210.45,2400.49)" d="M31.1094,-0.5 L1.40625,-0.5 C0.59375,-0.5 0,0.09375 0,0.90625 L0,11.7031 C0,12.5 0.59375,13.0938 1.40625,13.0938 L31.1094,13.0938 C31.9063,13.0938 32.5,12.5 32.5,11.7031 L32.5,0.90625 C32.5,0.09375 31.9063,-0.5 31.1094,-0.5"/>
<path class="Rest" transform="matrix(0.992,0,0,0.992,1824.44,2400.49)" d="M31.1094,-0.5 L1.40625,-0.5 C0.59375,-0.5 0,0.09375 0,0.90625 L0,11.7031 C0,12.5 0.59375,13.0938 1.40625,13.0938 L31.1094,13.0938 C31.9063,13.0938 32.5,12.5 32.5,11.7031 L32.5,0.90625 C32.5,0.09375 31.9063,-0.5 31.1094,-0.5"/>
<path class="Rest" transform="matrix(0.992,0,0,0.992,2438.43,2400.49)" d="M31.1094,-0.5 L1.40625,-0.5 C0.59375,-0.5 0,0.09375 0,0.90625 L0,11.7031 C0,12.5 0.59375,13.0938 1.40625,13.0938 L31.1094,13.0938 C31.9063,13.0938 32.5,12.5 32.5,11.7031 L32.5,0.90625 C32.5,0.09375 31.9063,-0.5 31.1094,-0.5"/>
<path class="Rest" transform="matrix(0.992,0,0,0.992,590.507,2835.86)" d="M31.1094,-0.5 L1.40625,-0.5 C0.59375,-0.5 0,0.09375 0,0.90625 L0,11.7031 C0,12.5 0.59375,13.0938 1.40625,13.0938 L31.1094,13.0938 C31.9063,13.0938 32.5,12.5 32.5,11.7031 L32.5,0.90625 C32.5,0.09375 31.9063,-0.5 31.1094,-0.5"/>
<path class="Rest" transform="matrix(0.992,0,0,0.992,1210.45,2835.86)" d="M31.1094,-0.5 L1.40625,-0.5 C0.59375,-0.5 0,0.09375 0,0.90625 L0,11.7031 C0,12.5 0.59375,13.0938 1.40625,13.0938 L31.1094,13.0938 C31.9063,13.0938 32.5,12.5 32.5,11.7031 L32.5,0.90625 C32.5,0.09375 31.9063,-0.5 31.1094,-0.5"/>
<path class="Rest" transform="matrix(0.992,0,0,0.992,1824.44,2835.86)" d="M31.1094,-0.5 L1.40625,-0.5 C0.59375,-0.5 0,0.09375 0,0.90625 L0,11.7031 C0,12.5 0.59375,13.0938 1.40625,13.0938 L31.1094,13.0938 C31.9063,13.0938 32.5,12.5 32.5,11.7031 L32.5,0.90625 C32.5,0.09375 31.9063,-0.5 31.1094,-0.5"/>
<path class="Rest" transform="matrix(0.992,0,0,0.992,2438.43,2835.86)" d="M31.1094,-0.5 L1.40625,-0.5 C0.59375,-0.5 0,0.09375 0,0.90625 L0,11.7031 C0,12.5 0.59375,13.0938 1.40625,13.0938 L31.1094,13.0938 C31.9063,13.0938 32.5,12.5 32.5,11.7031 L32.5,0.90625 C32.5,0.09375 31.9063,-0.5 31.1094,-0.5"/>
<path class="Rest" transform="matrix(0.992,0,0,0.992,590.507,3271.23)" d="M31.1094,-0.5 L1.40625,-0.5 C0.59375,-0.5 0,0.09375 0,0.90625 L0,11.7031 C0,12.5 0.59375,13.0938 1.40625,13.0938 L31.1094,13.0938 C31.9063,13.0938 32.5,12.5 32.5,11.7031 L32.5,0.90625 C32.5,0.09375 31.9063,-0.5 31.1094,-0.5"/>
<path class="Rest" transform="matrix(0.992,0,0,0.992,1210.45,3271.23)" d="M31.1094,-0.5 L1.40625,-0.5 C0.59375,-0.5 0,0.09375 0,0.90625 L0,11.7031 C0,12.5 0.59375,13.0938 1.40625,13.0938 L31.1094,13.0938 C31.9063,13.0938 32.5,12.5 32.5,11.7031 L32.5,0.90625 C32.5,0.09375 31.9063,-0.5 31.1094,-0.5"/>
<path class="Rest" transform="matrix(0.992,0,0,0.992,1824.44,3271.23)" d="M31.1094,-0.5 L1.40625,-0.5 C0.59375,-0.5 0,0.09375 0,0.90625 L0,11.7031 C0,12.5 0.59375,13.0938 1.40625,13.0938 L31.1094,13.0938 C31.9063,13.0938 32.5,12.5 32.5,11.7031 L32.5,0.90625 C32.5,0.09375 31.9063,-0.5 31.1094,-0.5"/>
<path class="Rest" transform="matrix(0.992,0,0,0.992,2438.43,3271.23)" d="M31.1094,-0.5 L1.40625,-0.5 C0.59375,-0.5 0,0.09375 0,0.90625 L0,11.7031 C0,12.5 0.59375,13.0938 1.40625,13.0938 L31.1094,13.0938 C31.9063,13.0938 32.5,12.5 32.5,11.7031 L32.5,0.90625 C32.5,0.09375 31.9063,-0.5 31.1094,-0.5"/>
<path class="Rest" transform="matrix(0.992,0,0,0.992,433.809,3706.6)" d="M31.1094,-0.5 L1.40625,-0.5 C0.59375,-0.5 0,0.09375 0,0.90625 L0,11.7031 C0,12.5 0.59375,13.0938 1.40625,13.0938 L31.1094,13.0938 C31.9063,13.0938 32.5,12.5 32.5,11.7031 L32.5,0.90625 C32.5,0.09375 31.9063,-0.5 31.1094,-0.5"/>
<path class="Rest" transform="matrix(0.992,0,0,0.992,740.353,3706.6)" d="M31.1094,-0.5 L1.40625,-0.5 C0.59375,-0.5 0,0.09375 0,0.90625 L0,11.7031 C0,12.5 0.59375,13.0938 1.40625,13.0938 L31.1094,13.0938 C31.9063,13.0938 32.5,12.5 32.5,11.7031 L32.5,0.90625 C32.5,0.09375 31.9063,-0.5 31.1094,-0.5"/>
<path class="Rest" transform="matrix(0.992,0,0,0.992,1040.95,3706.6)" d="M31.1094,-0.5 L1.40625,-0.5 C0.59375,-0.5 0,0.09375 0,0.90625 L0,11.7031 C0,12.5 0.59375,13.0938 1.40625,13.0938 L31.1094,13.0938 C31.9063,13.0938 32.5,12.5 32.5,11.7031 L32.5,0.90625 C32.5,0.09375 31.9063,-0.5 31.1094,-0.5"/>
<path class="Rest" transform="matrix(0.992,0,0,0.992,1332.61,3706.6)" d="M31.1094,-0.5 L1.40625,-0.5 C0.59375,-0.5 0,0.09375 0,0.90625 L0,11.7031 C0,12.5 0.59375,13.0938 1.40625,13.0938 L31.1094,13.0938 C31.9063,13.0938 32.5,12.5 32.5,11.7031 L32.5,0.90625 C32.5,0.09375 31.9063,-0.5 31.1094,-0.5"/>
</svg>
