<?xml version="1.0" encoding="UTF-8" standalone="no"?>
<svg
   width="414.07602"
   height="153.57384"
   viewBox="0 0 414.07603 153.57383"
   version="1.2"
   id="svg107001"
   sodipodi:docname="notes.svg"
   inkscape:version="1.2.1 (9c6d41e410, 2022-07-14)"
   xmlns:inkscape="http://www.inkscape.org/namespaces/inkscape"
   xmlns:sodipodi="http://sodipodi.sourceforge.net/DTD/sodipodi-0.dtd"
   xmlns="http://www.w3.org/2000/svg"
   xmlns:svg="http://www.w3.org/2000/svg"
   xmlns:rdf="http://www.w3.org/1999/02/22-rdf-syntax-ns#"
   xmlns:cc="http://creativecommons.org/ns#"
   xmlns:dc="http://purl.org/dc/elements/1.1/">
  <defs
     id="defs107005" />
  <sodipodi:namedview
     id="namedview107003"
     pagecolor="#ffffff"
     bordercolor="#000000"
     borderopacity="0.25"
     inkscape:showpageshadow="2"
     inkscape:pageopacity="0.0"
     inkscape:pagecheckerboard="0"
     inkscape:deskcolor="#d1d1d1"
     showgrid="false"
     inkscape:zoom="1.2634808"
     inkscape:cx="322.52172"
     inkscape:cy="250.49846"
     inkscape:window-width="2240"
     inkscape:window-height="1375"
     inkscape:window-x="0"
     inkscape:window-y="0"
     inkscape:window-maximized="1"
     inkscape:current-layer="svg107001" />
  <title
     id="title105679">Без названия-3 (1)</title>
  <desc
     id="desc105681">Generated by MuseScore 3.6.2</desc>
  <g
     id="g107289"
     transform="matrix(2.3154238,0,0,2.3154238,-795.39483,-631.80274)">
    <polyline
       class="StaffLines"
       fill="none"
       stroke="#000000"
       stroke-width="2.73"
       stroke-linejoin="bevel"
       points="376.055,386.22 2763.78,386.22"
       id="polyline105683"
       transform="matrix(0.07271592,0,0,0.13897777,320.69662,234.94455)" />
    <polyline
       class="StaffLines"
       fill="none"
       stroke="#000000"
       stroke-width="2.73"
       stroke-linejoin="bevel"
       points="376.055,411.024 2763.78,411.024"
       id="polyline105685"
       transform="matrix(0.07271592,0,0,0.13897777,320.69662,234.94455)" />
    <polyline
       class="StaffLines"
       fill="none"
       stroke="#000000"
       stroke-width="2.73"
       stroke-linejoin="bevel"
       points="376.055,435.827 2763.78,435.827"
       id="polyline105687"
       transform="matrix(0.07271592,0,0,0.13897777,320.69662,234.94455)" />
    <polyline
       class="StaffLines"
       fill="none"
       stroke="#000000"
       stroke-width="2.73"
       stroke-linejoin="bevel"
       points="376.055,460.63 2763.78,460.63"
       id="polyline105689"
       transform="matrix(0.07271592,0,0,0.13897777,320.69662,234.94455)" />
    <polyline
       class="StaffLines"
       fill="none"
       stroke="#000000"
       stroke-width="2.73"
       stroke-linejoin="bevel"
       points="376.055,485.433 2763.78,485.433"
       id="polyline105691"
       transform="matrix(0.07271592,0,0,0.13897777,320.69662,234.94455)" />
    <polyline
       class="StaffLines"
       fill="none"
       stroke="#000000"
       stroke-width="2.73"
       stroke-linejoin="bevel"
       points="376.055,649.534 2763.78,649.534"
       id="polyline105693"
       transform="matrix(0.07271592,0,0,0.13897777,320.69662,234.94455)" />
    <polyline
       class="StaffLines"
       fill="none"
       stroke="#000000"
       stroke-width="2.73"
       stroke-linejoin="bevel"
       points="376.055,674.337 2763.78,674.337"
       id="polyline105695"
       transform="matrix(0.07271592,0,0,0.13897777,320.69662,234.94455)" />
    <polyline
       class="StaffLines"
       fill="none"
       stroke="#000000"
       stroke-width="2.73"
       stroke-linejoin="bevel"
       points="376.055,699.14 2763.78,699.14"
       id="polyline105697"
       transform="matrix(0.07271592,0,0,0.13897777,320.69662,234.94455)" />
    <polyline
       class="StaffLines"
       fill="none"
       stroke="#000000"
       stroke-width="2.73"
       stroke-linejoin="bevel"
       points="376.055,723.943 2763.78,723.943"
       id="polyline105699"
       transform="matrix(0.07271592,0,0,0.13897777,320.69662,234.94455)" />
    <polyline
       class="StaffLines"
       fill="none"
       stroke="#000000"
       stroke-width="2.73"
       stroke-linejoin="bevel"
       points="376.055,748.747 2763.78,748.747"
       id="polyline105701"
       transform="matrix(0.07271592,0,0,0.13897777,320.69662,234.94455)" />
    <g
       id="g107201"
       transform="matrix(0.13897777,0,0,0.13897777,295.77852,234.94455)">
      <polyline
         class="BarLine"
         fill="none"
         stroke="#000000"
         stroke-width="4.46"
         stroke-linejoin="bevel"
         points="378.287,648.17 378.287,750.111"
         id="polyline105835" />
      <polyline
         class="BarLine"
         fill="none"
         stroke="#000000"
         stroke-width="4.46"
         stroke-linejoin="bevel"
         points="631.978,648.17 631.978,750.111"
         id="polyline105837" />
      <polyline
         class="BarLine"
         fill="none"
         stroke="#000000"
         stroke-width="4.46"
         stroke-linejoin="bevel"
         points="774.617,648.17 774.617,750.111"
         id="polyline105839" />
      <polyline
         class="BarLine"
         fill="none"
         stroke="#000000"
         stroke-width="4.46"
         stroke-linejoin="bevel"
         points="917.256,648.17 917.256,750.111"
         id="polyline105841" />
      <polyline
         class="BarLine"
         fill="none"
         stroke="#000000"
         stroke-width="4.46"
         stroke-linejoin="bevel"
         points="1059.42,648.17 1059.42,750.111"
         id="polyline105843" />
      <polyline
         class="BarLine"
         fill="none"
         stroke="#000000"
         stroke-width="4.46"
         stroke-linejoin="bevel"
         points="1201.58,648.17 1201.58,750.111"
         id="polyline105845" />
      <polyline
         class="BarLine"
         fill="none"
         stroke="#000000"
         stroke-width="4.46"
         stroke-linejoin="bevel"
         points="1343.74,648.17 1343.74,750.111"
         id="polyline105847" />
      <polyline
         class="BarLine"
         fill="none"
         stroke="#000000"
         stroke-width="4.46"
         stroke-linejoin="bevel"
         points="1485.9,648.17 1485.9,750.111"
         id="polyline105849" />
      <polyline
         class="BarLine"
         fill="none"
         stroke="#000000"
         stroke-width="4.46"
         stroke-linejoin="bevel"
         points="1628.07,648.17 1628.07,750.111"
         id="polyline105851" />
      <polyline
         class="BarLine"
         fill="none"
         stroke="#000000"
         stroke-width="4.46"
         stroke-linejoin="bevel"
         points="378.287,384.856 378.287,649.534"
         id="polyline106085" />
      <polyline
         class="BarLine"
         fill="none"
         stroke="#000000"
         stroke-width="4.46"
         stroke-linejoin="bevel"
         points="631.978,384.856 631.978,649.534"
         id="polyline106087" />
      <polyline
         class="BarLine"
         fill="none"
         stroke="#000000"
         stroke-width="4.46"
         stroke-linejoin="bevel"
         points="774.617,384.856 774.617,649.534"
         id="polyline106089" />
      <polyline
         class="BarLine"
         fill="none"
         stroke="#000000"
         stroke-width="4.46"
         stroke-linejoin="bevel"
         points="917.256,384.856 917.256,649.534"
         id="polyline106091" />
      <polyline
         class="BarLine"
         fill="none"
         stroke="#000000"
         stroke-width="4.46"
         stroke-linejoin="bevel"
         points="1059.42,384.856 1059.42,649.534"
         id="polyline106093" />
      <polyline
         class="BarLine"
         fill="none"
         stroke="#000000"
         stroke-width="4.46"
         stroke-linejoin="bevel"
         points="1201.58,384.856 1201.58,649.534"
         id="polyline106095" />
      <polyline
         class="BarLine"
         fill="none"
         stroke="#000000"
         stroke-width="4.46"
         stroke-linejoin="bevel"
         points="1343.74,384.856 1343.74,649.534"
         id="polyline106097" />
      <polyline
         class="BarLine"
         fill="none"
         stroke="#000000"
         stroke-width="4.46"
         stroke-linejoin="bevel"
         points="1485.9,384.856 1485.9,649.534"
         id="polyline106099" />
      <polyline
         class="BarLine"
         fill="none"
         stroke="#000000"
         stroke-width="4.46"
         stroke-linejoin="bevel"
         points="1628.07,384.856 1628.07,649.534"
         id="polyline106101" />
      <polyline
         class="LedgerLine"
         fill="none"
         stroke="#000000"
         stroke-width="3.97"
         stroke-linejoin="bevel"
         points="1520.38,624.731 1574.75,624.731"
         id="polyline106335" />
      <polyline
         class="LedgerLine"
         fill="none"
         stroke="#000000"
         stroke-width="3.97"
         stroke-linejoin="bevel"
         points="525.851,510.236 580.216,510.236"
         id="polyline106339" />
      <polyline
         class="LedgerLine"
         fill="none"
         stroke="#000000"
         stroke-width="3.97"
         stroke-linejoin="bevel"
         points="1236.06,361.417 1290.42,361.417"
         id="polyline106341" />
      <polyline
         class="LedgerLine"
         fill="none"
         stroke="#000000"
         stroke-width="3.97"
         stroke-linejoin="bevel"
         points="1378.22,361.417 1432.58,361.417"
         id="polyline106343" />
      <polyline
         class="LedgerLine"
         fill="none"
         stroke="#000000"
         stroke-width="3.97"
         stroke-linejoin="bevel"
         points="1520.38,361.417 1574.75,361.417"
         id="polyline106345" />
      <polyline
         class="LedgerLine"
         fill="none"
         stroke="#000000"
         stroke-width="3.97"
         stroke-linejoin="bevel"
         points="1520.38,336.614 1574.75,336.614"
         id="polyline106347" />
      <path
         class="Note"
         d="m 553.08783,698.05524 c -13.68821,0 -18.55583,6.94493 -18.55583,13.39375 0,6.44882 4.86762,13.39375 18.55583,13.39375 13.68827,0 18.44739,-6.94493 18.44739,-13.39375 0,-6.44882 -4.75912,-13.39375 -18.44739,-13.39375 m -8.23147,9.02219 c -0.10854,-0.40305 -0.10854,-0.7906 -0.10854,-1.19365 0,-0.7906 0.2015,-1.5812 0.6046,-2.27879 0.68209,-0.99212 1.87572,-1.68972 3.36391,-1.98425 1.28668,-0.29456 1.98425,-0.49606 4.5731,-0.49606 h 0.093 c 3.96851,0 5.2552,3.67396 6.35586,7.44094 l 0.29446,0.99213 c 0.79063,2.57332 1.19373,4.75911 1.19373,6.44882 0,1.19365 -0.2016,2.27879 -0.6046,3.06939 -0.58913,1.10064 -1.58125,1.79823 -3.27094,2.18578 -0.89907,0.20152 -2.38726,0.29458 -2.38726,0.29458 -0.49606,0 -0.88368,0.10844 -1.28668,0.10844 -3.17788,0 -5.16213,-1.19363 -6.54188,-5.45666 -1.19363,-3.67397 -1.39513,-4.75911 -2.27872,-9.13067"
         id="path106359"
         style="stroke-width:0.992126" />
      <path
         class="Note"
         d="m 687.39383,685.65324 c -13.68821,0 -18.55583,6.94493 -18.55583,13.39375 0,6.44882 4.86762,13.39375 18.55583,13.39375 13.68826,0 18.44739,-6.94493 18.44739,-13.39375 0,-6.44882 -4.75913,-13.39375 -18.44739,-13.39375 m -8.23147,9.02219 c -0.10854,-0.40305 -0.10854,-0.7906 -0.10854,-1.19365 0,-0.7906 0.2015,-1.5812 0.6046,-2.27879 0.68209,-0.99212 1.87572,-1.68972 3.36391,-1.98425 1.28668,-0.29456 1.98425,-0.49606 4.5731,-0.49606 h 0.093 c 3.96851,0 5.2552,3.67396 6.35586,7.44094 l 0.29446,0.99213 c 0.79063,2.57332 1.19373,4.75911 1.19373,6.44882 0,1.19365 -0.2016,2.27879 -0.6046,3.06939 -0.58913,1.10064 -1.58125,1.79823 -3.27094,2.18578 -0.89907,0.20152 -2.38726,0.29458 -2.38726,0.29458 -0.49606,0 -0.88368,0.10844 -1.28668,0.10844 -3.17788,0 -5.16213,-1.19363 -6.54188,-5.45666 -1.19363,-3.67397 -1.39513,-4.75911 -2.27872,-9.13067"
         id="path106361"
         style="stroke-width:0.992126" />
      <path
         class="Note"
         d="m 830.03283,673.25224 c -13.68821,0 -18.55583,6.94493 -18.55583,13.39375 0,6.44882 4.86762,13.39375 18.55583,13.39375 13.68826,0 18.44739,-6.94493 18.44739,-13.39375 0,-6.44882 -4.75913,-13.39375 -18.44739,-13.39375 m -8.23147,9.02219 c -0.10854,-0.40305 -0.10854,-0.7906 -0.10854,-1.19365 0,-0.7906 0.2015,-1.5812 0.6046,-2.27879 0.68209,-0.99212 1.87572,-1.68972 3.36391,-1.98425 1.28668,-0.29456 1.98425,-0.49606 4.5731,-0.49606 h 0.093 c 3.96851,0 5.2552,3.67396 6.35586,7.44094 l 0.29446,0.99213 c 0.79063,2.57332 1.19373,4.75911 1.19373,6.44882 0,1.19365 -0.2016,2.27879 -0.6046,3.06939 -0.58913,1.10064 -1.58125,1.79823 -3.27094,2.18578 -0.89907,0.20152 -2.38726,0.29458 -2.38726,0.29458 -0.49606,0 -0.88368,0.10844 -1.28668,0.10844 -3.17788,0 -5.16213,-1.19363 -6.54188,-5.45666 -1.19363,-3.67397 -1.39513,-4.75911 -2.27872,-9.13067"
         id="path106363"
         style="stroke-width:0.992126" />
      <path
         class="Note"
         d="m 972.67083,660.85024 c -13.68821,0 -18.55583,6.94493 -18.55583,13.39375 0,6.44882 4.86762,13.39375 18.55583,13.39375 13.68827,0 18.44739,-6.94493 18.44739,-13.39375 0,-6.44882 -4.75912,-13.39375 -18.44739,-13.39375 m -8.23147,9.02219 c -0.10854,-0.40305 -0.10854,-0.7906 -0.10854,-1.19365 0,-0.7906 0.2015,-1.5812 0.6046,-2.27879 0.68209,-0.99212 1.87572,-1.68972 3.36391,-1.98425 1.28668,-0.29456 1.98425,-0.49606 4.5731,-0.49606 h 0.093 c 3.96851,0 5.2552,3.67396 6.35586,7.44094 l 0.29446,0.99213 c 0.79063,2.57332 1.19373,4.75911 1.19373,6.44882 0,1.19365 -0.2016,2.27879 -0.6046,3.06939 -0.58913,1.10064 -1.58125,1.79823 -3.27094,2.18578 -0.89907,0.20152 -2.38726,0.29458 -2.38726,0.29458 -0.49606,0 -0.88368,0.10844 -1.28668,0.10844 -3.17788,0 -5.16213,-1.19363 -6.54188,-5.45666 -1.19363,-3.67397 -1.39513,-4.75911 -2.27872,-9.13067"
         id="path106365"
         style="stroke-width:0.992126" />
      <path
         class="Note"
         d="m 1114.8358,648.44924 c -13.6882,0 -18.5558,6.94493 -18.5558,13.39375 0,6.44882 4.8676,13.39375 18.5558,13.39375 13.6883,0 18.4474,-6.94493 18.4474,-13.39375 0,-6.44882 -4.7591,-13.39375 -18.4474,-13.39375 m -8.2314,9.02219 c -0.1086,-0.40305 -0.1086,-0.7906 -0.1086,-1.19365 0,-0.7906 0.2015,-1.5812 0.6046,-2.27879 0.6821,-0.99212 1.8757,-1.68972 3.3639,-1.98425 1.2867,-0.29456 1.9843,-0.49606 4.5731,-0.49606 h 0.093 c 3.9685,0 5.2552,3.67396 6.3559,7.44094 l 0.2944,0.99213 c 0.7906,2.57332 1.1937,4.75911 1.1937,6.44882 0,1.19365 -0.2016,2.27879 -0.6046,3.06939 -0.5891,1.10064 -1.5812,1.79823 -3.2709,2.18578 -0.8991,0.20152 -2.3873,0.29458 -2.3873,0.29458 -0.496,0 -0.8836,0.10844 -1.2866,0.10844 -3.1779,0 -5.1622,-1.19363 -6.5419,-5.45666 -1.1937,-3.67397 -1.3952,-4.75911 -2.2787,-9.13067"
         id="path106367"
         style="stroke-width:0.992126" />
      <path
         class="Note"
         d="m 1263.2958,636.04724 c -13.6882,0 -18.5558,6.94493 -18.5558,13.39375 0,6.44882 4.8676,13.39375 18.5558,13.39375 13.6883,0 18.4474,-6.94493 18.4474,-13.39375 0,-6.44882 -4.7591,-13.39375 -18.4474,-13.39375 m -8.2314,9.02219 c -0.1086,-0.40305 -0.1086,-0.7906 -0.1086,-1.19365 0,-0.7906 0.2015,-1.5812 0.6046,-2.27879 0.6821,-0.99212 1.8757,-1.68972 3.3639,-1.98425 1.2867,-0.29456 1.9843,-0.49606 4.5731,-0.49606 h 0.093 c 3.9685,0 5.2552,3.67396 6.3559,7.44094 l 0.2944,0.99213 c 0.7906,2.57332 1.1937,4.75911 1.1937,6.44882 0,1.19365 -0.2016,2.27879 -0.6046,3.06939 -0.5891,1.10064 -1.5812,1.79823 -3.2709,2.18578 -0.8991,0.20152 -2.3873,0.29458 -2.3873,0.29458 -0.496,0 -0.8836,0.10844 -1.2866,0.10844 -3.1779,0 -5.1622,-1.19363 -6.5419,-5.45666 -1.1937,-3.67397 -1.3952,-4.75911 -2.2787,-9.13067"
         id="path106369"
         style="stroke-width:0.992126" />
      <path
         class="Note"
         d="m 1405.4558,623.64524 c -13.6882,0 -18.5558,6.94493 -18.5558,13.39375 0,6.44882 4.8676,13.39375 18.5558,13.39375 13.6883,0 18.4474,-6.94493 18.4474,-13.39375 0,-6.44882 -4.7591,-13.39375 -18.4474,-13.39375 m -8.2314,9.02219 c -0.1086,-0.40305 -0.1086,-0.7906 -0.1086,-1.19365 0,-0.7906 0.2015,-1.5812 0.6046,-2.27879 0.6821,-0.99212 1.8757,-1.68972 3.3639,-1.98425 1.2867,-0.29456 1.9843,-0.49606 4.5731,-0.49606 h 0.093 c 3.9685,0 5.2552,3.67396 6.3559,7.44094 l 0.2944,0.99213 c 0.7906,2.57332 1.1937,4.75911 1.1937,6.44882 0,1.19365 -0.2016,2.27879 -0.6046,3.06939 -0.5891,1.10064 -1.5812,1.79823 -3.2709,2.18578 -0.8991,0.20152 -2.3873,0.29458 -2.3873,0.29458 -0.496,0 -0.8836,0.10844 -1.2866,0.10844 -3.1779,0 -5.1622,-1.19363 -6.5419,-5.45666 -1.1937,-3.67397 -1.3952,-4.75911 -2.2787,-9.13067"
         id="path106371"
         style="stroke-width:0.992126" />
      <path
         class="Note"
         d="m 1547.6158,611.24424 c -13.6882,0 -18.5558,6.94493 -18.5558,13.39375 0,6.44882 4.8676,13.39375 18.5558,13.39375 13.6883,0 18.4474,-6.94493 18.4474,-13.39375 0,-6.44882 -4.7591,-13.39375 -18.4474,-13.39375 m -8.2314,9.02219 c -0.1086,-0.40305 -0.1086,-0.7906 -0.1086,-1.19365 0,-0.7906 0.2015,-1.5812 0.6046,-2.27879 0.6821,-0.99212 1.8757,-1.68972 3.3639,-1.98425 1.2867,-0.29456 1.9843,-0.49606 4.5731,-0.49606 h 0.093 c 3.9685,0 5.2552,3.67396 6.3559,7.44094 l 0.2944,0.99213 c 0.7906,2.57332 1.1937,4.75911 1.1937,6.44882 0,1.19365 -0.2016,2.27879 -0.6046,3.06939 -0.5891,1.10064 -1.5812,1.79823 -3.2709,2.18578 -0.8991,0.20152 -2.3873,0.29458 -2.3873,0.29458 -0.496,0 -0.8836,0.10844 -1.2866,0.10844 -3.1779,0 -5.1622,-1.19363 -6.5419,-5.45666 -1.1937,-3.67397 -1.3952,-4.75911 -2.2787,-9.13067"
         id="path106373"
         style="stroke-width:0.992126" />
      <path
         class="Note"
         d="m 553.08783,496.74924 c -13.68821,0 -18.55583,6.94493 -18.55583,13.39375 0,6.44882 4.86762,13.39375 18.55583,13.39375 13.68827,0 18.44739,-6.94493 18.44739,-13.39375 0,-6.44882 -4.75912,-13.39375 -18.44739,-13.39375 m -8.23147,9.02219 c -0.10854,-0.40305 -0.10854,-0.7906 -0.10854,-1.19365 0,-0.7906 0.2015,-1.5812 0.6046,-2.27879 0.68209,-0.99212 1.87572,-1.68972 3.36391,-1.98425 1.28668,-0.29456 1.98425,-0.49606 4.5731,-0.49606 h 0.093 c 3.96851,0 5.2552,3.67396 6.35586,7.44094 l 0.29446,0.99213 c 0.79063,2.57332 1.19373,4.75911 1.19373,6.44882 0,1.19365 -0.2016,2.27879 -0.6046,3.06939 -0.58913,1.10064 -1.58125,1.79823 -3.27094,2.18578 -0.89907,0.20152 -2.38726,0.29458 -2.38726,0.29458 -0.49606,0 -0.88368,0.10844 -1.28668,0.10844 -3.17788,0 -5.16213,-1.19363 -6.54188,-5.45666 -1.19363,-3.67397 -1.39513,-4.75911 -2.27872,-9.13067"
         id="path106391"
         style="stroke-width:0.992126" />
      <path
         class="Note"
         d="m 553.08783,409.93824 c -13.68821,0 -18.55583,6.94493 -18.55583,13.39375 0,6.44882 4.86762,13.39375 18.55583,13.39375 13.68827,0 18.44739,-6.94493 18.44739,-13.39375 0,-6.44882 -4.75912,-13.39375 -18.44739,-13.39375 m -8.23147,9.02219 c -0.10854,-0.40305 -0.10854,-0.7906 -0.10854,-1.19365 0,-0.7906 0.2015,-1.5812 0.6046,-2.27879 0.68209,-0.99212 1.87572,-1.68972 3.36391,-1.98425 1.28668,-0.29456 1.98425,-0.49606 4.5731,-0.49606 h 0.093 c 3.96851,0 5.2552,3.67396 6.35586,7.44094 l 0.29446,0.99213 c 0.79063,2.57332 1.19373,4.75911 1.19373,6.44882 0,1.19365 -0.2016,2.27879 -0.6046,3.06939 -0.58913,1.10064 -1.58125,1.79823 -3.27094,2.18578 -0.89907,0.20152 -2.38726,0.29458 -2.38726,0.29458 -0.49606,0 -0.88368,0.10844 -1.28668,0.10844 -3.17788,0 -5.16213,-1.19363 -6.54188,-5.45666 -1.19363,-3.67397 -1.39513,-4.75911 -2.27872,-9.13067"
         id="path106393"
         style="stroke-width:0.992126" />
      <path
         class="Note"
         d="m 687.39383,484.34824 c -13.68821,0 -18.55583,6.94493 -18.55583,13.39375 0,6.44882 4.86762,13.39375 18.55583,13.39375 13.68826,0 18.44739,-6.94493 18.44739,-13.39375 0,-6.44882 -4.75913,-13.39375 -18.44739,-13.39375 m -8.23147,9.02219 c -0.10854,-0.40305 -0.10854,-0.7906 -0.10854,-1.19365 0,-0.7906 0.2015,-1.5812 0.6046,-2.27879 0.68209,-0.99212 1.87572,-1.68972 3.36391,-1.98425 1.28668,-0.29456 1.98425,-0.49606 4.5731,-0.49606 h 0.093 c 3.96851,0 5.2552,3.67396 6.35586,7.44094 l 0.29446,0.99213 c 0.79063,2.57332 1.19373,4.75911 1.19373,6.44882 0,1.19365 -0.2016,2.27879 -0.6046,3.06939 -0.58913,1.10064 -1.58125,1.79823 -3.27094,2.18578 -0.89907,0.20152 -2.38726,0.29458 -2.38726,0.29458 -0.49606,0 -0.88368,0.10844 -1.28668,0.10844 -3.17788,0 -5.16213,-1.19363 -6.54188,-5.45666 -1.19363,-3.67397 -1.39513,-4.75911 -2.27872,-9.13067"
         id="path106395"
         style="stroke-width:0.992126" />
      <path
         class="Note"
         d="m 687.39383,397.53724 c -13.68821,0 -18.55583,6.94493 -18.55583,13.39375 0,6.44882 4.86762,13.39375 18.55583,13.39375 13.68826,0 18.44739,-6.94493 18.44739,-13.39375 0,-6.44882 -4.75913,-13.39375 -18.44739,-13.39375 m -8.23147,9.02219 c -0.10854,-0.40305 -0.10854,-0.7906 -0.10854,-1.19365 0,-0.7906 0.2015,-1.5812 0.6046,-2.27879 0.68209,-0.99212 1.87572,-1.68972 3.36391,-1.98425 1.28668,-0.29456 1.98425,-0.49606 4.5731,-0.49606 h 0.093 c 3.96851,0 5.2552,3.67396 6.35586,7.44094 l 0.29446,0.99213 c 0.79063,2.57332 1.19373,4.75911 1.19373,6.44882 0,1.19365 -0.2016,2.27879 -0.6046,3.06939 -0.58913,1.10064 -1.58125,1.79823 -3.27094,2.18578 -0.89907,0.20152 -2.38726,0.29458 -2.38726,0.29458 -0.49606,0 -0.88368,0.10844 -1.28668,0.10844 -3.17788,0 -5.16213,-1.19363 -6.54188,-5.45666 -1.19363,-3.67397 -1.39513,-4.75911 -2.27872,-9.13067"
         id="path106397"
         style="stroke-width:0.992126" />
      <path
         class="Note"
         d="m 830.03283,471.94624 c -13.68821,0 -18.55583,6.94493 -18.55583,13.39375 0,6.44882 4.86762,13.39375 18.55583,13.39375 13.68826,0 18.44739,-6.94493 18.44739,-13.39375 0,-6.44882 -4.75913,-13.39375 -18.44739,-13.39375 m -8.23147,9.02219 c -0.10854,-0.40305 -0.10854,-0.7906 -0.10854,-1.19365 0,-0.7906 0.2015,-1.5812 0.6046,-2.27879 0.68209,-0.99212 1.87572,-1.68972 3.36391,-1.98425 1.28668,-0.29456 1.98425,-0.49606 4.5731,-0.49606 h 0.093 c 3.96851,0 5.2552,3.67396 6.35586,7.44094 l 0.29446,0.99213 c 0.79063,2.57332 1.19373,4.75911 1.19373,6.44882 0,1.19365 -0.2016,2.27879 -0.6046,3.06939 -0.58913,1.10064 -1.58125,1.79823 -3.27094,2.18578 -0.89907,0.20152 -2.38726,0.29458 -2.38726,0.29458 -0.49606,0 -0.88368,0.10844 -1.28668,0.10844 -3.17788,0 -5.16213,-1.19363 -6.54188,-5.45666 -1.19363,-3.67397 -1.39513,-4.75911 -2.27872,-9.13067"
         id="path106399"
         style="stroke-width:0.992126" />
      <path
         class="Note"
         d="m 830.03283,385.13524 c -13.68821,0 -18.55583,6.94493 -18.55583,13.39375 0,6.44882 4.86762,13.39375 18.55583,13.39375 13.68826,0 18.44739,-6.94493 18.44739,-13.39375 0,-6.44882 -4.75913,-13.39375 -18.44739,-13.39375 m -8.23147,9.02219 c -0.10854,-0.40305 -0.10854,-0.7906 -0.10854,-1.19365 0,-0.7906 0.2015,-1.5812 0.6046,-2.27879 0.68209,-0.99212 1.87572,-1.68972 3.36391,-1.98425 1.28668,-0.29456 1.98425,-0.49606 4.5731,-0.49606 h 0.093 c 3.96851,0 5.2552,3.67396 6.35586,7.44094 l 0.29446,0.99213 c 0.79063,2.57332 1.19373,4.75911 1.19373,6.44882 0,1.19365 -0.2016,2.27879 -0.6046,3.06939 -0.58913,1.10064 -1.58125,1.79823 -3.27094,2.18578 -0.89907,0.20152 -2.38726,0.29458 -2.38726,0.29458 -0.49606,0 -0.88368,0.10844 -1.28668,0.10844 -3.17788,0 -5.16213,-1.19363 -6.54188,-5.45666 -1.19363,-3.67397 -1.39513,-4.75911 -2.27872,-9.13067"
         id="path106401"
         style="stroke-width:0.992126" />
      <path
         class="Note"
         d="m 972.67083,459.54424 c -13.68821,0 -18.55583,6.94493 -18.55583,13.39375 0,6.44882 4.86762,13.39375 18.55583,13.39375 13.68827,0 18.44739,-6.94493 18.44739,-13.39375 0,-6.44882 -4.75912,-13.39375 -18.44739,-13.39375 m -8.23147,9.02219 c -0.10854,-0.40305 -0.10854,-0.7906 -0.10854,-1.19365 0,-0.7906 0.2015,-1.5812 0.6046,-2.27879 0.68209,-0.99212 1.87572,-1.68972 3.36391,-1.98425 1.28668,-0.29456 1.98425,-0.49606 4.5731,-0.49606 h 0.093 c 3.96851,0 5.2552,3.67396 6.35586,7.44094 l 0.29446,0.99213 c 0.79063,2.57332 1.19373,4.75911 1.19373,6.44882 0,1.19365 -0.2016,2.27879 -0.6046,3.06939 -0.58913,1.10064 -1.58125,1.79823 -3.27094,2.18578 -0.89907,0.20152 -2.38726,0.29458 -2.38726,0.29458 -0.49606,0 -0.88368,0.10844 -1.28668,0.10844 -3.17788,0 -5.16213,-1.19363 -6.54188,-5.45666 -1.19363,-3.67397 -1.39513,-4.75911 -2.27872,-9.13067"
         id="path106403"
         style="stroke-width:0.992126" />
      <path
         class="Note"
         d="m 972.67083,372.73324 c -13.68821,0 -18.55583,6.94493 -18.55583,13.39375 0,6.44882 4.86762,13.39375 18.55583,13.39375 13.68827,0 18.44739,-6.94493 18.44739,-13.39375 0,-6.44882 -4.75912,-13.39375 -18.44739,-13.39375 m -8.23147,9.02219 c -0.10854,-0.40305 -0.10854,-0.7906 -0.10854,-1.19365 0,-0.7906 0.2015,-1.5812 0.6046,-2.27879 0.68209,-0.99212 1.87572,-1.68972 3.36391,-1.98425 1.28668,-0.29456 1.98425,-0.49606 4.5731,-0.49606 h 0.093 c 3.96851,0 5.2552,3.67396 6.35586,7.44094 l 0.29446,0.99213 c 0.79063,2.57332 1.19373,4.75911 1.19373,6.44882 0,1.19365 -0.2016,2.27879 -0.6046,3.06939 -0.58913,1.10064 -1.58125,1.79823 -3.27094,2.18578 -0.89907,0.20152 -2.38726,0.29458 -2.38726,0.29458 -0.49606,0 -0.88368,0.10844 -1.28668,0.10844 -3.17788,0 -5.16213,-1.19363 -6.54188,-5.45666 -1.19363,-3.67397 -1.39513,-4.75911 -2.27872,-9.13067"
         id="path106405"
         style="stroke-width:0.992126" />
      <path
         class="Note"
         d="m 1114.8358,447.14324 c -13.6882,0 -18.5558,6.94493 -18.5558,13.39375 0,6.44882 4.8676,13.39375 18.5558,13.39375 13.6883,0 18.4474,-6.94493 18.4474,-13.39375 0,-6.44882 -4.7591,-13.39375 -18.4474,-13.39375 m -8.2314,9.02219 c -0.1086,-0.40305 -0.1086,-0.7906 -0.1086,-1.19365 0,-0.7906 0.2015,-1.5812 0.6046,-2.27879 0.6821,-0.99212 1.8757,-1.68972 3.3639,-1.98425 1.2867,-0.29456 1.9843,-0.49606 4.5731,-0.49606 h 0.093 c 3.9685,0 5.2552,3.67396 6.3559,7.44094 l 0.2944,0.99213 c 0.7906,2.57332 1.1937,4.75911 1.1937,6.44882 0,1.19365 -0.2016,2.27879 -0.6046,3.06939 -0.5891,1.10064 -1.5812,1.79823 -3.2709,2.18578 -0.8991,0.20152 -2.3873,0.29458 -2.3873,0.29458 -0.496,0 -0.8836,0.10844 -1.2866,0.10844 -3.1779,0 -5.1622,-1.19363 -6.5419,-5.45666 -1.1937,-3.67397 -1.3952,-4.75911 -2.2787,-9.13067"
         id="path106407"
         style="stroke-width:0.992126" />
      <path
         class="Note"
         d="m 1114.8358,360.33224 c -13.6882,0 -18.5558,6.94493 -18.5558,13.39375 0,6.44882 4.8676,13.39375 18.5558,13.39375 13.6883,0 18.4474,-6.94493 18.4474,-13.39375 0,-6.44882 -4.7591,-13.39375 -18.4474,-13.39375 m -8.2314,9.02219 c -0.1086,-0.40305 -0.1086,-0.7906 -0.1086,-1.19365 0,-0.7906 0.2015,-1.5812 0.6046,-2.27879 0.6821,-0.99212 1.8757,-1.68972 3.3639,-1.98425 1.2867,-0.29456 1.9843,-0.49606 4.5731,-0.49606 h 0.093 c 3.9685,0 5.2552,3.67396 6.3559,7.44094 l 0.2944,0.99213 c 0.7906,2.57332 1.1937,4.75911 1.1937,6.44882 0,1.19365 -0.2016,2.27879 -0.6046,3.06939 -0.5891,1.10064 -1.5812,1.79823 -3.2709,2.18578 -0.8991,0.20152 -2.3873,0.29458 -2.3873,0.29458 -0.496,0 -0.8836,0.10844 -1.2866,0.10844 -3.1779,0 -5.1622,-1.19363 -6.5419,-5.45666 -1.1937,-3.67397 -1.3952,-4.75911 -2.2787,-9.13067"
         id="path106409"
         style="stroke-width:0.992126" />
      <path
         class="Note"
         d="m 1263.2958,434.74124 c -13.6882,0 -18.5558,6.94493 -18.5558,13.39375 0,6.44882 4.8676,13.39375 18.5558,13.39375 13.6883,0 18.4474,-6.94493 18.4474,-13.39375 0,-6.44882 -4.7591,-13.39375 -18.4474,-13.39375 m -8.2314,9.02219 c -0.1086,-0.40305 -0.1086,-0.7906 -0.1086,-1.19365 0,-0.7906 0.2015,-1.5812 0.6046,-2.27879 0.6821,-0.99212 1.8757,-1.68972 3.3639,-1.98425 1.2867,-0.29456 1.9843,-0.49606 4.5731,-0.49606 h 0.093 c 3.9685,0 5.2552,3.67396 6.3559,7.44094 l 0.2944,0.99213 c 0.7906,2.57332 1.1937,4.75911 1.1937,6.44882 0,1.19365 -0.2016,2.27879 -0.6046,3.06939 -0.5891,1.10064 -1.5812,1.79823 -3.2709,2.18578 -0.8991,0.20152 -2.3873,0.29458 -2.3873,0.29458 -0.496,0 -0.8836,0.10844 -1.2866,0.10844 -3.1779,0 -5.1622,-1.19363 -6.5419,-5.45666 -1.1937,-3.67397 -1.3952,-4.75911 -2.2787,-9.13067"
         id="path106411"
         style="stroke-width:0.992126" />
      <path
         class="Note"
         d="m 1263.2958,347.93024 c -13.6882,0 -18.5558,6.94493 -18.5558,13.39375 0,6.44882 4.8676,13.39375 18.5558,13.39375 13.6883,0 18.4474,-6.94493 18.4474,-13.39375 0,-6.44882 -4.7591,-13.39375 -18.4474,-13.39375 m -8.2314,9.02219 c -0.1086,-0.40305 -0.1086,-0.7906 -0.1086,-1.19365 0,-0.7906 0.2015,-1.5812 0.6046,-2.27879 0.6821,-0.99212 1.8757,-1.68972 3.3639,-1.98425 1.2867,-0.29456 1.9843,-0.49606 4.5731,-0.49606 h 0.093 c 3.9685,0 5.2552,3.67396 6.3559,7.44094 l 0.2944,0.99213 c 0.7906,2.57332 1.1937,4.75911 1.1937,6.44882 0,1.19365 -0.2016,2.27879 -0.6046,3.06939 -0.5891,1.10064 -1.5812,1.79823 -3.2709,2.18578 -0.8991,0.20152 -2.3873,0.29458 -2.3873,0.29458 -0.496,0 -0.8836,0.10844 -1.2866,0.10844 -3.1779,0 -5.1622,-1.19363 -6.5419,-5.45666 -1.1937,-3.67397 -1.3952,-4.75911 -2.2787,-9.13067"
         id="path106413"
         style="stroke-width:0.992126" />
      <path
         class="Note"
         d="m 1405.4558,422.34024 c -13.6882,0 -18.5558,6.94493 -18.5558,13.39375 0,6.44882 4.8676,13.39375 18.5558,13.39375 13.6883,0 18.4474,-6.94493 18.4474,-13.39375 0,-6.44882 -4.7591,-13.39375 -18.4474,-13.39375 m -8.2314,9.02219 c -0.1086,-0.40305 -0.1086,-0.7906 -0.1086,-1.19365 0,-0.7906 0.2015,-1.5812 0.6046,-2.27879 0.6821,-0.99212 1.8757,-1.68972 3.3639,-1.98425 1.2867,-0.29456 1.9843,-0.49606 4.5731,-0.49606 h 0.093 c 3.9685,0 5.2552,3.67396 6.3559,7.44094 l 0.2944,0.99213 c 0.7906,2.57332 1.1937,4.75911 1.1937,6.44882 0,1.19365 -0.2016,2.27879 -0.6046,3.06939 -0.5891,1.10064 -1.5812,1.79823 -3.2709,2.18578 -0.8991,0.20152 -2.3873,0.29458 -2.3873,0.29458 -0.496,0 -0.8836,0.10844 -1.2866,0.10844 -3.1779,0 -5.1622,-1.19363 -6.5419,-5.45666 -1.1937,-3.67397 -1.3952,-4.75911 -2.2787,-9.13067"
         id="path106415"
         style="stroke-width:0.992126" />
      <path
         class="Note"
         d="m 1405.4558,335.52924 c -13.6882,0 -18.5558,6.94493 -18.5558,13.39375 0,6.44882 4.8676,13.39375 18.5558,13.39375 13.6883,0 18.4474,-6.94493 18.4474,-13.39375 0,-6.44882 -4.7591,-13.39375 -18.4474,-13.39375 m -8.2314,9.02219 c -0.1086,-0.40305 -0.1086,-0.7906 -0.1086,-1.19365 0,-0.7906 0.2015,-1.5812 0.6046,-2.27879 0.6821,-0.99212 1.8757,-1.68972 3.3639,-1.98425 1.2867,-0.29456 1.9843,-0.49606 4.5731,-0.49606 h 0.093 c 3.9685,0 5.2552,3.67396 6.3559,7.44094 l 0.2944,0.99213 c 0.7906,2.57332 1.1937,4.75911 1.1937,6.44882 0,1.19365 -0.2016,2.27879 -0.6046,3.06939 -0.5891,1.10064 -1.5812,1.79823 -3.2709,2.18578 -0.8991,0.20152 -2.3873,0.29458 -2.3873,0.29458 -0.496,0 -0.8836,0.10844 -1.2866,0.10844 -3.1779,0 -5.1622,-1.19363 -6.5419,-5.45666 -1.1937,-3.67397 -1.3952,-4.75911 -2.2787,-9.13067"
         id="path106417"
         style="stroke-width:0.992126" />
      <path
         class="Note"
         d="m 1547.6158,409.93824 c -13.6882,0 -18.5558,6.94493 -18.5558,13.39375 0,6.44882 4.8676,13.39375 18.5558,13.39375 13.6883,0 18.4474,-6.94493 18.4474,-13.39375 0,-6.44882 -4.7591,-13.39375 -18.4474,-13.39375 m -8.2314,9.02219 c -0.1086,-0.40305 -0.1086,-0.7906 -0.1086,-1.19365 0,-0.7906 0.2015,-1.5812 0.6046,-2.27879 0.6821,-0.99212 1.8757,-1.68972 3.3639,-1.98425 1.2867,-0.29456 1.9843,-0.49606 4.5731,-0.49606 h 0.093 c 3.9685,0 5.2552,3.67396 6.3559,7.44094 l 0.2944,0.99213 c 0.7906,2.57332 1.1937,4.75911 1.1937,6.44882 0,1.19365 -0.2016,2.27879 -0.6046,3.06939 -0.5891,1.10064 -1.5812,1.79823 -3.2709,2.18578 -0.8991,0.20152 -2.3873,0.29458 -2.3873,0.29458 -0.496,0 -0.8836,0.10844 -1.2866,0.10844 -3.1779,0 -5.1622,-1.19363 -6.5419,-5.45666 -1.1937,-3.67397 -1.3952,-4.75911 -2.2787,-9.13067"
         id="path106419"
         style="stroke-width:0.992126" />
      <path
         class="Note"
         d="m 1547.6158,323.12724 c -13.6882,0 -18.5558,6.94493 -18.5558,13.39375 0,6.44882 4.8676,13.39375 18.5558,13.39375 13.6883,0 18.4474,-6.94493 18.4474,-13.39375 0,-6.44882 -4.7591,-13.39375 -18.4474,-13.39375 m -8.2314,9.02219 c -0.1086,-0.40305 -0.1086,-0.7906 -0.1086,-1.19365 0,-0.7906 0.2015,-1.5812 0.6046,-2.27879 0.6821,-0.99212 1.8757,-1.68972 3.3639,-1.98425 1.2867,-0.29456 1.9843,-0.49606 4.5731,-0.49606 h 0.093 c 3.9685,0 5.2552,3.67396 6.3559,7.44094 l 0.2944,0.99213 c 0.7906,2.57332 1.1937,4.75911 1.1937,6.44882 0,1.19365 -0.2016,2.27879 -0.6046,3.06939 -0.5891,1.10064 -1.5812,1.79823 -3.2709,2.18578 -0.8991,0.20152 -2.3873,0.29458 -2.3873,0.29458 -0.496,0 -0.8836,0.10844 -1.2866,0.10844 -3.1779,0 -5.1622,-1.19363 -6.5419,-5.45666 -1.1937,-3.67397 -1.3952,-4.75911 -2.2787,-9.13067"
         id="path106421"
         style="stroke-width:0.992126" />
      <path
         class="Clef"
         d="m 425.56825,649.44079 c -7.54948,0 -13.5953,4.35613 -13.70374,4.35613 -5.75127,4.26296 -8.03007,9.33213 -8.92918,12.80459 -0.49607,1.78273 -0.68209,3.56546 -0.68209,5.25517 0,2.38731 0.38755,4.55758 1.28667,6.44882 1.19365,2.68185 3.47244,4.55758 6.44882,5.54971 1.19369,0.40305 2.48028,0.60455 3.76697,0.60455 2.18575,0 4.46457,-0.60455 6.35586,-1.68969 3.06934,-1.68971 4.96063,-5.25516 4.96063,-9.13066 0,-3.47244 -1.79823,-6.65034 -4.77461,-8.52609 -2.07731,-1.39514 -4.06156,-1.78277 -5.75125,-1.78277 -1.19363,0 -2.27882,0.18603 -3.17788,0.49607 -0.99213,0.38762 -2.66639,1.37972 -3.47249,2.07731 0.31004,-1.89129 1.48819,-4.75913 2.5888,-6.35586 1.08519,-1.58115 3.27094,-3.5654 4.96063,-4.46456 2.48032,-1.37966 5.65829,-1.98426 9.13073,-1.98426 10.12277,0 15.0834,8.13861 15.0834,24.8032 0,9.23923 -3.47245,18.05982 -6.44882,23.91952 -3.28642,6.54188 -7.64245,12.80467 -11.51799,16.27711 -10.32426,9.4252 -20.04404,13.88977 -20.13705,13.88977 0,0 -1.4882,0.88358 -1.10065,2.37177 0.31004,0.99213 1.19366,1.19363 1.79823,1.19363 0.093,0 0.38755,-0.093 0.49606,-0.093 0.093,0 11.4095,-4.66607 20.4316,-11.71949 5.06917,-3.65847 9.6267,-7.62697 13.5952,-11.90551 3.5655,-3.85997 6.65042,-8.03007 9.13073,-12.20008 4.35603,-7.44094 6.83635,-15.17645 6.83635,-21.82677 0,-8.23155 -2.17028,-15.08339 -6.24732,-19.93558 -4.66607,-5.56513 -11.70401,-8.43307 -20.92761,-8.43307 m 31.14343,12.5876 c 0,2.7904 2.18575,4.96068 4.77461,4.96068 2.57327,0 4.75913,-2.17028 4.75913,-4.96068 0,-2.77478 -2.18586,-5.0536 -4.75913,-5.0536 -2.58886,0 -4.77461,2.27882 -4.77461,5.0536 m 0,24.50868 c 0,2.77488 2.18575,5.06917 4.77461,5.06917 2.57327,0 4.75913,-2.29429 4.75913,-5.06917 0,-2.77487 -2.18586,-5.05366 -4.75913,-5.05366 -2.58886,0 -4.77461,2.27879 -4.77461,5.05366"
         id="path106455"
         style="stroke-width:0.992126" />
      <path
         class="Clef"
         d="m 463.22251,454.75475 c -1.22468,-5.37923 -3.84449,-9.17719 -4.61964,-10.20027 -3.1624,-4.24759 -7.14638,-7.06889 -11.79697,-8.41759 -3.08492,-0.86811 -6.0613,-0.99213 -8.46403,-0.8061 -1.03865,-5.96824 -2.03078,-11.79698 -2.92994,-17.20724 5.41026,-6.1232 9.00671,-11.87446 11.26995,-16.13752 3.44149,-6.52631 4.57311,-11.06836 4.63512,-11.26996 1.70516,-5.17761 2.06173,-12.82005 0.96107,-20.95866 -0.99213,-7.48738 -3.06934,-14.15288 -5.41016,-17.37729 -1.00761,-1.4108 -2.06174,-2.14001 -3.08492,-2.14001 -1.2091,0 -3.7049,1.22527 -6.57284,3.98438 -2.27871,2.16978 -5.5187,6.03014 -8.06102,11.99847 -2.97638,7.00689 -3.19335,16.41661 -2.83678,23.08251 0.37204,7.22386 1.47261,12.86658 1.48818,12.91311 0.0155,0.093 0.27899,1.58115 0.71305,4.12348 -0.21698,0.23255 -0.46501,0.44963 -0.71305,0.69766 -1.02318,0.99212 -2.20132,2.10827 -3.58098,3.48792 -0.85263,0.85263 -1.79822,1.75169 -2.79035,2.71287 -8.37106,8.0765 -21.0672,20.30753 -21.0672,39.31296 0,4.6661 0.89911,9.05315 2.66634,13.03716 1.5657,3.56545 3.84449,6.82087 6.75886,9.67323 7.6735,7.50295 18.18378,10.68083 25.17519,10.52586 2.92985,-0.0775 5.54976,-0.31004 7.92154,-0.75957 1.8137,9.53363 2.94532,16.50957 2.97637,21.81119 0.0465,6.4644 -1.59672,10.41733 -5.45669,13.16125 -2.41831,1.72064 -5.20866,2.66634 -8.2781,2.80583 -2.57328,0.12402 -4.82104,-0.34109 -6.23174,-0.74409 h -0.0155 c 0,0 -0.27908,-0.0931 -0.29456,-0.27909 -0.0155,-0.18602 0.34099,-0.23245 0.34099,-0.23245 h 0.0311 c 1.90676,-0.43406 5.44121,-1.65874 7.78193,-4.92968 1.78276,-2.51127 2.65087,-7.09985 0.82168,-11.00635 -1.10066,-2.37187 -3.58098,-5.30172 -9.16169,-5.75125 -2.48031,-0.2015 -4.72807,0.31004 -6.71232,1.50366 -1.79823,1.06961 -3.28642,2.6974 -4.32508,4.68165 -2.43378,4.66607 -1.98425,10.35531 1.11614,14.16875 2.94533,3.59645 7.51843,5.89075 12.91312,6.46429 0.85263,0.0931 1.68969,0.12402 2.52685,0.12402 4.40255,0 8.75858,-1.19363 12.30851,-3.37938 3.62751,-2.5578 5.73578,-6.51083 6.40239,-12.09154 0.55807,-4.60406 0.17044,-10.47933 -1.20921,-18.49382 -0.35657,-2.07731 -0.89906,-5.08465 -1.55019,-8.80512 5.70472,-1.90676 9.82829,-5.45669 13.56424,-11.26995 3.27094,-5.68925 4.20106,-11.75052 2.79036,-18.01332 m -33.94936,26.01233 c -4.60406,-1.2092 -9.00662,-3.68952 -12.72709,-7.17743 -1.30217,-1.20911 -3.16241,-3.36393 -4.61954,-6.72786 -1.3487,-3.14689 -2.01531,-6.55733 -1.9533,-10.10728 0.062,-4.6661 1.36417,-9.4562 3.84449,-14.19986 2.89889,-5.53417 7.42547,-11.02182 13.44023,-16.30807 1.44166,-1.27111 2.80583,-2.54232 4.07704,-3.81343 0.75957,4.23201 1.58115,8.8826 2.44926,13.71922 -3.81343,1.25563 -8.52603,4.38708 -11.61095,9.99874 -3.51897,6.51088 -3.37947,11.99857 -2.65086,15.45551 0.93012,4.41807 3.44149,8.15404 6.8674,10.23133 0.93012,0.55807 5.02264,2.66634 6.85182,2.09279 0.37205,-0.10854 0.63566,-0.34109 0.77515,-0.66661 0.51154,-1.16267 -0.51154,-1.79823 -2.04626,-2.74387 -0.6046,-0.37205 -1.27121,-0.7906 -1.98425,-1.31767 -3.3019,-2.46481 -4.74365,-6.88287 -3.67394,-11.23893 0.57354,-2.3718 1.84466,-4.52657 3.67394,-6.21629 1.64316,-1.53469 3.67394,-2.61988 6.03024,-3.25544 2.03078,11.16145 4.07704,22.22988 5.70472,30.52345 0.12402,0.68209 0.26351,1.3486 0.38753,2.01521 -4.34055,0.93012 -8.65005,0.83716 -12.83563,-0.26351 m 11.239,-32.94176 c 10.26225,-0.46501 14.49427,6.91393 15.37795,11.70404 0.46501,2.52682 0.46501,6.92938 -1.06971,11.11496 -1.16257,3.14683 -3.59646,7.19291 -8.69658,9.23917 -0.062,-0.41857 -0.13949,-0.85263 -0.21698,-1.27121 -1.53472,-8.7121 -3.45696,-19.62549 -5.39468,-30.78696 m -7.2705,-70.39441 c 1.76727,-5.68925 4.48014,-8.91366 6.4644,-10.6343 1.73622,-1.50377 3.3639,-2.21681 4.27854,-2.21681 0.13949,0 0.26351,0.031 0.35647,0.062 0.46511,0.13949 0.99213,0.69756 1.45724,1.56567 2.29429,4.24759 1.55019,10.91339 0.21697,15.31595 -1.6122,5.36373 -4.511,10.92886 -13.23863,20.4626 -0.17054,-1.10067 -0.32552,-2.13922 -0.48058,-3.11587 -1.24016,-8.2161 -0.91465,-15.43996 0.94559,-21.43925"
         id="path106469"
         style="stroke-width:0.992126" />
      <path
         class="StaffText"
         d="m 566.868,588.278 h -1.906 l -2,2.953 c -3.641,-2.656 -5.5,-3.36 -8.953,-3.36 -4.75,0 -8.797,2 -12.141,6 -3.203,3.813 -4.703,8.016 -4.703,13.157 0,10.797 7.047,18.453 16.906,18.453 8,0 13.094,-4.703 14.25,-13.094 l -2.359,-0.406 c -1.344,7.453 -5.141,11.156 -11.297,11.156 -7.406,0 -10.906,-5.109 -10.906,-15.906 0,-5.703 0.75,-9.453 2.453,-12.453 1.547,-2.797 4.609,-4.547 7.859,-4.547 3.5,0 6.594,1.844 8.5,5.047 0.954,1.656 1.641,3.5 2.844,7.453 h 2.203 l -0.75,-14.453 m 21.438,18.047 c 4.547,-1.641 6.656,-4.188 6.656,-8.204 0,-5.25 -4,-8.593 -10.203,-8.593 -5.844,0 -10.297,3.453 -10.297,8 0,2.047 1.344,3.5 3.297,3.5 1.75,0 2.953,-1.203 2.953,-3 0,-1.094 -0.406,-1.75 -1.547,-2.547 -0.5,-0.36 -0.656,-0.547 -0.656,-0.906 0,-1.391 2.906,-2.891 5.75,-2.891 3.594,0 5.5,2.25 5.5,6.5 0,4.641 -1.906,7.094 -5.453,7.094 -0.453,0 -1.297,-0.047 -2.047,-0.094 -0.406,-0.047 -0.797,-0.047 -1.094,-0.047 -1.062,0 -1.609,0.438 -1.609,1.344 0,0.844 0.5,1.25 1.609,1.25 0.297,0 0.688,0 1.141,-0.047 1,-0.047 1.797,-0.047 2.359,-0.047 3.688,0 5.688,2.641 5.688,7.594 0,5.203 -2.5,8.094 -7,8.094 -3.141,0 -6.547,-1.688 -6.547,-3.25 0,-0.438 0.109,-0.547 1.047,-1.094 1.406,-0.844 1.953,-1.703 1.953,-2.953 0,-1.797 -1.344,-3.141 -3.141,-3.141 -2.156,0 -3.562,1.75 -3.562,4.391 0,4.859 4.453,8.203 10.859,8.203 7.25,0 11.953,-4 11.953,-10.156 0,-4.688 -2.406,-7.547 -7.609,-9"
         id="path106891" />
      <path
         class="StaffText"
         d="m 671.675,624.731 h 16.796 c 4.454,0 7.86,-0.703 10.5,-2.203 5.047,-2.844 7.86,-8.547 7.86,-16.047 0,-6.906 -2.5,-12.297 -7.11,-15.297 -2.75,-1.75 -6.453,-2.563 -12.156,-2.563 h -15.89 v 2.36 h 0.953 c 2.797,0.047 3.75,0.203 4.14,0.703 0.297,0.437 0.297,0.547 0.297,3.094 v 23.797 c 0,2.562 0,2.656 -0.297,3.109 -0.39,0.5 -1.343,0.641 -4.14,0.703 h -0.953 v 2.344 m 13.843,-2.344 c -2.547,0 -2.843,-0.312 -2.843,-2.75 v -25.859 c 0,-2.453 0.343,-2.797 2.843,-2.797 h 2.61 c 8.547,0 12.093,4.64 12.093,15.703 0,11.203 -3.203,15.703 -11.296,15.703 h -3.407"
         id="path106893" />
      <path
         class="StaffText"
         d="m 844.36,588.621 h -30.047 v 2.36 h 0.891 c 2.859,0.047 3.812,0.203 4.203,0.703 0.297,0.437 0.297,0.547 0.297,3.094 v 23.797 c 0,2.562 0,2.656 -0.297,3.109 -0.391,0.5 -1.344,0.703 -4.203,0.703 h -0.891 v 2.344 h 30.703 l 1,-13.344 h -2.203 c -1.906,8.891 -3.953,10.797 -11.609,11 h -3.297 c -3,-0.109 -3.75,-0.609 -3.594,-2.406 v -12.75 h 1 c 5.141,-0.203 7,1.656 7.203,7.203 h 2.344 v -16.406 h -2.344 c -0.312,4.906 -2.25,6.859 -7,6.859 h -1.203 v -11.406 c -0.047,-2.11 0.453,-2.453 3.141,-2.5 h 2.609 c 8.203,-0.047 10.25,1.75 11.844,10.406 h 2.156 l -0.703,-12.766"
         id="path106895" />
      <path
         class="StaffText"
         d="m 986.702,588.621 h -29.75 v 2.36 h 0.89 c 2.86,0.047 3.813,0.203 4.204,0.703 0.296,0.437 0.296,0.547 0.296,3.094 v 23.797 c 0,2.562 0,2.656 -0.296,3.109 -0.391,0.5 -1.344,0.703 -4.204,0.703 h -0.89 v 2.344 h 17.14 v -2.344 h -1.64 c -2.86,0 -3.797,-0.203 -4.203,-0.703 -0.297,-0.453 -0.297,-0.609 -0.297,-3.109 v -11.344 h 1 c 5.14,-0.203 7,1.656 7.203,7.203 h 2.344 v -16.406 h -2.344 c -0.313,4.906 -2.25,6.797 -7,6.859 h -1.203 v -11.406 c -0.047,-2.11 0.453,-2.453 3.14,-2.5 h 2.313 c 8.203,-0.047 10.25,1.797 11.797,10.406 h 2.203 l -0.703,-12.766"
         id="path106897" />
      <path
         class="StaffText"
         d="m 1129.16,588.278 h -1.89 l -1.95,3 c -3.25,-2.547 -5.46,-3.407 -9.11,-3.407 -3.96,0 -7.05,1.11 -10.21,3.657 -4.93,4 -7.25,9.047 -7.25,15.797 0,5.109 1.46,9.359 4.41,12.609 3.09,3.5 7.7,5.547 12.5,5.547 4.2,0 7.16,-1.297 10.41,-4.547 l 1.84,4.5 h 2.11 v -11 c 0,-2.547 0,-2.656 0.3,-3.109 0.45,-0.547 1.34,-0.688 4.2,-0.688 h 0.75 v -2.359 h -15.91 v 2.359 h 0.96 c 4.2,0 4.54,0.25 4.54,3.047 0,2.141 -0.34,4.094 -1,5.297 -1.25,2.453 -4.45,4.156 -7.7,4.156 -3.25,0 -6.45,-1.656 -8.16,-4.156 -1.84,-2.797 -2.64,-6.297 -2.64,-11.656 0,-11.141 3.71,-17.094 10.64,-17.094 5.71,0 9.66,4.094 11.71,12.094 h 2.15 l -0.7,-14.047"
         id="path106899" />
      <path
         class="StaffText"
         d="m 1267.03,586.849 h -2.11 l -11.5,29.14 c -1.35,3.907 -2.64,5.11 -5.5,5.313 h -0.21 v 2.344 h 13.25 v -2.344 h -1 c -2.68,0 -4.04,-0.953 -4.04,-2.859 0,-0.641 0.15,-1.25 0.45,-2.094 l 1.66,-4.406 h 13.25 l 2.7,6.703 c 0.3,0.797 0.39,1.093 0.39,1.343 0,0.813 -1.25,1.313 -3.09,1.313 h -2.11 v 2.344 h 15.5 v -2.344 h -0.69 c -2.61,-0.063 -3.06,-0.359 -4.2,-3.203 l -12.75,-31.25 m -2.46,8.187 5.64,14.203 h -11.18 l 5.54,-14.203"
         id="path106901" />
      <path
         class="StaffText"
         d="m 1389.78,575.135 v 2.359 h 0.91 c 2.84,0.047 3.8,0.203 4.19,0.703 0.31,0.438 0.31,0.547 0.31,3.094 v 23.797 c 0,2.562 0,2.656 -0.31,3.109 -0.39,0.5 -1.35,0.703 -4.19,0.703 h -0.91 v 2.344 h 18.16 c 8.64,0 13.84,-3.656 13.84,-9.797 0,-5 -3.14,-7.859 -10,-9.047 2.41,-0.5 3.5,-0.953 4.8,-1.906 2.06,-1.547 3.31,-4 3.31,-6.5 0,-3.25 -2,-6.406 -4.9,-7.656 -1.8,-0.797 -4.3,-1.203 -7.25,-1.203 h -17.96 m 11,16.265 v -11.406 c 0,-1.953 0.66,-2.453 3.3,-2.5 h 2 c 2.3,0 4.2,0.391 5.25,1.047 1.8,1.094 2.75,3.203 2.75,6 0,4.953 -2.39,6.859 -8.84,6.859 h -4.46 m 0,2.344 h 4.41 c 7.64,0 10.45,2.047 10.45,7.547 0,3.203 -1.11,5.5 -3.06,6.453 -1.55,0.797 -3.64,1.156 -6.8,1.156 h -2.09 c -2.5,0 -3,-0.5 -2.91,-3.156 v -12"
         id="path106903" />
      <path
         class="StaffText"
         d="m 1561.4,561.389 h -1.91 l -2,2.954 c -3.64,-2.657 -5.5,-3.36 -8.95,-3.36 -4.75,0 -8.8,2 -12.14,6 -3.21,3.813 -4.71,8.016 -4.71,13.156 0,10.797 7.05,18.454 16.91,18.454 8,0 13.09,-4.704 14.25,-13.094 l -2.36,-0.406 c -1.34,7.453 -5.14,11.156 -11.3,11.156 -7.4,0 -10.9,-5.11 -10.9,-15.906 0,-5.704 0.75,-9.454 2.45,-12.454 1.55,-2.796 4.61,-4.546 7.86,-4.546 3.5,0 6.59,1.843 8.5,5.046 0.95,1.657 1.64,3.5 2.84,7.454 h 2.21 l -0.75,-14.454 m 22.54,1.25 -17,23.657 v 2.797 h 14.05 v 2.593 c 0,2.563 0,2.657 -0.3,3.11 -0.4,0.547 -1.36,0.703 -4.2,0.703 h -0.55 v 2.344 h 14.6 v -2.344 h -0.21 c -2.84,0 -3.79,-0.156 -4.2,-0.703 -0.3,-0.453 -0.3,-0.5 -0.3,-3.11 v -2.593 h 6.07 v -2.797 h -6.07 v -13.657 c 0,-6.25 0,-6.406 0.25,-10 h -2.14 m -2.95,23.657 h -11 l 11,-15.157 v 15.157"
         id="path106905" />
      <path
         class="StaffText"
         d="m 566.868,324.964 h -1.906 l -2,2.953 c -3.641,-2.656 -5.5,-3.359 -8.953,-3.359 -4.75,0 -8.797,2 -12.141,6 -3.203,3.812 -4.703,8.016 -4.703,13.156 0,10.797 7.047,18.453 16.906,18.453 8,0 13.094,-4.703 14.25,-13.093 l -2.359,-0.407 c -1.344,7.453 -5.141,11.157 -11.297,11.157 -7.406,0 -10.906,-5.11 -10.906,-15.907 0,-5.703 0.75,-9.453 2.453,-12.453 1.547,-2.797 4.609,-4.547 7.859,-4.547 3.5,0 6.594,1.844 8.5,5.047 0.954,1.656 1.641,3.5 2.844,7.453 h 2.203 l -0.75,-14.453 m 12.344,6.906 c 2.703,0.641 4.047,0.844 6.047,0.844 4.25,0 7.344,-1.453 9,-4.25 0.547,-0.906 0.75,-1.406 0.75,-1.797 0,-0.297 -0.094,-0.453 -0.406,-0.453 -0.141,0 -0.344,0.047 -0.641,0.203 -2.453,1.047 -3.75,1.297 -6.656,1.297 -3.203,0 -5.203,-0.297 -10.297,-1.5 -0.203,4.203 -0.656,9.547 -1.344,15.75 -1.062,1.11 -1.406,1.75 -1.406,2.547 0,1.063 0.656,1.703 1.594,1.703 1.312,0 2.062,-1.047 2.25,-3.047 1.75,-1.25 3.406,-1.797 5.406,-1.797 4.5,0 7.156,3.391 7.156,9.141 0,3.359 -0.859,6.203 -2.359,7.75 -1,1.063 -3.047,1.75 -5.094,1.75 -3,0 -6.109,-1.547 -6.109,-3.094 0,-0.343 0.312,-0.75 0.906,-1.093 1.547,-0.954 2,-1.61 2,-2.954 0,-1.75 -1.344,-3.109 -3.156,-3.109 -2,0 -3.594,1.859 -3.594,4.203 0,2.5 1.453,5 3.703,6.547 1.703,1.109 3.703,1.656 6.344,1.656 7.859,0 12.797,-4.593 12.797,-11.953 0,-6.797 -4.5,-11.344 -11.297,-11.344 -2.141,0 -3.703,0.344 -6.453,1.5 l 0.859,-8.5"
         id="path106923" />
      <path
         class="StaffText"
         d="m 565.775,540.172 c -2.454,-2.844 -4.954,-4 -8.766,-4 -5.5,0 -10.5,2.609 -14.547,7.609 -3.641,4.5 -5.547,9.704 -5.547,15.25 0,8.954 5.797,14.75 14.703,14.75 4.391,0 8.141,-1.5 11,-4.5 1.547,-1.546 2.657,-3.406 4,-6.5 l -2.047,-0.906 c -1.25,2.656 -1.953,3.86 -2.859,4.953 -2.453,3.047 -5.5,4.5 -9.25,4.5 -5.844,0 -9.297,-3.843 -9.297,-10.297 0,-5.75 2,-12.343 5.156,-17.156 2.297,-3.547 5.594,-5.547 9.094,-5.547 3.297,0 5.656,1.703 7,5.047 0.797,1.86 1.156,4.047 1.297,7.906 h 2.063 l 2.796,-14 h -1.796 l -3,2.891 m 30.843,-2.547 h -2.703 l -23.312,24.11 v 2.093 h 14.109 l -0.797,3.047 c -0.656,2.5 -0.703,2.656 -1.156,3.11 -0.5,0.5 -1.547,0.703 -4.203,0.703 h -0.891 l -0.312,2.343 h 15.562 l 0.25,-2.343 h -0.906 c -3.297,0 -4,-0.25 -4,-1.36 0,-0.39 0.094,-0.89 0.5,-2.453 l 0.844,-3.047 h 5.703 l 0.75,-2.703 h -5.75 l 6.312,-23.5 m -11.156,23.5 h -11.203 l 15.453,-15.89 -4.25,15.89"
         id="path106925" />
      <path
         class="StaffText"
         d="m 671.675,361.417 h 16.796 c 4.454,0 7.86,-0.703 10.5,-2.203 5.047,-2.844 7.86,-8.547 7.86,-16.047 0,-6.906 -2.5,-12.297 -7.11,-15.297 -2.75,-1.75 -6.453,-2.562 -12.156,-2.562 h -15.89 v 2.359 h 0.953 c 2.797,0.047 3.75,0.203 4.14,0.703 0.297,0.438 0.297,0.547 0.297,3.094 v 23.797 c 0,2.563 0,2.656 -0.297,3.109 -0.39,0.5 -1.343,0.641 -4.14,0.704 h -0.953 v 2.343 m 13.843,-2.343 c -2.547,0 -2.843,-0.313 -2.843,-2.75 v -25.86 c 0,-2.453 0.343,-2.797 2.843,-2.797 h 2.61 c 8.547,0 12.093,4.641 12.093,15.703 0,11.204 -3.203,15.704 -11.296,15.704 h -3.407"
         id="path106927" />
      <path
         class="StaffText"
         d="m 671.315,559.63 h 15.11 c 7.046,0 11.343,-1.094 14.796,-3.844 5.36,-4.25 8.75,-11.203 8.75,-17.906 0,-5.109 -1.843,-9.25 -5.203,-11.75 -2.5,-1.906 -5.64,-2.609 -11.25,-2.609 h -14.5 l -0.297,2.359 h 1.297 c 3.25,0 3.953,0.25 3.953,1.344 0,0.406 -0.203,1.406 -0.453,2.453 l -6.39,23.797 c -0.657,2.562 -0.703,2.656 -1.157,3.109 -0.5,0.5 -1.546,0.641 -4.156,0.703 h -0.25 l -0.25,2.344 m 13.25,-2.344 c -1.547,0 -2.297,-0.453 -2.297,-1.453 0,-0.406 0.11,-1.109 0.297,-1.703 l 6.656,-25 c 0.704,-2.859 1.204,-3.25 3.797,-3.25 h 1.5 c 3,0 5.563,0.797 7,2.203 1.453,1.438 2.407,4.188 2.407,7.094 0,6.859 -3.407,15.656 -7.454,19.25 -2.25,1.953 -5.453,2.859 -10.296,2.859 h -1.61"
         id="path106929" />
      <path
         class="StaffText"
         d="m 844.36,325.308 h -30.047 v 2.359 h 0.891 c 2.859,0.047 3.812,0.203 4.203,0.703 0.297,0.438 0.297,0.547 0.297,3.094 v 23.797 c 0,2.563 0,2.656 -0.297,3.109 -0.391,0.5 -1.344,0.704 -4.203,0.704 h -0.891 v 2.343 h 30.703 l 1,-13.343 h -2.203 c -1.906,8.89 -3.953,10.796 -11.609,11 h -3.297 c -3,-0.11 -3.75,-0.61 -3.594,-2.407 v -12.75 h 1 c 5.141,-0.203 7,1.657 7.203,7.203 h 2.344 v -16.406 h -2.344 c -0.312,4.906 -2.25,6.86 -7,6.86 h -1.203 v -11.407 c -0.047,-2.109 0.453,-2.453 3.141,-2.5 h 2.609 c 8.203,-0.047 10.25,1.75 11.844,10.407 h 2.156 l -0.703,-12.766"
         id="path106931" />
      <path
         class="StaffText"
         d="m 850.907,511.332 h -29.203 l -0.297,2.359 h 1.297 c 3.25,0 3.953,0.25 3.953,1.344 0,0.406 -0.203,1.406 -0.453,2.453 l -6.391,23.797 c -0.656,2.453 -0.703,2.656 -1.156,3.109 -0.5,0.5 -1.547,0.703 -4.141,0.703 h -0.25 l -0.25,2.344 h 30.047 l 3.906,-12.25 -2.062,-0.406 c -4.141,7.859 -7.547,10.203 -14.703,10.312 h -2.688 c -2.609,0 -3.5,-0.406 -3.5,-1.609 0,-0.594 0.047,-0.844 0.547,-2.75 l 2.953,-11 h 1.094 c 3.75,0.047 5.547,1.5 5.547,4.609 0,1.047 -0.094,1.797 -0.453,3.391 l 2.25,0.406 4.453,-16.703 -2.25,-0.297 c -1.547,4.547 -3.891,6.141 -8.891,6.25 h -1.156 l 2.75,-10.25 c 0.797,-3.156 1.203,-3.406 5,-3.453 h 2.906 c 2.141,0 3.844,0.547 5.094,1.641 1.406,1.25 1.859,2.812 1.859,6.359 v 1.703 h 2.25 l 1.938,-12.062"
         id="path106933" />
      <path
         class="StaffText"
         d="m 986.702,324.223 h -29.75 v 2.359 h 0.89 c 2.86,0.047 3.813,0.203 4.204,0.703 0.296,0.438 0.296,0.547 0.296,3.094 v 23.797 c 0,2.562 0,2.656 -0.296,3.109 -0.391,0.5 -1.344,0.703 -4.204,0.703 h -0.89 v 2.344 h 17.14 v -2.344 h -1.64 c -2.86,0 -3.797,-0.203 -4.203,-0.703 -0.297,-0.453 -0.297,-0.609 -0.297,-3.109 v -11.344 h 1 c 5.14,-0.203 7,1.656 7.203,7.203 h 2.344 v -16.406 h -2.344 c -0.313,4.906 -2.25,6.797 -7,6.859 h -1.203 v -11.406 c -0.047,-2.109 0.453,-2.453 3.14,-2.5 h 2.313 c 8.203,-0.047 10.25,1.797 11.797,10.406 h 2.203 l -0.703,-12.765"
         id="path106935" />
      <path
         class="StaffText"
         d="m 993.405,511.332 h -28.906 l -0.297,2.359 h 1.297 c 3.25,0 3.953,0.25 3.953,1.344 0,0.406 -0.203,1.406 -0.453,2.453 l -6.407,23.797 c -0.64,2.453 -0.687,2.656 -1.14,3.109 -0.5,0.5 -1.547,0.703 -4.156,0.703 h -0.25 l -0.25,2.344 h 15.906 l 0.25,-2.344 h -1.297 c -3.25,0 -3.953,-0.25 -3.953,-1.359 0,-0.391 0.203,-1.25 0.5,-2.453 l 3.094,-11.547 h 1.109 c 3.75,0.047 5.547,1.5 5.547,4.609 0,1.047 -0.11,1.797 -0.453,3.391 l 2.25,0.406 4.453,-16.703 -2.25,-0.297 c -1.547,4.547 -3.906,6.141 -8.906,6.25 h -1.141 l 2.75,-10.25 c 0.797,-3.156 1.187,-3.406 5,-3.453 h 2.594 c 2.156,0 3.859,0.547 5.109,1.641 1.391,1.25 1.844,2.859 1.844,6.312 v 1.75 h 2.25 l 1.953,-12.062"
         id="path106937" />
      <path
         class="StaffText"
         d="m 1129.16,310.477 h -1.89 l -1.95,3 c -3.25,-2.546 -5.46,-3.406 -9.11,-3.406 -3.96,0 -7.05,1.11 -10.21,3.656 -4.93,4 -7.25,9.047 -7.25,15.797 0,5.11 1.46,9.36 4.41,12.61 3.09,3.5 7.7,5.547 12.5,5.547 4.2,0 7.16,-1.297 10.41,-4.547 l 1.84,4.5 h 2.11 v -11 c 0,-2.547 0,-2.657 0.3,-3.11 0.45,-0.547 1.34,-0.687 4.2,-0.687 h 0.75 v -2.36 h -15.91 v 2.36 h 0.96 c 4.2,0 4.54,0.25 4.54,3.047 0,2.14 -0.34,4.093 -1,5.297 -1.25,2.453 -4.45,4.156 -7.7,4.156 -3.25,0 -6.45,-1.656 -8.16,-4.156 -1.84,-2.797 -2.64,-6.297 -2.64,-11.657 0,-11.14 3.71,-17.093 10.64,-17.093 5.71,0 9.66,4.093 11.71,12.093 h 2.15 l -0.7,-14.047"
         id="path106939" />
      <path
         class="StaffText"
         d="m 1134.61,511.691 h -1.7 l -3.09,3.094 c -2.61,-2.953 -5.36,-4.203 -9.41,-4.203 -4.91,0 -9.41,2 -13.34,5.953 -4.82,4.797 -7.46,10.906 -7.46,17.312 0,9 5.1,14.344 13.75,14.344 4.75,0 7.75,-1.156 10.85,-4.094 l 0.61,4.047 h 2.2 l 3,-11.156 c 0.69,-2.594 0.69,-2.641 1.14,-3.094 0.5,-0.5 1.55,-0.703 4.16,-0.703 h 0.2 l 0.3,-2.344 h -16.25 l -0.25,2.344 h 1.64 c 3.25,0 3.95,0.25 3.95,1.344 0,0.406 -0.2,1.453 -0.45,2.453 l -0.44,1.547 c -1.36,4.906 -4.61,7.5 -9.41,7.5 -5.54,0 -8.9,-3.641 -8.9,-9.688 0,-4.812 1.5,-10.656 3.86,-15.156 2.93,-5.609 6.75,-8.453 11.25,-8.453 3.5,0 6.29,1.906 7.75,5.297 0.84,1.906 1.14,3.859 1.2,7.359 l 2.09,0.344 2.75,-14.047"
         id="path106941" />
      <path
         class="StaffText"
         d="m 1267.03,298.732 h -2.11 l -11.5,29.141 c -1.35,3.906 -2.64,5.109 -5.5,5.312 h -0.21 v 2.344 h 13.25 v -2.344 h -1 c -2.68,0 -4.04,-0.953 -4.04,-2.859 0,-0.641 0.15,-1.25 0.45,-2.094 l 1.66,-4.406 h 13.25 l 2.7,6.703 c 0.3,0.797 0.39,1.094 0.39,1.344 0,0.812 -1.25,1.312 -3.09,1.312 h -2.11 v 2.344 h 15.5 v -2.344 h -0.69 c -2.61,-0.062 -3.06,-0.359 -4.2,-3.203 l -12.75,-31.25 m -2.46,8.188 5.64,14.203 h -11.18 l 5.54,-14.203"
         id="path106943" />
      <path
         class="StaffText"
         d="m 1274.21,510.582 h -2.04 l -16.5,28.453 c -2.64,4.406 -4.71,6.062 -7.39,6.062 l -0.25,2.344 h 13.43 l 0.32,-2.344 h -1.21 c -2.61,0 -3.45,-0.5 -3.45,-2 0,-0.75 0.3,-1.703 0.91,-2.75 l 2.75,-4.812 h 12.75 l 1.14,6.156 c 0.15,0.594 0.2,1.25 0.2,1.656 0,1.391 -0.75,1.75 -3.59,1.75 h -0.82 l -0.25,2.344 h 15.02 l 0.3,-2.344 h -1.25 c -2.8,0 -3.25,-0.406 -3.8,-3.062 l -6.27,-31.453 m -1.09,22.609 h -11 l 8.16,-14.359 2.84,14.359"
         id="path106945" />
      <path
         class="StaffText"
         d="m 1389.78,287.018 v 2.359 h 0.91 c 2.84,0.047 3.8,0.204 4.19,0.704 0.31,0.437 0.31,0.546 0.31,3.093 v 23.797 c 0,2.563 0,2.656 -0.31,3.11 -0.39,0.5 -1.35,0.703 -4.19,0.703 h -0.91 v 2.343 h 18.16 c 8.64,0 13.84,-3.656 13.84,-9.796 0,-5 -3.14,-7.86 -10,-9.047 2.41,-0.5 3.5,-0.953 4.8,-1.907 2.06,-1.546 3.31,-4 3.31,-6.5 0,-3.25 -2,-6.406 -4.9,-7.656 -1.8,-0.797 -4.3,-1.203 -7.25,-1.203 h -17.96 m 11,16.266 v -11.407 c 0,-1.953 0.66,-2.453 3.3,-2.5 h 2 c 2.3,0 4.2,0.391 5.25,1.047 1.8,1.094 2.75,3.203 2.75,6 0,4.953 -2.39,6.86 -8.84,6.86 h -4.46 m 0,2.343 h 4.41 c 7.64,0 10.45,2.047 10.45,7.547 0,3.203 -1.11,5.5 -3.06,6.453 -1.55,0.797 -3.64,1.157 -6.8,1.157 h -2.09 c -2.5,0 -3,-0.5 -2.91,-3.157 v -12"
         id="path106947" />
      <path
         class="StaffText"
         d="m 1397.44,511.332 -0.31,2.359 h 1.31 c 3.25,0 3.94,0.25 3.94,1.344 0,0.406 -0.19,1.406 -0.44,2.453 l -6.41,23.797 c -0.65,2.562 -0.7,2.656 -1.15,3.109 -0.39,0.453 -1.44,0.641 -3.64,0.703 h -0.75 l -0.25,2.344 h 18.14 c 3.65,0 6.7,-0.453 8.7,-1.344 3.86,-1.656 6.2,-5.062 6.2,-8.953 0,-2.203 -0.79,-3.953 -2.54,-5.547 -1.25,-1.156 -2.66,-1.906 -5.3,-2.703 2.45,-0.453 3.95,-0.953 5.59,-1.953 2.66,-1.594 4.16,-4.203 4.16,-7.25 0,-2.906 -1.5,-5.406 -4.05,-6.797 -2.06,-1.109 -4.31,-1.562 -8.15,-1.562 h -15.05 m 7.3,16.406 2.89,-10.656 c 0.86,-3.094 1.15,-3.344 3.75,-3.391 h 1.45 c 4.11,0 5.91,1.594 5.91,5.25 0,2.797 -1.21,5.5 -3.16,7 -1.59,1.25 -3.75,1.797 -6.7,1.797 h -4.14 m -0.61,2.359 h 3.15 c 2.41,0 4.71,0.297 5.8,0.75 2.3,0.938 3.61,2.891 3.61,5.344 0,2.594 -1.2,5.25 -3.11,6.906 -1.5,1.297 -3.95,2 -6.95,2 h -2.5 c -2.75,0 -3.5,-0.312 -3.5,-1.359 0,-0.391 0.11,-1 0.31,-1.75 l 3.19,-11.891"
         id="path106949" />
      <path
         class="StaffText"
         d="m 1561.4,273.273 h -1.91 l -2,2.953 c -3.64,-2.656 -5.5,-3.359 -8.95,-3.359 -4.75,0 -8.8,2 -12.14,6 -3.21,3.812 -4.71,8.015 -4.71,13.156 0,10.797 7.05,18.453 16.91,18.453 8,0 13.09,-4.703 14.25,-13.094 l -2.36,-0.406 c -1.34,7.453 -5.14,11.156 -11.3,11.156 -7.4,0 -10.9,-5.109 -10.9,-15.906 0,-5.703 0.75,-9.453 2.45,-12.453 1.55,-2.797 4.61,-4.547 7.86,-4.547 3.5,0 6.59,1.844 8.5,5.047 0.95,1.656 1.64,3.5 2.84,7.453 h 2.21 l -0.75,-14.453 m 11.79,19.453 c 0.5,-6.25 0.75,-7.906 1.85,-10.453 1.45,-3.547 4.09,-5.594 7.25,-5.594 1.75,0 2.79,0.547 2.79,1.438 0,0.203 -0.04,0.359 -0.25,0.703 -0.5,0.953 -0.75,1.703 -0.75,2.406 0,1.641 1.3,2.891 3.05,2.891 1.95,0 3.31,-1.5 3.31,-3.594 0,-3.453 -3.45,-6 -8.2,-6 -4.11,0 -7.95,1.953 -10.36,5.297 -2.75,3.859 -4.25,9.062 -4.25,14.5 0,9.812 4.81,16.156 12.2,16.156 3.25,0 5.96,-1.094 8.05,-3.297 2.16,-2.203 3.45,-5.453 3.45,-8.656 0,-5.891 -4.2,-10.297 -9.89,-10.297 -3.4,0 -5.9,1.344 -8.25,4.5 m 6.85,-1.453 c 3.65,0 5.84,2.859 5.84,7.609 0,5.797 -2.3,9.438 -5.94,9.438 -2.31,0 -4.06,-1.188 -5.25,-3.641 -0.81,-1.547 -1.2,-3.25 -1.2,-5.109 0,-5.141 2.5,-8.297 6.55,-8.297"
         id="path106951" />
      <path
         class="StaffText"
         d="m 1560.3,514.582 c -2.45,-2.844 -4.95,-4 -8.76,-4 -5.5,0 -10.5,2.609 -14.55,7.609 -3.64,4.5 -5.55,9.703 -5.55,15.25 0,8.953 5.8,14.75 14.71,14.75 4.39,0 8.14,-1.5 11,-4.5 1.54,-1.547 2.65,-3.406 4,-6.5 l -2.05,-0.906 c -1.25,2.656 -1.95,3.859 -2.86,4.953 -2.45,3.047 -5.5,4.5 -9.25,4.5 -5.84,0 -9.3,-3.844 -9.3,-10.297 0,-5.75 2,-12.344 5.16,-17.156 2.3,-3.547 5.59,-5.547 9.09,-5.547 3.3,0 5.66,1.703 7,5.047 0.8,1.859 1.16,4.047 1.3,7.906 h 2.06 l 2.8,-14 h -1.8 l -3,2.891 m 10.83,13.703 c -1.55,0.953 -2,1.562 -2,2.562 0,0.938 0.81,1.641 1.81,1.641 1.3,0 2.05,-0.953 2.19,-2.797 1.56,-1.25 3.2,-1.797 5.2,-1.797 3.71,0 5.75,2.297 5.75,6.453 0,6.5 -4.2,11.797 -9.34,11.797 -2.95,0 -5.36,-1.406 -5.36,-3.047 0,-0.312 0.06,-0.406 0.31,-0.562 1.3,-0.594 1.3,-0.594 1.64,-0.844 0.8,-0.594 1.25,-1.5 1.25,-2.547 0,-1.609 -1.25,-2.797 -3,-2.797 -2.2,0 -3.84,1.844 -3.84,4.25 0,4.391 3.8,7.594 9.14,7.594 8.11,0 14.66,-6.453 14.66,-14.453 0,-5.047 -3.85,-8.594 -9.3,-8.594 -2.16,0 -3.91,0.453 -6.3,1.641 l 2.8,-9.453 c 2.64,0.562 4.75,0.812 6.55,0.812 3.29,0 6.25,-1.062 7.9,-2.812 0.85,-1 1.35,-1.844 1.35,-2.5 0,-0.297 -0.14,-0.594 -0.35,-0.594 -0.15,0 -0.25,0.047 -0.54,0.203 -1.66,0.797 -3.77,1.25 -5.71,1.25 -3,0 -6.56,-0.5 -10.25,-1.453 l -4.56,16.047"
         id="path106953" />
      <path
         class="Bracket"
         d="m 346.99949,567.484 c 6.35,-6.85392 18.99382,-21.01527 18.99382,-47.12838 0,-33.02394 -14.16106,-66.44413 -14.16106,-86.89313 0,-22.09125 12.86856,-43.04996 13.26194,-43.61623 0.39335,-0.62318 0.33717,-1.41603 -0.0562,-1.69952 -0.39334,-0.22658 -1.12389,0 -1.62963,0.51007 -0.44955,0.56627 -19.72435,20.22206 -19.72435,49.73386 0,32.11762 12.58761,54.49237 12.58761,96.18286 0,7.93025 -3.37168,20.73177 -12.25044,31.72102 -0.61814,0.56627 -0.67434,1.58605 -0.11239,2.26579 v 0.0566 l 0.11239,0.11311 c 8.87876,10.98925 12.25044,23.73422 12.25044,31.66447 0,41.74705 -12.58761,64.12179 -12.58761,96.18286 0,29.51179 19.2748,49.28079 19.72435,49.79059 0.50574,0.50981 1.1239,0.79303 1.62963,0.50981 0.50577,-0.33987 0.50577,-0.96296 0.0562,-1.69935 -0.50577,-0.73638 -13.26194,-21.52499 -13.26194,-43.61631 0,-20.44901 14.16106,-53.98266 14.16106,-86.94969 0,-26.45316 -12.64382,-40.33102 -18.99382,-47.12838"
         id="path106987"
         style="stroke-width:3.61083" />
    </g>
  </g>
  <metadata
     id="metadata107124">
    <rdf:RDF>
      <cc:Work
         rdf:about="">
        <dc:title>Без названия-3 (1)</dc:title>
      </cc:Work>
    </rdf:RDF>
  </metadata>
</svg>
